%TF.GenerationSoftware,KiCad,Pcbnew,(5.1.9)-1*%
%TF.CreationDate,2023-11-25T15:35:42-05:00*%
%TF.ProjectId,PCB,5043422e-6b69-4636-9164-5f7063625858,rev?*%
%TF.SameCoordinates,Original*%
%TF.FileFunction,Copper,L2,Bot*%
%TF.FilePolarity,Positive*%
%FSLAX46Y46*%
G04 Gerber Fmt 4.6, Leading zero omitted, Abs format (unit mm)*
G04 Created by KiCad (PCBNEW (5.1.9)-1) date 2023-11-25 15:35:42*
%MOMM*%
%LPD*%
G01*
G04 APERTURE LIST*
%ADD10C,0.100000*%
%ADD11C,0.150000*%
%ADD12C,0.300000*%
%ADD13C,0.400000*%
%TA.AperFunction,NonConductor*%
%ADD14C,0.300000*%
%TD*%
%TA.AperFunction,ComponentPad*%
%ADD15R,1.600000X1.600000*%
%TD*%
%TA.AperFunction,ComponentPad*%
%ADD16O,1.600000X1.600000*%
%TD*%
%TA.AperFunction,ComponentPad*%
%ADD17R,1.700000X1.700000*%
%TD*%
%TA.AperFunction,ComponentPad*%
%ADD18O,1.700000X1.700000*%
%TD*%
%TA.AperFunction,ComponentPad*%
%ADD19R,1.800000X1.800000*%
%TD*%
%TA.AperFunction,ComponentPad*%
%ADD20O,1.800000X1.800000*%
%TD*%
%TA.AperFunction,ComponentPad*%
%ADD21R,3.500000X3.500000*%
%TD*%
%TA.AperFunction,ComponentPad*%
%ADD22C,1.600000*%
%TD*%
%TA.AperFunction,ComponentPad*%
%ADD23O,1.600000X2.400000*%
%TD*%
%TA.AperFunction,ComponentPad*%
%ADD24R,1.600000X2.400000*%
%TD*%
%TA.AperFunction,Conductor*%
%ADD25C,1.000000*%
%TD*%
%TA.AperFunction,Conductor*%
%ADD26C,0.500000*%
%TD*%
%TA.AperFunction,Conductor*%
%ADD27C,0.254000*%
%TD*%
%TA.AperFunction,Conductor*%
%ADD28C,0.100000*%
%TD*%
G04 APERTURE END LIST*
D10*
D11*
X177002200Y-166007200D02*
X177002200Y-198007200D01*
X285002200Y-198007200D01*
X285002200Y-166007200D01*
X177002200Y-166007200D01*
D10*
D11*
X10000000Y-10000000D02*
X10000000Y-200007200D01*
X287002200Y-200007200D01*
X287002200Y-10000000D01*
X10000000Y-10000000D01*
D10*
D11*
X12000000Y-12000000D02*
X12000000Y-198007200D01*
X285002200Y-198007200D01*
X285002200Y-12000000D01*
X12000000Y-12000000D01*
D10*
D11*
X60000000Y-12000000D02*
X60000000Y-10000000D01*
D10*
D11*
X110000000Y-12000000D02*
X110000000Y-10000000D01*
D10*
D11*
X160000000Y-12000000D02*
X160000000Y-10000000D01*
D10*
D11*
X210000000Y-12000000D02*
X210000000Y-10000000D01*
D10*
D11*
X260000000Y-12000000D02*
X260000000Y-10000000D01*
D10*
D11*
X36065476Y-11588095D02*
X35322619Y-11588095D01*
X35694047Y-11588095D02*
X35694047Y-10288095D01*
X35570238Y-10473809D01*
X35446428Y-10597619D01*
X35322619Y-10659523D01*
D10*
D11*
X85322619Y-10411904D02*
X85384523Y-10350000D01*
X85508333Y-10288095D01*
X85817857Y-10288095D01*
X85941666Y-10350000D01*
X86003571Y-10411904D01*
X86065476Y-10535714D01*
X86065476Y-10659523D01*
X86003571Y-10845238D01*
X85260714Y-11588095D01*
X86065476Y-11588095D01*
D10*
D11*
X135260714Y-10288095D02*
X136065476Y-10288095D01*
X135632142Y-10783333D01*
X135817857Y-10783333D01*
X135941666Y-10845238D01*
X136003571Y-10907142D01*
X136065476Y-11030952D01*
X136065476Y-11340476D01*
X136003571Y-11464285D01*
X135941666Y-11526190D01*
X135817857Y-11588095D01*
X135446428Y-11588095D01*
X135322619Y-11526190D01*
X135260714Y-11464285D01*
D10*
D11*
X185941666Y-10721428D02*
X185941666Y-11588095D01*
X185632142Y-10226190D02*
X185322619Y-11154761D01*
X186127380Y-11154761D01*
D10*
D11*
X236003571Y-10288095D02*
X235384523Y-10288095D01*
X235322619Y-10907142D01*
X235384523Y-10845238D01*
X235508333Y-10783333D01*
X235817857Y-10783333D01*
X235941666Y-10845238D01*
X236003571Y-10907142D01*
X236065476Y-11030952D01*
X236065476Y-11340476D01*
X236003571Y-11464285D01*
X235941666Y-11526190D01*
X235817857Y-11588095D01*
X235508333Y-11588095D01*
X235384523Y-11526190D01*
X235322619Y-11464285D01*
D10*
D11*
X285941666Y-10288095D02*
X285694047Y-10288095D01*
X285570238Y-10350000D01*
X285508333Y-10411904D01*
X285384523Y-10597619D01*
X285322619Y-10845238D01*
X285322619Y-11340476D01*
X285384523Y-11464285D01*
X285446428Y-11526190D01*
X285570238Y-11588095D01*
X285817857Y-11588095D01*
X285941666Y-11526190D01*
X286003571Y-11464285D01*
X286065476Y-11340476D01*
X286065476Y-11030952D01*
X286003571Y-10907142D01*
X285941666Y-10845238D01*
X285817857Y-10783333D01*
X285570238Y-10783333D01*
X285446428Y-10845238D01*
X285384523Y-10907142D01*
X285322619Y-11030952D01*
D10*
D11*
X60000000Y-198007200D02*
X60000000Y-200007200D01*
D10*
D11*
X110000000Y-198007200D02*
X110000000Y-200007200D01*
D10*
D11*
X160000000Y-198007200D02*
X160000000Y-200007200D01*
D10*
D11*
X210000000Y-198007200D02*
X210000000Y-200007200D01*
D10*
D11*
X260000000Y-198007200D02*
X260000000Y-200007200D01*
D10*
D11*
X36065476Y-199595295D02*
X35322619Y-199595295D01*
X35694047Y-199595295D02*
X35694047Y-198295295D01*
X35570238Y-198481009D01*
X35446428Y-198604819D01*
X35322619Y-198666723D01*
D10*
D11*
X85322619Y-198419104D02*
X85384523Y-198357200D01*
X85508333Y-198295295D01*
X85817857Y-198295295D01*
X85941666Y-198357200D01*
X86003571Y-198419104D01*
X86065476Y-198542914D01*
X86065476Y-198666723D01*
X86003571Y-198852438D01*
X85260714Y-199595295D01*
X86065476Y-199595295D01*
D10*
D11*
X135260714Y-198295295D02*
X136065476Y-198295295D01*
X135632142Y-198790533D01*
X135817857Y-198790533D01*
X135941666Y-198852438D01*
X136003571Y-198914342D01*
X136065476Y-199038152D01*
X136065476Y-199347676D01*
X136003571Y-199471485D01*
X135941666Y-199533390D01*
X135817857Y-199595295D01*
X135446428Y-199595295D01*
X135322619Y-199533390D01*
X135260714Y-199471485D01*
D10*
D11*
X185941666Y-198728628D02*
X185941666Y-199595295D01*
X185632142Y-198233390D02*
X185322619Y-199161961D01*
X186127380Y-199161961D01*
D10*
D11*
X236003571Y-198295295D02*
X235384523Y-198295295D01*
X235322619Y-198914342D01*
X235384523Y-198852438D01*
X235508333Y-198790533D01*
X235817857Y-198790533D01*
X235941666Y-198852438D01*
X236003571Y-198914342D01*
X236065476Y-199038152D01*
X236065476Y-199347676D01*
X236003571Y-199471485D01*
X235941666Y-199533390D01*
X235817857Y-199595295D01*
X235508333Y-199595295D01*
X235384523Y-199533390D01*
X235322619Y-199471485D01*
D10*
D11*
X285941666Y-198295295D02*
X285694047Y-198295295D01*
X285570238Y-198357200D01*
X285508333Y-198419104D01*
X285384523Y-198604819D01*
X285322619Y-198852438D01*
X285322619Y-199347676D01*
X285384523Y-199471485D01*
X285446428Y-199533390D01*
X285570238Y-199595295D01*
X285817857Y-199595295D01*
X285941666Y-199533390D01*
X286003571Y-199471485D01*
X286065476Y-199347676D01*
X286065476Y-199038152D01*
X286003571Y-198914342D01*
X285941666Y-198852438D01*
X285817857Y-198790533D01*
X285570238Y-198790533D01*
X285446428Y-198852438D01*
X285384523Y-198914342D01*
X285322619Y-199038152D01*
D10*
D11*
X10000000Y-60000000D02*
X12000000Y-60000000D01*
D10*
D11*
X10000000Y-110000000D02*
X12000000Y-110000000D01*
D10*
D11*
X10000000Y-160000000D02*
X12000000Y-160000000D01*
D10*
D11*
X10690476Y-35216666D02*
X11309523Y-35216666D01*
X10566666Y-35588095D02*
X11000000Y-34288095D01*
X11433333Y-35588095D01*
D10*
D11*
X11092857Y-84907142D02*
X11278571Y-84969047D01*
X11340476Y-85030952D01*
X11402380Y-85154761D01*
X11402380Y-85340476D01*
X11340476Y-85464285D01*
X11278571Y-85526190D01*
X11154761Y-85588095D01*
X10659523Y-85588095D01*
X10659523Y-84288095D01*
X11092857Y-84288095D01*
X11216666Y-84350000D01*
X11278571Y-84411904D01*
X11340476Y-84535714D01*
X11340476Y-84659523D01*
X11278571Y-84783333D01*
X11216666Y-84845238D01*
X11092857Y-84907142D01*
X10659523Y-84907142D01*
D10*
D11*
X11402380Y-135464285D02*
X11340476Y-135526190D01*
X11154761Y-135588095D01*
X11030952Y-135588095D01*
X10845238Y-135526190D01*
X10721428Y-135402380D01*
X10659523Y-135278571D01*
X10597619Y-135030952D01*
X10597619Y-134845238D01*
X10659523Y-134597619D01*
X10721428Y-134473809D01*
X10845238Y-134350000D01*
X11030952Y-134288095D01*
X11154761Y-134288095D01*
X11340476Y-134350000D01*
X11402380Y-134411904D01*
D10*
D11*
X10659523Y-185588095D02*
X10659523Y-184288095D01*
X10969047Y-184288095D01*
X11154761Y-184350000D01*
X11278571Y-184473809D01*
X11340476Y-184597619D01*
X11402380Y-184845238D01*
X11402380Y-185030952D01*
X11340476Y-185278571D01*
X11278571Y-185402380D01*
X11154761Y-185526190D01*
X10969047Y-185588095D01*
X10659523Y-185588095D01*
D10*
D11*
X287002200Y-60000000D02*
X285002200Y-60000000D01*
D10*
D11*
X287002200Y-110000000D02*
X285002200Y-110000000D01*
D10*
D11*
X287002200Y-160000000D02*
X285002200Y-160000000D01*
D10*
D11*
X285692676Y-35216666D02*
X286311723Y-35216666D01*
X285568866Y-35588095D02*
X286002200Y-34288095D01*
X286435533Y-35588095D01*
D10*
D11*
X286095057Y-84907142D02*
X286280771Y-84969047D01*
X286342676Y-85030952D01*
X286404580Y-85154761D01*
X286404580Y-85340476D01*
X286342676Y-85464285D01*
X286280771Y-85526190D01*
X286156961Y-85588095D01*
X285661723Y-85588095D01*
X285661723Y-84288095D01*
X286095057Y-84288095D01*
X286218866Y-84350000D01*
X286280771Y-84411904D01*
X286342676Y-84535714D01*
X286342676Y-84659523D01*
X286280771Y-84783333D01*
X286218866Y-84845238D01*
X286095057Y-84907142D01*
X285661723Y-84907142D01*
D10*
D11*
X286404580Y-135464285D02*
X286342676Y-135526190D01*
X286156961Y-135588095D01*
X286033152Y-135588095D01*
X285847438Y-135526190D01*
X285723628Y-135402380D01*
X285661723Y-135278571D01*
X285599819Y-135030952D01*
X285599819Y-134845238D01*
X285661723Y-134597619D01*
X285723628Y-134473809D01*
X285847438Y-134350000D01*
X286033152Y-134288095D01*
X286156961Y-134288095D01*
X286342676Y-134350000D01*
X286404580Y-134411904D01*
D10*
D11*
X285661723Y-185588095D02*
X285661723Y-184288095D01*
X285971247Y-184288095D01*
X286156961Y-184350000D01*
X286280771Y-184473809D01*
X286342676Y-184597619D01*
X286404580Y-184845238D01*
X286404580Y-185030952D01*
X286342676Y-185278571D01*
X286280771Y-185402380D01*
X286156961Y-185526190D01*
X285971247Y-185588095D01*
X285661723Y-185588095D01*
D10*
D11*
X200434342Y-193785771D02*
X200434342Y-192285771D01*
X200791485Y-192285771D01*
X201005771Y-192357200D01*
X201148628Y-192500057D01*
X201220057Y-192642914D01*
X201291485Y-192928628D01*
X201291485Y-193142914D01*
X201220057Y-193428628D01*
X201148628Y-193571485D01*
X201005771Y-193714342D01*
X200791485Y-193785771D01*
X200434342Y-193785771D01*
X202577200Y-193785771D02*
X202577200Y-193000057D01*
X202505771Y-192857200D01*
X202362914Y-192785771D01*
X202077200Y-192785771D01*
X201934342Y-192857200D01*
X202577200Y-193714342D02*
X202434342Y-193785771D01*
X202077200Y-193785771D01*
X201934342Y-193714342D01*
X201862914Y-193571485D01*
X201862914Y-193428628D01*
X201934342Y-193285771D01*
X202077200Y-193214342D01*
X202434342Y-193214342D01*
X202577200Y-193142914D01*
X203077200Y-192785771D02*
X203648628Y-192785771D01*
X203291485Y-192285771D02*
X203291485Y-193571485D01*
X203362914Y-193714342D01*
X203505771Y-193785771D01*
X203648628Y-193785771D01*
X204720057Y-193714342D02*
X204577200Y-193785771D01*
X204291485Y-193785771D01*
X204148628Y-193714342D01*
X204077200Y-193571485D01*
X204077200Y-193000057D01*
X204148628Y-192857200D01*
X204291485Y-192785771D01*
X204577200Y-192785771D01*
X204720057Y-192857200D01*
X204791485Y-193000057D01*
X204791485Y-193142914D01*
X204077200Y-193285771D01*
X205434342Y-193642914D02*
X205505771Y-193714342D01*
X205434342Y-193785771D01*
X205362914Y-193714342D01*
X205434342Y-193642914D01*
X205434342Y-193785771D01*
X205434342Y-192857200D02*
X205505771Y-192928628D01*
X205434342Y-193000057D01*
X205362914Y-192928628D01*
X205434342Y-192857200D01*
X205434342Y-193000057D01*
D10*
D11*
X177002200Y-194507200D02*
X285002200Y-194507200D01*
D10*
D11*
X178434342Y-196585771D02*
X178434342Y-195085771D01*
X179291485Y-196585771D02*
X178648628Y-195728628D01*
X179291485Y-195085771D02*
X178434342Y-195942914D01*
X179934342Y-196585771D02*
X179934342Y-195585771D01*
X179934342Y-195085771D02*
X179862914Y-195157200D01*
X179934342Y-195228628D01*
X180005771Y-195157200D01*
X179934342Y-195085771D01*
X179934342Y-195228628D01*
X181505771Y-196442914D02*
X181434342Y-196514342D01*
X181220057Y-196585771D01*
X181077200Y-196585771D01*
X180862914Y-196514342D01*
X180720057Y-196371485D01*
X180648628Y-196228628D01*
X180577200Y-195942914D01*
X180577200Y-195728628D01*
X180648628Y-195442914D01*
X180720057Y-195300057D01*
X180862914Y-195157200D01*
X181077200Y-195085771D01*
X181220057Y-195085771D01*
X181434342Y-195157200D01*
X181505771Y-195228628D01*
X182791485Y-196585771D02*
X182791485Y-195800057D01*
X182720057Y-195657200D01*
X182577200Y-195585771D01*
X182291485Y-195585771D01*
X182148628Y-195657200D01*
X182791485Y-196514342D02*
X182648628Y-196585771D01*
X182291485Y-196585771D01*
X182148628Y-196514342D01*
X182077200Y-196371485D01*
X182077200Y-196228628D01*
X182148628Y-196085771D01*
X182291485Y-196014342D01*
X182648628Y-196014342D01*
X182791485Y-195942914D01*
X184148628Y-196585771D02*
X184148628Y-195085771D01*
X184148628Y-196514342D02*
X184005771Y-196585771D01*
X183720057Y-196585771D01*
X183577200Y-196514342D01*
X183505771Y-196442914D01*
X183434342Y-196300057D01*
X183434342Y-195871485D01*
X183505771Y-195728628D01*
X183577200Y-195657200D01*
X183720057Y-195585771D01*
X184005771Y-195585771D01*
X184148628Y-195657200D01*
X186005771Y-195800057D02*
X186505771Y-195800057D01*
X186720057Y-196585771D02*
X186005771Y-196585771D01*
X186005771Y-195085771D01*
X186720057Y-195085771D01*
X187362914Y-196442914D02*
X187434342Y-196514342D01*
X187362914Y-196585771D01*
X187291485Y-196514342D01*
X187362914Y-196442914D01*
X187362914Y-196585771D01*
X188077200Y-196585771D02*
X188077200Y-195085771D01*
X188434342Y-195085771D01*
X188648628Y-195157200D01*
X188791485Y-195300057D01*
X188862914Y-195442914D01*
X188934342Y-195728628D01*
X188934342Y-195942914D01*
X188862914Y-196228628D01*
X188791485Y-196371485D01*
X188648628Y-196514342D01*
X188434342Y-196585771D01*
X188077200Y-196585771D01*
X189577200Y-196442914D02*
X189648628Y-196514342D01*
X189577200Y-196585771D01*
X189505771Y-196514342D01*
X189577200Y-196442914D01*
X189577200Y-196585771D01*
X190220057Y-196157200D02*
X190934342Y-196157200D01*
X190077200Y-196585771D02*
X190577200Y-195085771D01*
X191077200Y-196585771D01*
X191577200Y-196442914D02*
X191648628Y-196514342D01*
X191577200Y-196585771D01*
X191505771Y-196514342D01*
X191577200Y-196442914D01*
X191577200Y-196585771D01*
X194577200Y-196585771D02*
X194577200Y-195085771D01*
X194720057Y-196014342D02*
X195148628Y-196585771D01*
X195148628Y-195585771D02*
X194577200Y-196157200D01*
X195791485Y-196585771D02*
X195791485Y-195585771D01*
X195791485Y-195085771D02*
X195720057Y-195157200D01*
X195791485Y-195228628D01*
X195862914Y-195157200D01*
X195791485Y-195085771D01*
X195791485Y-195228628D01*
X197148628Y-196514342D02*
X197005771Y-196585771D01*
X196720057Y-196585771D01*
X196577200Y-196514342D01*
X196505771Y-196442914D01*
X196434342Y-196300057D01*
X196434342Y-195871485D01*
X196505771Y-195728628D01*
X196577200Y-195657200D01*
X196720057Y-195585771D01*
X197005771Y-195585771D01*
X197148628Y-195657200D01*
X198434342Y-196585771D02*
X198434342Y-195800057D01*
X198362914Y-195657200D01*
X198220057Y-195585771D01*
X197934342Y-195585771D01*
X197791485Y-195657200D01*
X198434342Y-196514342D02*
X198291485Y-196585771D01*
X197934342Y-196585771D01*
X197791485Y-196514342D01*
X197720057Y-196371485D01*
X197720057Y-196228628D01*
X197791485Y-196085771D01*
X197934342Y-196014342D01*
X198291485Y-196014342D01*
X198434342Y-195942914D01*
X199791485Y-196585771D02*
X199791485Y-195085771D01*
X199791485Y-196514342D02*
X199648628Y-196585771D01*
X199362914Y-196585771D01*
X199220057Y-196514342D01*
X199148628Y-196442914D01*
X199077200Y-196300057D01*
X199077200Y-195871485D01*
X199148628Y-195728628D01*
X199220057Y-195657200D01*
X199362914Y-195585771D01*
X199648628Y-195585771D01*
X199791485Y-195657200D01*
X202077200Y-197157200D02*
X202005771Y-197085771D01*
X201862914Y-196871485D01*
X201791485Y-196728628D01*
X201720057Y-196514342D01*
X201648628Y-196157200D01*
X201648628Y-195871485D01*
X201720057Y-195514342D01*
X201791485Y-195300057D01*
X201862914Y-195157200D01*
X202005771Y-194942914D01*
X202077200Y-194871485D01*
X203362914Y-195085771D02*
X202648628Y-195085771D01*
X202577200Y-195800057D01*
X202648628Y-195728628D01*
X202791485Y-195657200D01*
X203148628Y-195657200D01*
X203291485Y-195728628D01*
X203362914Y-195800057D01*
X203434342Y-195942914D01*
X203434342Y-196300057D01*
X203362914Y-196442914D01*
X203291485Y-196514342D01*
X203148628Y-196585771D01*
X202791485Y-196585771D01*
X202648628Y-196514342D01*
X202577200Y-196442914D01*
X204077200Y-196442914D02*
X204148628Y-196514342D01*
X204077200Y-196585771D01*
X204005771Y-196514342D01*
X204077200Y-196442914D01*
X204077200Y-196585771D01*
X205577200Y-196585771D02*
X204720057Y-196585771D01*
X205148628Y-196585771D02*
X205148628Y-195085771D01*
X205005771Y-195300057D01*
X204862914Y-195442914D01*
X204720057Y-195514342D01*
X206220057Y-196442914D02*
X206291485Y-196514342D01*
X206220057Y-196585771D01*
X206148628Y-196514342D01*
X206220057Y-196442914D01*
X206220057Y-196585771D01*
X207005771Y-196585771D02*
X207291485Y-196585771D01*
X207434342Y-196514342D01*
X207505771Y-196442914D01*
X207648628Y-196228628D01*
X207720057Y-195942914D01*
X207720057Y-195371485D01*
X207648628Y-195228628D01*
X207577200Y-195157200D01*
X207434342Y-195085771D01*
X207148628Y-195085771D01*
X207005771Y-195157200D01*
X206934342Y-195228628D01*
X206862914Y-195371485D01*
X206862914Y-195728628D01*
X206934342Y-195871485D01*
X207005771Y-195942914D01*
X207148628Y-196014342D01*
X207434342Y-196014342D01*
X207577200Y-195942914D01*
X207648628Y-195871485D01*
X207720057Y-195728628D01*
X208220057Y-197157200D02*
X208291485Y-197085771D01*
X208434342Y-196871485D01*
X208505771Y-196728628D01*
X208577200Y-196514342D01*
X208648628Y-196157200D01*
X208648628Y-195871485D01*
X208577200Y-195514342D01*
X208505771Y-195300057D01*
X208434342Y-195157200D01*
X208291485Y-194942914D01*
X208220057Y-194871485D01*
X209362914Y-196014342D02*
X210505771Y-196014342D01*
X212005771Y-196585771D02*
X211148628Y-196585771D01*
X211577200Y-196585771D02*
X211577200Y-195085771D01*
X211434342Y-195300057D01*
X211291485Y-195442914D01*
X211148628Y-195514342D01*
D10*
D11*
X177002200Y-191507200D02*
X285002200Y-191507200D01*
D10*
D12*
X264411485Y-193785771D02*
X263911485Y-193071485D01*
X263554342Y-193785771D02*
X263554342Y-192285771D01*
X264125771Y-192285771D01*
X264268628Y-192357200D01*
X264340057Y-192428628D01*
X264411485Y-192571485D01*
X264411485Y-192785771D01*
X264340057Y-192928628D01*
X264268628Y-193000057D01*
X264125771Y-193071485D01*
X263554342Y-193071485D01*
X265625771Y-193714342D02*
X265482914Y-193785771D01*
X265197200Y-193785771D01*
X265054342Y-193714342D01*
X264982914Y-193571485D01*
X264982914Y-193000057D01*
X265054342Y-192857200D01*
X265197200Y-192785771D01*
X265482914Y-192785771D01*
X265625771Y-192857200D01*
X265697200Y-193000057D01*
X265697200Y-193142914D01*
X264982914Y-193285771D01*
X266197200Y-192785771D02*
X266554342Y-193785771D01*
X266911485Y-192785771D01*
X267482914Y-193642914D02*
X267554342Y-193714342D01*
X267482914Y-193785771D01*
X267411485Y-193714342D01*
X267482914Y-193642914D01*
X267482914Y-193785771D01*
X267482914Y-192857200D02*
X267554342Y-192928628D01*
X267482914Y-193000057D01*
X267411485Y-192928628D01*
X267482914Y-192857200D01*
X267482914Y-193000057D01*
D10*
D11*
X178362914Y-193714342D02*
X178577200Y-193785771D01*
X178934342Y-193785771D01*
X179077200Y-193714342D01*
X179148628Y-193642914D01*
X179220057Y-193500057D01*
X179220057Y-193357200D01*
X179148628Y-193214342D01*
X179077200Y-193142914D01*
X178934342Y-193071485D01*
X178648628Y-193000057D01*
X178505771Y-192928628D01*
X178434342Y-192857200D01*
X178362914Y-192714342D01*
X178362914Y-192571485D01*
X178434342Y-192428628D01*
X178505771Y-192357200D01*
X178648628Y-192285771D01*
X179005771Y-192285771D01*
X179220057Y-192357200D01*
X179862914Y-193785771D02*
X179862914Y-192785771D01*
X179862914Y-192285771D02*
X179791485Y-192357200D01*
X179862914Y-192428628D01*
X179934342Y-192357200D01*
X179862914Y-192285771D01*
X179862914Y-192428628D01*
X180434342Y-192785771D02*
X181220057Y-192785771D01*
X180434342Y-193785771D01*
X181220057Y-193785771D01*
X182362914Y-193714342D02*
X182220057Y-193785771D01*
X181934342Y-193785771D01*
X181791485Y-193714342D01*
X181720057Y-193571485D01*
X181720057Y-193000057D01*
X181791485Y-192857200D01*
X181934342Y-192785771D01*
X182220057Y-192785771D01*
X182362914Y-192857200D01*
X182434342Y-193000057D01*
X182434342Y-193142914D01*
X181720057Y-193285771D01*
X183077200Y-193642914D02*
X183148628Y-193714342D01*
X183077200Y-193785771D01*
X183005771Y-193714342D01*
X183077200Y-193642914D01*
X183077200Y-193785771D01*
X183077200Y-192857200D02*
X183148628Y-192928628D01*
X183077200Y-193000057D01*
X183005771Y-192928628D01*
X183077200Y-192857200D01*
X183077200Y-193000057D01*
X184862914Y-193357200D02*
X185577200Y-193357200D01*
X184720057Y-193785771D02*
X185220057Y-192285771D01*
X185720057Y-193785771D01*
X186862914Y-192785771D02*
X186862914Y-193785771D01*
X186505771Y-192214342D02*
X186148628Y-193285771D01*
X187077200Y-193285771D01*
D10*
D11*
X263434342Y-196585771D02*
X263434342Y-195085771D01*
X264791485Y-196585771D02*
X264791485Y-195085771D01*
X264791485Y-196514342D02*
X264648628Y-196585771D01*
X264362914Y-196585771D01*
X264220057Y-196514342D01*
X264148628Y-196442914D01*
X264077200Y-196300057D01*
X264077200Y-195871485D01*
X264148628Y-195728628D01*
X264220057Y-195657200D01*
X264362914Y-195585771D01*
X264648628Y-195585771D01*
X264791485Y-195657200D01*
X265505771Y-196442914D02*
X265577200Y-196514342D01*
X265505771Y-196585771D01*
X265434342Y-196514342D01*
X265505771Y-196442914D01*
X265505771Y-196585771D01*
X265505771Y-195657200D02*
X265577200Y-195728628D01*
X265505771Y-195800057D01*
X265434342Y-195728628D01*
X265505771Y-195657200D01*
X265505771Y-195800057D01*
X268148628Y-196585771D02*
X267291485Y-196585771D01*
X267720057Y-196585771D02*
X267720057Y-195085771D01*
X267577200Y-195300057D01*
X267434342Y-195442914D01*
X267291485Y-195514342D01*
X269862914Y-195014342D02*
X268577200Y-196942914D01*
X271148628Y-196585771D02*
X270291485Y-196585771D01*
X270720057Y-196585771D02*
X270720057Y-195085771D01*
X270577200Y-195300057D01*
X270434342Y-195442914D01*
X270291485Y-195514342D01*
D10*
D11*
X177002200Y-187507200D02*
X285002200Y-187507200D01*
D10*
D13*
X178714580Y-188211961D02*
X179857438Y-188211961D01*
X179036009Y-190211961D02*
X179286009Y-188211961D01*
X180274104Y-190211961D02*
X180440771Y-188878628D01*
X180524104Y-188211961D02*
X180416961Y-188307200D01*
X180500295Y-188402438D01*
X180607438Y-188307200D01*
X180524104Y-188211961D01*
X180500295Y-188402438D01*
X181107438Y-188878628D02*
X181869342Y-188878628D01*
X181476485Y-188211961D02*
X181262200Y-189926247D01*
X181333628Y-190116723D01*
X181512200Y-190211961D01*
X181702676Y-190211961D01*
X182655057Y-190211961D02*
X182476485Y-190116723D01*
X182405057Y-189926247D01*
X182619342Y-188211961D01*
X184190771Y-190116723D02*
X183988390Y-190211961D01*
X183607438Y-190211961D01*
X183428866Y-190116723D01*
X183357438Y-189926247D01*
X183452676Y-189164342D01*
X183571723Y-188973866D01*
X183774104Y-188878628D01*
X184155057Y-188878628D01*
X184333628Y-188973866D01*
X184405057Y-189164342D01*
X184381247Y-189354819D01*
X183405057Y-189545295D01*
X185155057Y-190021485D02*
X185238390Y-190116723D01*
X185131247Y-190211961D01*
X185047914Y-190116723D01*
X185155057Y-190021485D01*
X185131247Y-190211961D01*
X185286009Y-188973866D02*
X185369342Y-189069104D01*
X185262200Y-189164342D01*
X185178866Y-189069104D01*
X185286009Y-188973866D01*
X185262200Y-189164342D01*
D10*
D11*
X178934342Y-185600057D02*
X178434342Y-185600057D01*
X178434342Y-186385771D02*
X178434342Y-184885771D01*
X179148628Y-184885771D01*
X179720057Y-186385771D02*
X179720057Y-185385771D01*
X179720057Y-184885771D02*
X179648628Y-184957200D01*
X179720057Y-185028628D01*
X179791485Y-184957200D01*
X179720057Y-184885771D01*
X179720057Y-185028628D01*
X180648628Y-186385771D02*
X180505771Y-186314342D01*
X180434342Y-186171485D01*
X180434342Y-184885771D01*
X181791485Y-186314342D02*
X181648628Y-186385771D01*
X181362914Y-186385771D01*
X181220057Y-186314342D01*
X181148628Y-186171485D01*
X181148628Y-185600057D01*
X181220057Y-185457200D01*
X181362914Y-185385771D01*
X181648628Y-185385771D01*
X181791485Y-185457200D01*
X181862914Y-185600057D01*
X181862914Y-185742914D01*
X181148628Y-185885771D01*
X182505771Y-186242914D02*
X182577200Y-186314342D01*
X182505771Y-186385771D01*
X182434342Y-186314342D01*
X182505771Y-186242914D01*
X182505771Y-186385771D01*
X182505771Y-185457200D02*
X182577200Y-185528628D01*
X182505771Y-185600057D01*
X182434342Y-185528628D01*
X182505771Y-185457200D01*
X182505771Y-185600057D01*
X184362914Y-186385771D02*
X184362914Y-184885771D01*
X184934342Y-184885771D01*
X185077200Y-184957200D01*
X185148628Y-185028628D01*
X185220057Y-185171485D01*
X185220057Y-185385771D01*
X185148628Y-185528628D01*
X185077200Y-185600057D01*
X184934342Y-185671485D01*
X184362914Y-185671485D01*
X186720057Y-186242914D02*
X186648628Y-186314342D01*
X186434342Y-186385771D01*
X186291485Y-186385771D01*
X186077200Y-186314342D01*
X185934342Y-186171485D01*
X185862914Y-186028628D01*
X185791485Y-185742914D01*
X185791485Y-185528628D01*
X185862914Y-185242914D01*
X185934342Y-185100057D01*
X186077200Y-184957200D01*
X186291485Y-184885771D01*
X186434342Y-184885771D01*
X186648628Y-184957200D01*
X186720057Y-185028628D01*
X187862914Y-185600057D02*
X188077200Y-185671485D01*
X188148628Y-185742914D01*
X188220057Y-185885771D01*
X188220057Y-186100057D01*
X188148628Y-186242914D01*
X188077200Y-186314342D01*
X187934342Y-186385771D01*
X187362914Y-186385771D01*
X187362914Y-184885771D01*
X187862914Y-184885771D01*
X188005771Y-184957200D01*
X188077200Y-185028628D01*
X188148628Y-185171485D01*
X188148628Y-185314342D01*
X188077200Y-185457200D01*
X188005771Y-185528628D01*
X187862914Y-185600057D01*
X187362914Y-185600057D01*
X188862914Y-186242914D02*
X188934342Y-186314342D01*
X188862914Y-186385771D01*
X188791485Y-186314342D01*
X188862914Y-186242914D01*
X188862914Y-186385771D01*
X189577200Y-186385771D02*
X189577200Y-184885771D01*
X189720057Y-185814342D02*
X190148628Y-186385771D01*
X190148628Y-185385771D02*
X189577200Y-185957200D01*
X190791485Y-186385771D02*
X190791485Y-185385771D01*
X190791485Y-184885771D02*
X190720057Y-184957200D01*
X190791485Y-185028628D01*
X190862914Y-184957200D01*
X190791485Y-184885771D01*
X190791485Y-185028628D01*
X192148628Y-186314342D02*
X192005771Y-186385771D01*
X191720057Y-186385771D01*
X191577200Y-186314342D01*
X191505771Y-186242914D01*
X191434342Y-186100057D01*
X191434342Y-185671485D01*
X191505771Y-185528628D01*
X191577200Y-185457200D01*
X191720057Y-185385771D01*
X192005771Y-185385771D01*
X192148628Y-185457200D01*
X193434342Y-186385771D02*
X193434342Y-185600057D01*
X193362914Y-185457200D01*
X193220057Y-185385771D01*
X192934342Y-185385771D01*
X192791485Y-185457200D01*
X193434342Y-186314342D02*
X193291485Y-186385771D01*
X192934342Y-186385771D01*
X192791485Y-186314342D01*
X192720057Y-186171485D01*
X192720057Y-186028628D01*
X192791485Y-185885771D01*
X192934342Y-185814342D01*
X193291485Y-185814342D01*
X193434342Y-185742914D01*
X194791485Y-186385771D02*
X194791485Y-184885771D01*
X194791485Y-186314342D02*
X194648628Y-186385771D01*
X194362914Y-186385771D01*
X194220057Y-186314342D01*
X194148628Y-186242914D01*
X194077200Y-186100057D01*
X194077200Y-185671485D01*
X194148628Y-185528628D01*
X194220057Y-185457200D01*
X194362914Y-185385771D01*
X194648628Y-185385771D01*
X194791485Y-185457200D01*
X195148628Y-186528628D02*
X196291485Y-186528628D01*
X196648628Y-185385771D02*
X196648628Y-186885771D01*
X196648628Y-185457200D02*
X196791485Y-185385771D01*
X197077200Y-185385771D01*
X197220057Y-185457200D01*
X197291485Y-185528628D01*
X197362914Y-185671485D01*
X197362914Y-186100057D01*
X197291485Y-186242914D01*
X197220057Y-186314342D01*
X197077200Y-186385771D01*
X196791485Y-186385771D01*
X196648628Y-186314342D01*
X198648628Y-186314342D02*
X198505771Y-186385771D01*
X198220057Y-186385771D01*
X198077200Y-186314342D01*
X198005771Y-186242914D01*
X197934342Y-186100057D01*
X197934342Y-185671485D01*
X198005771Y-185528628D01*
X198077200Y-185457200D01*
X198220057Y-185385771D01*
X198505771Y-185385771D01*
X198648628Y-185457200D01*
X199291485Y-186385771D02*
X199291485Y-184885771D01*
X199291485Y-185457200D02*
X199434342Y-185385771D01*
X199720057Y-185385771D01*
X199862914Y-185457200D01*
X199934342Y-185528628D01*
X200005771Y-185671485D01*
X200005771Y-186100057D01*
X199934342Y-186242914D01*
X199862914Y-186314342D01*
X199720057Y-186385771D01*
X199434342Y-186385771D01*
X199291485Y-186314342D01*
D10*
D11*
X177002200Y-181507200D02*
X285002200Y-181507200D01*
D10*
D11*
X178362914Y-183614342D02*
X178577200Y-183685771D01*
X178934342Y-183685771D01*
X179077200Y-183614342D01*
X179148628Y-183542914D01*
X179220057Y-183400057D01*
X179220057Y-183257200D01*
X179148628Y-183114342D01*
X179077200Y-183042914D01*
X178934342Y-182971485D01*
X178648628Y-182900057D01*
X178505771Y-182828628D01*
X178434342Y-182757200D01*
X178362914Y-182614342D01*
X178362914Y-182471485D01*
X178434342Y-182328628D01*
X178505771Y-182257200D01*
X178648628Y-182185771D01*
X179005771Y-182185771D01*
X179220057Y-182257200D01*
X179862914Y-183685771D02*
X179862914Y-182185771D01*
X180505771Y-183685771D02*
X180505771Y-182900057D01*
X180434342Y-182757200D01*
X180291485Y-182685771D01*
X180077200Y-182685771D01*
X179934342Y-182757200D01*
X179862914Y-182828628D01*
X181791485Y-183614342D02*
X181648628Y-183685771D01*
X181362914Y-183685771D01*
X181220057Y-183614342D01*
X181148628Y-183471485D01*
X181148628Y-182900057D01*
X181220057Y-182757200D01*
X181362914Y-182685771D01*
X181648628Y-182685771D01*
X181791485Y-182757200D01*
X181862914Y-182900057D01*
X181862914Y-183042914D01*
X181148628Y-183185771D01*
X183077200Y-183614342D02*
X182934342Y-183685771D01*
X182648628Y-183685771D01*
X182505771Y-183614342D01*
X182434342Y-183471485D01*
X182434342Y-182900057D01*
X182505771Y-182757200D01*
X182648628Y-182685771D01*
X182934342Y-182685771D01*
X183077200Y-182757200D01*
X183148628Y-182900057D01*
X183148628Y-183042914D01*
X182434342Y-183185771D01*
X183577200Y-182685771D02*
X184148628Y-182685771D01*
X183791485Y-182185771D02*
X183791485Y-183471485D01*
X183862914Y-183614342D01*
X184005771Y-183685771D01*
X184148628Y-183685771D01*
X184648628Y-183542914D02*
X184720057Y-183614342D01*
X184648628Y-183685771D01*
X184577200Y-183614342D01*
X184648628Y-183542914D01*
X184648628Y-183685771D01*
X184648628Y-182757200D02*
X184720057Y-182828628D01*
X184648628Y-182900057D01*
X184577200Y-182828628D01*
X184648628Y-182757200D01*
X184648628Y-182900057D01*
D10*
D11*
X197002200Y-191507200D02*
X197002200Y-194507200D01*
D10*
D11*
X261002200Y-191507200D02*
X261002200Y-198007200D01*
D14*
X185792857Y-118707142D02*
X185578571Y-118778571D01*
X185221428Y-118778571D01*
X185078571Y-118707142D01*
X185007142Y-118635714D01*
X184935714Y-118492857D01*
X184935714Y-118350000D01*
X185007142Y-118207142D01*
X185078571Y-118135714D01*
X185221428Y-118064285D01*
X185507142Y-117992857D01*
X185650000Y-117921428D01*
X185721428Y-117850000D01*
X185792857Y-117707142D01*
X185792857Y-117564285D01*
X185721428Y-117421428D01*
X185650000Y-117350000D01*
X185507142Y-117278571D01*
X185150000Y-117278571D01*
X184935714Y-117350000D01*
X184435714Y-117778571D02*
X184078571Y-118778571D01*
X183721428Y-117778571D02*
X184078571Y-118778571D01*
X184221428Y-119135714D01*
X184292857Y-119207142D01*
X184435714Y-119278571D01*
X183221428Y-118350000D02*
X182507142Y-118350000D01*
X183364285Y-118778571D02*
X182864285Y-117278571D01*
X182364285Y-118778571D01*
X188150000Y-121328571D02*
X188150000Y-119828571D01*
X187578571Y-119828571D01*
X187435714Y-119900000D01*
X187364285Y-119971428D01*
X187292857Y-120114285D01*
X187292857Y-120328571D01*
X187364285Y-120471428D01*
X187435714Y-120542857D01*
X187578571Y-120614285D01*
X188150000Y-120614285D01*
X185792857Y-121328571D02*
X186292857Y-120614285D01*
X186650000Y-121328571D02*
X186650000Y-119828571D01*
X186078571Y-119828571D01*
X185935714Y-119900000D01*
X185864285Y-119971428D01*
X185792857Y-120114285D01*
X185792857Y-120328571D01*
X185864285Y-120471428D01*
X185935714Y-120542857D01*
X186078571Y-120614285D01*
X186650000Y-120614285D01*
X184864285Y-119828571D02*
X184578571Y-119828571D01*
X184435714Y-119900000D01*
X184292857Y-120042857D01*
X184221428Y-120328571D01*
X184221428Y-120828571D01*
X184292857Y-121114285D01*
X184435714Y-121257142D01*
X184578571Y-121328571D01*
X184864285Y-121328571D01*
X185007142Y-121257142D01*
X185150000Y-121114285D01*
X185221428Y-120828571D01*
X185221428Y-120328571D01*
X185150000Y-120042857D01*
X185007142Y-119900000D01*
X184864285Y-119828571D01*
X183792857Y-119828571D02*
X182935714Y-119828571D01*
X183364285Y-121328571D02*
X183364285Y-119828571D01*
X182150000Y-119828571D02*
X181864285Y-119828571D01*
X181721428Y-119900000D01*
X181578571Y-120042857D01*
X181507142Y-120328571D01*
X181507142Y-120828571D01*
X181578571Y-121114285D01*
X181721428Y-121257142D01*
X181864285Y-121328571D01*
X182150000Y-121328571D01*
X182292857Y-121257142D01*
X182435714Y-121114285D01*
X182507142Y-120828571D01*
X182507142Y-120328571D01*
X182435714Y-120042857D01*
X182292857Y-119900000D01*
X182150000Y-119828571D01*
X180935714Y-121257142D02*
X180721428Y-121328571D01*
X180364285Y-121328571D01*
X180221428Y-121257142D01*
X180150000Y-121185714D01*
X180078571Y-121042857D01*
X180078571Y-120900000D01*
X180150000Y-120757142D01*
X180221428Y-120685714D01*
X180364285Y-120614285D01*
X180650000Y-120542857D01*
X180792857Y-120471428D01*
X180864285Y-120400000D01*
X180935714Y-120257142D01*
X180935714Y-120114285D01*
X180864285Y-119971428D01*
X180792857Y-119900000D01*
X180650000Y-119828571D01*
X180292857Y-119828571D01*
X180078571Y-119900000D01*
X188828571Y-123807142D02*
X188614285Y-123878571D01*
X188257142Y-123878571D01*
X188114285Y-123807142D01*
X188042857Y-123735714D01*
X187971428Y-123592857D01*
X187971428Y-123450000D01*
X188042857Y-123307142D01*
X188114285Y-123235714D01*
X188257142Y-123164285D01*
X188542857Y-123092857D01*
X188685714Y-123021428D01*
X188757142Y-122950000D01*
X188828571Y-122807142D01*
X188828571Y-122664285D01*
X188757142Y-122521428D01*
X188685714Y-122450000D01*
X188542857Y-122378571D01*
X188185714Y-122378571D01*
X187971428Y-122450000D01*
X187328571Y-123735714D02*
X187257142Y-123807142D01*
X187328571Y-123878571D01*
X187400000Y-123807142D01*
X187328571Y-123735714D01*
X187328571Y-123878571D01*
X185757142Y-123735714D02*
X185828571Y-123807142D01*
X186042857Y-123878571D01*
X186185714Y-123878571D01*
X186400000Y-123807142D01*
X186542857Y-123664285D01*
X186614285Y-123521428D01*
X186685714Y-123235714D01*
X186685714Y-123021428D01*
X186614285Y-122735714D01*
X186542857Y-122592857D01*
X186400000Y-122450000D01*
X186185714Y-122378571D01*
X186042857Y-122378571D01*
X185828571Y-122450000D01*
X185757142Y-122521428D01*
X185114285Y-123735714D02*
X185042857Y-123807142D01*
X185114285Y-123878571D01*
X185185714Y-123807142D01*
X185114285Y-123735714D01*
X185114285Y-123878571D01*
X182400000Y-123735714D02*
X182471428Y-123807142D01*
X182685714Y-123878571D01*
X182828571Y-123878571D01*
X183042857Y-123807142D01*
X183185714Y-123664285D01*
X183257142Y-123521428D01*
X183328571Y-123235714D01*
X183328571Y-123021428D01*
X183257142Y-122735714D01*
X183185714Y-122592857D01*
X183042857Y-122450000D01*
X182828571Y-122378571D01*
X182685714Y-122378571D01*
X182471428Y-122450000D01*
X182400000Y-122521428D01*
X181757142Y-123735714D02*
X181685714Y-123807142D01*
X181757142Y-123878571D01*
X181828571Y-123807142D01*
X181757142Y-123735714D01*
X181757142Y-123878571D01*
X180185714Y-123735714D02*
X180257142Y-123807142D01*
X180471428Y-123878571D01*
X180614285Y-123878571D01*
X180828571Y-123807142D01*
X180971428Y-123664285D01*
X181042857Y-123521428D01*
X181114285Y-123235714D01*
X181114285Y-123021428D01*
X181042857Y-122735714D01*
X180971428Y-122592857D01*
X180828571Y-122450000D01*
X180614285Y-122378571D01*
X180471428Y-122378571D01*
X180257142Y-122450000D01*
X180185714Y-122521428D01*
X179542857Y-123735714D02*
X179471428Y-123807142D01*
X179542857Y-123878571D01*
X179614285Y-123807142D01*
X179542857Y-123735714D01*
X179542857Y-123878571D01*
D15*
%TO.P,A1,1*%
%TO.N,Net-(A1-Pad1)*%
X144780000Y-111760000D03*
D16*
%TO.P,A1,17*%
%TO.N,N/C*%
X111760000Y-127000000D03*
%TO.P,A1,2*%
%TO.N,Net-(A1-Pad2)*%
X142240000Y-111760000D03*
%TO.P,A1,18*%
%TO.N,N/C*%
X114300000Y-127000000D03*
%TO.P,A1,3*%
X139700000Y-111760000D03*
%TO.P,A1,19*%
%TO.N,Net-(A1-Pad19)*%
X116840000Y-127000000D03*
%TO.P,A1,4*%
%TO.N,GND*%
X137160000Y-111760000D03*
%TO.P,A1,20*%
%TO.N,N/C*%
X119380000Y-127000000D03*
%TO.P,A1,5*%
X134620000Y-111760000D03*
%TO.P,A1,21*%
X121920000Y-127000000D03*
%TO.P,A1,6*%
X132080000Y-111760000D03*
%TO.P,A1,22*%
X124460000Y-127000000D03*
%TO.P,A1,7*%
X129540000Y-111760000D03*
%TO.P,A1,23*%
X127000000Y-127000000D03*
%TO.P,A1,8*%
X127000000Y-111760000D03*
%TO.P,A1,24*%
X129540000Y-127000000D03*
%TO.P,A1,9*%
X124460000Y-111760000D03*
%TO.P,A1,25*%
X132080000Y-127000000D03*
%TO.P,A1,10*%
X121920000Y-111760000D03*
%TO.P,A1,26*%
X134620000Y-127000000D03*
%TO.P,A1,11*%
X119380000Y-111760000D03*
%TO.P,A1,27*%
%TO.N,Net-(A1-Pad27)*%
X137160000Y-127000000D03*
%TO.P,A1,12*%
%TO.N,Net-(A1-Pad12)*%
X116840000Y-111760000D03*
%TO.P,A1,28*%
%TO.N,N/C*%
X139700000Y-127000000D03*
%TO.P,A1,13*%
%TO.N,Net-(A1-Pad13)*%
X114300000Y-111760000D03*
%TO.P,A1,29*%
%TO.N,N/C*%
X142240000Y-127000000D03*
%TO.P,A1,14*%
X111760000Y-111760000D03*
%TO.P,A1,30*%
%TO.N,Net-(A1-Pad30)*%
X144780000Y-127000000D03*
%TO.P,A1,15*%
%TO.N,N/C*%
X109220000Y-111760000D03*
%TO.P,A1,16*%
X109220000Y-127000000D03*
%TD*%
D17*
%TO.P,C1,1*%
%TO.N,GND*%
X158750000Y-118110000D03*
D18*
%TO.P,C1,2*%
%TO.N,Net-(C1-Pad2)*%
X158750000Y-120650000D03*
%TD*%
D19*
%TO.P,D1,1*%
%TO.N,Net-(A1-Pad19)*%
X172720000Y-83820000D03*
D20*
%TO.P,D1,2*%
%TO.N,GND*%
X172720000Y-73660000D03*
%TD*%
D18*
%TO.P,D2,2*%
%TO.N,Net-(D2-Pad2)*%
X102870000Y-100330000D03*
D17*
%TO.P,D2,1*%
%TO.N,GND*%
X105410000Y-100330000D03*
%TD*%
D21*
%TO.P,J1,1*%
%TO.N,Net-(J1-Pad1)*%
X107950000Y-64770000D03*
%TO.P,J1,2*%
%TO.N,GND*%
%TA.AperFunction,ComponentPad*%
G36*
G01*
X106950000Y-57270000D02*
X108950000Y-57270000D01*
G75*
G02*
X109700000Y-58020000I0J-750000D01*
G01*
X109700000Y-59520000D01*
G75*
G02*
X108950000Y-60270000I-750000J0D01*
G01*
X106950000Y-60270000D01*
G75*
G02*
X106200000Y-59520000I0J750000D01*
G01*
X106200000Y-58020000D01*
G75*
G02*
X106950000Y-57270000I750000J0D01*
G01*
G37*
%TD.AperFunction*%
%TO.P,J1,3*%
%TO.N,N/C*%
%TA.AperFunction,ComponentPad*%
G36*
G01*
X102375000Y-60020000D02*
X104125000Y-60020000D01*
G75*
G02*
X105000000Y-60895000I0J-875000D01*
G01*
X105000000Y-62645000D01*
G75*
G02*
X104125000Y-63520000I-875000J0D01*
G01*
X102375000Y-63520000D01*
G75*
G02*
X101500000Y-62645000I0J875000D01*
G01*
X101500000Y-60895000D01*
G75*
G02*
X102375000Y-60020000I875000J0D01*
G01*
G37*
%TD.AperFunction*%
%TD*%
D17*
%TO.P,J2,1*%
%TO.N,N/C*%
X107950000Y-76200000D03*
D18*
%TO.P,J2,2*%
%TO.N,Net-(J1-Pad1)*%
X107950000Y-78740000D03*
%TO.P,J2,3*%
%TO.N,Net-(A1-Pad30)*%
X107950000Y-81280000D03*
%TD*%
%TO.P,J3,2*%
%TO.N,Net-(J3-Pad2)*%
X123190000Y-62230000D03*
D17*
%TO.P,J3,1*%
%TO.N,GND*%
X123190000Y-59690000D03*
%TD*%
%TO.P,J4,1*%
%TO.N,GND*%
X127000000Y-59690000D03*
D18*
%TO.P,J4,2*%
%TO.N,Net-(J4-Pad2)*%
X127000000Y-62230000D03*
%TD*%
D17*
%TO.P,J5,1*%
%TO.N,GND*%
X130810000Y-59690000D03*
D18*
%TO.P,J5,2*%
%TO.N,Net-(J5-Pad2)*%
X130810000Y-62230000D03*
%TD*%
%TO.P,J6,2*%
%TO.N,Net-(J6-Pad2)*%
X134620000Y-62230000D03*
D17*
%TO.P,J6,1*%
%TO.N,GND*%
X134620000Y-59690000D03*
%TD*%
%TO.P,J7,1*%
%TO.N,Net-(A1-Pad27)*%
X137160000Y-99060000D03*
D18*
%TO.P,J7,2*%
%TO.N,GND*%
X139700000Y-99060000D03*
%TO.P,J7,3*%
%TO.N,Net-(A1-Pad2)*%
X142240000Y-99060000D03*
%TO.P,J7,4*%
%TO.N,Net-(A1-Pad1)*%
X144780000Y-99060000D03*
%TD*%
D22*
%TO.P,R1,1*%
%TO.N,GND*%
X166370000Y-114300000D03*
D16*
%TO.P,R1,2*%
%TO.N,Net-(C1-Pad2)*%
X166370000Y-124460000D03*
%TD*%
D22*
%TO.P,R2,1*%
%TO.N,Net-(A1-Pad27)*%
X180340000Y-83820000D03*
D16*
%TO.P,R2,2*%
%TO.N,Net-(C1-Pad2)*%
X180340000Y-73660000D03*
%TD*%
%TO.P,R3,2*%
%TO.N,Net-(A1-Pad19)*%
X177800000Y-96520000D03*
D22*
%TO.P,R3,1*%
%TO.N,Net-(R3-Pad1)*%
X177800000Y-106680000D03*
%TD*%
D16*
%TO.P,R4,2*%
%TO.N,Net-(A1-Pad30)*%
X113030000Y-92710000D03*
D22*
%TO.P,R4,1*%
%TO.N,Net-(D2-Pad2)*%
X102870000Y-92710000D03*
%TD*%
D18*
%TO.P,RV1,3*%
%TO.N,Net-(R3-Pad1)*%
X187960000Y-104140000D03*
%TO.P,RV1,2*%
%TO.N,Net-(A1-Pad27)*%
X187960000Y-101600000D03*
D17*
%TO.P,RV1,1*%
%TO.N,N/C*%
X187960000Y-99060000D03*
%TD*%
D23*
%TO.P,U1,16*%
%TO.N,N/C*%
X161290000Y-73660000D03*
%TO.P,U1,24*%
%TO.N,Net-(A1-Pad27)*%
X135890000Y-88900000D03*
%TO.P,U1,17*%
%TO.N,N/C*%
X158750000Y-73660000D03*
%TO.P,U1,12*%
%TO.N,GND*%
X133350000Y-88900000D03*
%TO.P,U1,18*%
%TO.N,N/C*%
X156210000Y-73660000D03*
%TO.P,U1,15*%
%TO.N,GND*%
X138430000Y-88900000D03*
%TO.P,U1,19*%
%TO.N,N/C*%
X153670000Y-73660000D03*
%TO.P,U1,13*%
X148590000Y-88900000D03*
%TO.P,U1,20*%
X151130000Y-73660000D03*
%TO.P,U1,14*%
X146050000Y-88900000D03*
%TO.P,U1,21*%
X148590000Y-73660000D03*
%TO.P,U1,11*%
%TO.N,Net-(A1-Pad13)*%
X143510000Y-88900000D03*
%TO.P,U1,22*%
%TO.N,N/C*%
X146050000Y-73660000D03*
%TO.P,U1,10*%
%TO.N,Net-(A1-Pad12)*%
X140970000Y-88900000D03*
%TO.P,U1,23*%
%TO.N,N/C*%
X143510000Y-73660000D03*
D24*
%TO.P,U1,1*%
%TO.N,Net-(R3-Pad1)*%
X151130000Y-88900000D03*
D23*
%TO.P,U1,2*%
%TO.N,N/C*%
X140970000Y-73660000D03*
%TO.P,U1,9*%
%TO.N,Net-(J3-Pad2)*%
X123190000Y-73660000D03*
%TO.P,U1,3*%
%TO.N,N/C*%
X138430000Y-73660000D03*
%TO.P,U1,8*%
%TO.N,Net-(J4-Pad2)*%
X125730000Y-73660000D03*
%TO.P,U1,4*%
%TO.N,N/C*%
X135890000Y-73660000D03*
%TO.P,U1,7*%
%TO.N,Net-(J5-Pad2)*%
X128270000Y-73660000D03*
%TO.P,U1,5*%
%TO.N,N/C*%
X133350000Y-73660000D03*
%TO.P,U1,6*%
%TO.N,Net-(J6-Pad2)*%
X130810000Y-73660000D03*
%TD*%
D24*
%TO.P,U2,1*%
%TO.N,Net-(A1-Pad19)*%
X166370000Y-97790000D03*
D23*
%TO.P,U2,5*%
%TO.N,N/C*%
X158750000Y-105410000D03*
%TO.P,U2,2*%
%TO.N,Net-(R3-Pad1)*%
X163830000Y-97790000D03*
%TO.P,U2,6*%
%TO.N,N/C*%
X161290000Y-105410000D03*
%TO.P,U2,3*%
%TO.N,Net-(C1-Pad2)*%
X161290000Y-97790000D03*
%TO.P,U2,7*%
%TO.N,N/C*%
X163830000Y-105410000D03*
%TO.P,U2,4*%
%TO.N,GND*%
X158750000Y-97790000D03*
%TO.P,U2,8*%
%TO.N,Net-(A1-Pad30)*%
X166370000Y-105410000D03*
%TD*%
D25*
%TO.N,Net-(A1-Pad1)*%
X144780000Y-99060000D02*
X144780000Y-111760000D01*
%TO.N,Net-(A1-Pad2)*%
X142240000Y-99060000D02*
X142240000Y-111760000D01*
%TO.N,Net-(A1-Pad19)*%
X166370000Y-97790000D02*
X171450000Y-97790000D01*
X171450000Y-97790000D02*
X172720000Y-97790000D01*
X172720000Y-128270000D02*
X172720000Y-126157070D01*
X172720000Y-126157070D02*
X172720000Y-97790000D01*
X176530000Y-97790000D02*
X177800000Y-96520000D01*
X172720000Y-97790000D02*
X176530000Y-97790000D01*
X172720000Y-83820000D02*
X172720000Y-97790000D01*
X171450000Y-129540000D02*
X172720000Y-128270000D01*
X118110000Y-129540000D02*
X171450000Y-129540000D01*
X116840000Y-127000000D02*
X116840000Y-128270000D01*
X116840000Y-128270000D02*
X118110000Y-129540000D01*
%TO.N,GND*%
X123190000Y-59690000D02*
X127000000Y-59690000D01*
X127000000Y-59690000D02*
X130810000Y-59690000D01*
X130810000Y-59690000D02*
X134620000Y-59690000D01*
X139700000Y-99060000D02*
X139700000Y-106680000D01*
X139700000Y-106680000D02*
X137160000Y-109220000D01*
D26*
X105450010Y-62769990D02*
X105450010Y-64729990D01*
X107950000Y-60270000D02*
X105450010Y-62769990D01*
X107950000Y-58770000D02*
X107950000Y-60270000D01*
X132050000Y-88900000D02*
X133350000Y-88900000D01*
X113049999Y-107900001D02*
X132050000Y-88900000D01*
X113049999Y-112360001D02*
X113049999Y-107900001D01*
X113030000Y-112380000D02*
X113049999Y-112360001D01*
X113030000Y-113030000D02*
X113030000Y-112380000D01*
X118110000Y-113030000D02*
X113030000Y-113030000D01*
X118129999Y-110470001D02*
X118129999Y-113010001D01*
X118129999Y-113010001D02*
X118110000Y-113030000D01*
X119380000Y-109220000D02*
X118129999Y-110470001D01*
X157450000Y-97790000D02*
X158750000Y-97790000D01*
X166370000Y-114300000D02*
X166370000Y-120650000D01*
X154940000Y-123190000D02*
X154940000Y-120650000D01*
X162560000Y-124460000D02*
X160014403Y-124460000D01*
X160014403Y-124460000D02*
X158744403Y-123190000D01*
X158744403Y-123190000D02*
X154940000Y-123190000D01*
X154940000Y-120650000D02*
X152400000Y-118110000D01*
X152400000Y-118110000D02*
X152400000Y-102840000D01*
X158750000Y-118110000D02*
X160020000Y-118110000D01*
X163830000Y-114300000D02*
X166370000Y-114300000D01*
X160020000Y-118110000D02*
X163830000Y-114300000D01*
X149860000Y-95250000D02*
X154925000Y-100315000D01*
X149860000Y-86360000D02*
X149860000Y-95250000D01*
X147320000Y-83820000D02*
X149860000Y-86360000D01*
X142240000Y-83820000D02*
X147320000Y-83820000D01*
X140970000Y-85090000D02*
X142240000Y-83820000D01*
X138430000Y-85090000D02*
X140970000Y-85090000D01*
X138430000Y-88900000D02*
X138430000Y-85090000D01*
X154925000Y-100315000D02*
X157450000Y-97790000D01*
X152400000Y-102840000D02*
X154925000Y-100315000D01*
X119380000Y-109220000D02*
X137160000Y-109220000D01*
X105410000Y-100330000D02*
X105410000Y-97790000D01*
X134620000Y-59690000D02*
X138430000Y-59690000D01*
X172720000Y-73660000D02*
X170180000Y-73660000D01*
X166370000Y-120650000D02*
X168275000Y-122555000D01*
X168275000Y-122555000D02*
X168275000Y-125730000D01*
X164465000Y-126365000D02*
X167640000Y-126365000D01*
X168275000Y-125730000D02*
X167640000Y-126365000D01*
X164465000Y-126365000D02*
X163830000Y-125730000D01*
X163830000Y-125730000D02*
X162560000Y-124460000D01*
D25*
%TO.N,Net-(A1-Pad27)*%
X135890000Y-87630000D02*
X135890000Y-88900000D01*
X137160000Y-99060000D02*
X137160000Y-97790000D01*
X137160000Y-97790000D02*
X138430000Y-96520000D01*
X138430000Y-96520000D02*
X146050000Y-96520000D01*
X146050000Y-96520000D02*
X147320000Y-97790000D01*
X134620000Y-86360000D02*
X135890000Y-87630000D01*
X147320000Y-97790000D02*
X147320000Y-113030000D01*
X147320000Y-113030000D02*
X146050000Y-114300000D01*
X146050000Y-114300000D02*
X107950000Y-114300000D01*
X107950000Y-114300000D02*
X106680000Y-113030000D01*
X106680000Y-113030000D02*
X106680000Y-106680000D01*
X106680000Y-106680000D02*
X109220000Y-106680000D01*
X129540000Y-86360000D02*
X134620000Y-86360000D01*
X118110000Y-97790000D02*
X129540000Y-86360000D01*
X115570000Y-100330000D02*
X118110000Y-97790000D01*
X109220000Y-106680000D02*
X115570000Y-100330000D01*
X115570000Y-72390000D02*
X129540000Y-86360000D01*
X190500000Y-77470000D02*
X190500000Y-76200000D01*
X190500000Y-85090000D02*
X190500000Y-77470000D01*
X187960000Y-101600000D02*
X189230000Y-101600000D01*
X189230000Y-101600000D02*
X190500000Y-100330000D01*
X190500000Y-100330000D02*
X190500000Y-85090000D01*
X189230000Y-83820000D02*
X190500000Y-85090000D01*
X180340000Y-83820000D02*
X189230000Y-83820000D01*
X166370000Y-67310000D02*
X187960000Y-67310000D01*
X154940000Y-55880000D02*
X166370000Y-67310000D01*
X100330000Y-59690000D02*
X104140000Y-55880000D01*
X187960000Y-67310000D02*
X190500000Y-69850000D01*
X100330000Y-119380000D02*
X100330000Y-59690000D01*
X105410000Y-124460000D02*
X100330000Y-119380000D01*
X135890000Y-124460000D02*
X105410000Y-124460000D01*
X190500000Y-69850000D02*
X190500000Y-77470000D01*
X137160000Y-125730000D02*
X135890000Y-124460000D01*
X137160000Y-127000000D02*
X137160000Y-125730000D01*
X115570000Y-72390000D02*
X115570000Y-55880000D01*
X115570000Y-55880000D02*
X154940000Y-55880000D01*
X104140000Y-55880000D02*
X115570000Y-55880000D01*
D26*
%TO.N,Net-(A1-Pad12)*%
X147320000Y-86360000D02*
X144780000Y-86360000D01*
X146050000Y-93980000D02*
X147320000Y-92710000D01*
X147320000Y-92710000D02*
X147320000Y-86360000D01*
X132080000Y-93980000D02*
X146050000Y-93980000D01*
X144780000Y-86360000D02*
X145677781Y-86360000D01*
X142240000Y-86360000D02*
X144780000Y-86360000D01*
X142240000Y-86360000D02*
X140970000Y-87630000D01*
X140970000Y-87630000D02*
X140970000Y-88900000D01*
X132080000Y-93980000D02*
X116840000Y-109220000D01*
X116840000Y-109220000D02*
X116840000Y-111760000D01*
D25*
%TO.N,Net-(A1-Pad13)*%
X143510000Y-91440000D02*
X143510000Y-88900000D01*
X132080000Y-91440000D02*
X143510000Y-91440000D01*
X114300000Y-109220000D02*
X132080000Y-91440000D01*
X114300000Y-111760000D02*
X114300000Y-109220000D01*
%TO.N,Net-(A1-Pad30)*%
X107950000Y-87630000D02*
X113030000Y-92710000D01*
X107950000Y-81280000D02*
X107950000Y-87630000D01*
X144780000Y-125730000D02*
X144780000Y-127000000D01*
X106680000Y-121920000D02*
X140970000Y-121920000D01*
X102870000Y-118110000D02*
X106680000Y-121920000D01*
X140970000Y-121920000D02*
X144780000Y-125730000D01*
X102870000Y-104140000D02*
X102870000Y-118110000D01*
X107950000Y-104140000D02*
X102870000Y-104140000D01*
X113030000Y-99060000D02*
X107950000Y-104140000D01*
X113030000Y-92710000D02*
X113030000Y-99060000D01*
X170180000Y-109220000D02*
X166370000Y-105410000D01*
X144780000Y-127000000D02*
X145415000Y-127635000D01*
X145415000Y-127635000D02*
X169545000Y-127635000D01*
X170180000Y-127000000D02*
X170180000Y-109220000D01*
X169545000Y-127635000D02*
X170180000Y-127000000D01*
%TO.N,Net-(C1-Pad2)*%
X162560000Y-120650000D02*
X166370000Y-124460000D01*
X158750000Y-120650000D02*
X162560000Y-120650000D01*
X157547919Y-120650000D02*
X156210000Y-119312081D01*
X158750000Y-120650000D02*
X157547919Y-120650000D01*
X156210000Y-119312081D02*
X156210000Y-104140000D01*
X161290000Y-99060000D02*
X161290000Y-97790000D01*
X156210000Y-104140000D02*
X161290000Y-99060000D01*
X180340000Y-73660000D02*
X177730010Y-76269990D01*
X161290000Y-85090000D02*
X161290000Y-97790000D01*
X170110010Y-76269990D02*
X161290000Y-85090000D01*
X177730010Y-76269990D02*
X170110010Y-76269990D01*
%TO.N,Net-(D2-Pad2)*%
X102870000Y-92710000D02*
X102870000Y-100330000D01*
%TO.N,Net-(J1-Pad1)*%
X107950000Y-78740000D02*
X106680000Y-78740000D01*
X106680000Y-78740000D02*
X105410000Y-77470000D01*
X105410000Y-67310000D02*
X107950000Y-64770000D01*
X105410000Y-77470000D02*
X105410000Y-67310000D01*
%TO.N,Net-(J3-Pad2)*%
X123190000Y-62230000D02*
X123190000Y-73660000D01*
%TO.N,Net-(J4-Pad2)*%
X127000000Y-62230000D02*
X127000000Y-69850000D01*
X125730000Y-71120000D02*
X125730000Y-73660000D01*
X127000000Y-69850000D02*
X125730000Y-71120000D01*
%TO.N,Net-(J5-Pad2)*%
X130810000Y-62230000D02*
X130810000Y-69850000D01*
X130810000Y-69850000D02*
X129540000Y-69850000D01*
X128270000Y-71120000D02*
X128270000Y-73660000D01*
X129540000Y-69850000D02*
X128270000Y-71120000D01*
%TO.N,Net-(J6-Pad2)*%
X130810000Y-73660000D02*
X130810000Y-72390000D01*
X130810000Y-72390000D02*
X133350000Y-69850000D01*
X133350000Y-69850000D02*
X134620000Y-69850000D01*
X134620000Y-69850000D02*
X134620000Y-62230000D01*
%TO.N,Net-(R3-Pad1)*%
X182880000Y-106680000D02*
X185420000Y-106680000D01*
X177800000Y-106680000D02*
X182880000Y-106680000D01*
X185420000Y-106680000D02*
X187960000Y-104140000D01*
X184150000Y-78740000D02*
X176530000Y-78740000D01*
X184150000Y-73660000D02*
X184150000Y-78740000D01*
X163830000Y-85090000D02*
X163830000Y-97790000D01*
X182880000Y-95250000D02*
X182880000Y-106680000D01*
X176530000Y-88900000D02*
X182880000Y-95250000D01*
X176530000Y-88900000D02*
X176530000Y-78740000D01*
X176530000Y-78740000D02*
X170180000Y-78740000D01*
X170180000Y-78740000D02*
X163830000Y-85090000D01*
X151130000Y-88900000D02*
X151130000Y-81280000D01*
X151130000Y-81280000D02*
X160020000Y-81280000D01*
X160020000Y-81280000D02*
X170180000Y-71120000D01*
X181610000Y-71120000D02*
X184150000Y-73660000D01*
X170180000Y-71120000D02*
X181610000Y-71120000D01*
%TD*%
D27*
%TO.N,GND*%
X105610498Y-57025820D02*
X105574188Y-57145518D01*
X105561928Y-57270000D01*
X105565000Y-58484250D01*
X105723750Y-58643000D01*
X107823000Y-58643000D01*
X107823000Y-58623000D01*
X108077000Y-58623000D01*
X108077000Y-58643000D01*
X110176250Y-58643000D01*
X110335000Y-58484250D01*
X110338072Y-57270000D01*
X110325812Y-57145518D01*
X110289502Y-57025820D01*
X110283718Y-57015000D01*
X114435001Y-57015000D01*
X114435000Y-72334248D01*
X114429509Y-72390000D01*
X114435000Y-72445751D01*
X114451423Y-72612498D01*
X114516324Y-72826446D01*
X114621716Y-73023623D01*
X114763551Y-73196449D01*
X114806865Y-73231996D01*
X127934868Y-86360000D01*
X117346862Y-96948007D01*
X117346856Y-96948012D01*
X114806861Y-99488008D01*
X114806856Y-99488012D01*
X108749869Y-105545000D01*
X106735752Y-105545000D01*
X106680000Y-105539509D01*
X106624249Y-105545000D01*
X106624248Y-105545000D01*
X106457501Y-105561423D01*
X106243553Y-105626324D01*
X106046377Y-105731716D01*
X105873551Y-105873551D01*
X105731716Y-106046377D01*
X105626324Y-106243553D01*
X105561423Y-106457501D01*
X105539509Y-106680000D01*
X105545001Y-106735762D01*
X105545000Y-112974248D01*
X105539509Y-113030000D01*
X105545000Y-113085751D01*
X105561423Y-113252498D01*
X105626324Y-113466446D01*
X105731716Y-113663623D01*
X105873551Y-113836449D01*
X105916865Y-113871996D01*
X107108008Y-115063140D01*
X107143551Y-115106449D01*
X107316377Y-115248284D01*
X107513553Y-115353676D01*
X107677705Y-115403471D01*
X107727500Y-115418577D01*
X107748493Y-115420644D01*
X107894248Y-115435000D01*
X107894255Y-115435000D01*
X107949999Y-115440490D01*
X108005743Y-115435000D01*
X145994249Y-115435000D01*
X146050000Y-115440491D01*
X146105751Y-115435000D01*
X146105752Y-115435000D01*
X146272499Y-115418577D01*
X146486447Y-115353676D01*
X146683623Y-115248284D01*
X146856449Y-115106449D01*
X146891996Y-115063135D01*
X148083140Y-113871992D01*
X148126449Y-113836449D01*
X148268284Y-113663623D01*
X148373676Y-113466447D01*
X148438577Y-113252499D01*
X148455000Y-113085752D01*
X148455000Y-113085745D01*
X148460490Y-113030001D01*
X148455000Y-112974257D01*
X148455000Y-97917000D01*
X157315000Y-97917000D01*
X157315000Y-98317000D01*
X157367350Y-98594514D01*
X157472834Y-98856483D01*
X157627399Y-99092839D01*
X157825105Y-99294500D01*
X158058354Y-99453715D01*
X158318182Y-99564367D01*
X158400961Y-99581904D01*
X158623000Y-99459915D01*
X158623000Y-97917000D01*
X157315000Y-97917000D01*
X148455000Y-97917000D01*
X148455000Y-97845743D01*
X148460490Y-97789999D01*
X148455000Y-97734255D01*
X148455000Y-97734248D01*
X148438577Y-97567501D01*
X148373676Y-97353553D01*
X148325275Y-97263000D01*
X157315000Y-97263000D01*
X157315000Y-97663000D01*
X158623000Y-97663000D01*
X158623000Y-96120085D01*
X158400961Y-95998096D01*
X158318182Y-96015633D01*
X158058354Y-96126285D01*
X157825105Y-96285500D01*
X157627399Y-96487161D01*
X157472834Y-96723517D01*
X157367350Y-96985486D01*
X157315000Y-97263000D01*
X148325275Y-97263000D01*
X148268284Y-97156377D01*
X148126449Y-96983551D01*
X148083140Y-96948008D01*
X146891996Y-95756865D01*
X146856449Y-95713551D01*
X146683623Y-95571716D01*
X146486447Y-95466324D01*
X146272499Y-95401423D01*
X146105752Y-95385000D01*
X146105751Y-95385000D01*
X146050000Y-95379509D01*
X145994249Y-95385000D01*
X138485743Y-95385000D01*
X138429999Y-95379510D01*
X138374255Y-95385000D01*
X138374248Y-95385000D01*
X138228493Y-95399356D01*
X138207500Y-95401423D01*
X138157705Y-95416529D01*
X137993553Y-95466324D01*
X137796377Y-95571716D01*
X137623551Y-95713551D01*
X137588008Y-95756860D01*
X136396860Y-96948009D01*
X136353552Y-96983551D01*
X136211717Y-97156377D01*
X136106324Y-97353553D01*
X136041423Y-97567501D01*
X136036398Y-97618524D01*
X136034558Y-97637208D01*
X135955506Y-97679463D01*
X135858815Y-97758815D01*
X135779463Y-97855506D01*
X135720498Y-97965820D01*
X135684188Y-98085518D01*
X135671928Y-98210000D01*
X135671928Y-99910000D01*
X135684188Y-100034482D01*
X135720498Y-100154180D01*
X135779463Y-100264494D01*
X135858815Y-100361185D01*
X135955506Y-100440537D01*
X136065820Y-100499502D01*
X136185518Y-100535812D01*
X136310000Y-100548072D01*
X138010000Y-100548072D01*
X138134482Y-100535812D01*
X138254180Y-100499502D01*
X138364494Y-100440537D01*
X138461185Y-100361185D01*
X138540537Y-100264494D01*
X138599502Y-100154180D01*
X138623966Y-100073534D01*
X138699731Y-100157588D01*
X138933080Y-100331641D01*
X139195901Y-100456825D01*
X139343110Y-100501476D01*
X139573000Y-100380155D01*
X139573000Y-99187000D01*
X139553000Y-99187000D01*
X139553000Y-98933000D01*
X139573000Y-98933000D01*
X139573000Y-98913000D01*
X139827000Y-98913000D01*
X139827000Y-98933000D01*
X139847000Y-98933000D01*
X139847000Y-99187000D01*
X139827000Y-99187000D01*
X139827000Y-100380155D01*
X140056890Y-100501476D01*
X140204099Y-100456825D01*
X140466920Y-100331641D01*
X140700269Y-100157588D01*
X140895178Y-99941355D01*
X140964805Y-99824466D01*
X141086525Y-100006632D01*
X141105000Y-100025107D01*
X141105001Y-110875715D01*
X140970000Y-111077759D01*
X140814637Y-110845241D01*
X140614759Y-110645363D01*
X140379727Y-110488320D01*
X140118574Y-110380147D01*
X139841335Y-110325000D01*
X139558665Y-110325000D01*
X139281426Y-110380147D01*
X139020273Y-110488320D01*
X138785241Y-110645363D01*
X138585363Y-110845241D01*
X138428320Y-111080273D01*
X138423933Y-111090865D01*
X138312385Y-110904869D01*
X138123414Y-110696481D01*
X137897420Y-110528963D01*
X137643087Y-110408754D01*
X137509039Y-110368096D01*
X137287000Y-110490085D01*
X137287000Y-111633000D01*
X137307000Y-111633000D01*
X137307000Y-111887000D01*
X137287000Y-111887000D01*
X137287000Y-111907000D01*
X137033000Y-111907000D01*
X137033000Y-111887000D01*
X137013000Y-111887000D01*
X137013000Y-111633000D01*
X137033000Y-111633000D01*
X137033000Y-110490085D01*
X136810961Y-110368096D01*
X136676913Y-110408754D01*
X136422580Y-110528963D01*
X136196586Y-110696481D01*
X136007615Y-110904869D01*
X135896067Y-111090865D01*
X135891680Y-111080273D01*
X135734637Y-110845241D01*
X135534759Y-110645363D01*
X135299727Y-110488320D01*
X135038574Y-110380147D01*
X134761335Y-110325000D01*
X134478665Y-110325000D01*
X134201426Y-110380147D01*
X133940273Y-110488320D01*
X133705241Y-110645363D01*
X133505363Y-110845241D01*
X133350000Y-111077759D01*
X133194637Y-110845241D01*
X132994759Y-110645363D01*
X132759727Y-110488320D01*
X132498574Y-110380147D01*
X132221335Y-110325000D01*
X131938665Y-110325000D01*
X131661426Y-110380147D01*
X131400273Y-110488320D01*
X131165241Y-110645363D01*
X130965363Y-110845241D01*
X130810000Y-111077759D01*
X130654637Y-110845241D01*
X130454759Y-110645363D01*
X130219727Y-110488320D01*
X129958574Y-110380147D01*
X129681335Y-110325000D01*
X129398665Y-110325000D01*
X129121426Y-110380147D01*
X128860273Y-110488320D01*
X128625241Y-110645363D01*
X128425363Y-110845241D01*
X128270000Y-111077759D01*
X128114637Y-110845241D01*
X127914759Y-110645363D01*
X127679727Y-110488320D01*
X127418574Y-110380147D01*
X127141335Y-110325000D01*
X126858665Y-110325000D01*
X126581426Y-110380147D01*
X126320273Y-110488320D01*
X126085241Y-110645363D01*
X125885363Y-110845241D01*
X125730000Y-111077759D01*
X125574637Y-110845241D01*
X125374759Y-110645363D01*
X125139727Y-110488320D01*
X124878574Y-110380147D01*
X124601335Y-110325000D01*
X124318665Y-110325000D01*
X124041426Y-110380147D01*
X123780273Y-110488320D01*
X123545241Y-110645363D01*
X123345363Y-110845241D01*
X123190000Y-111077759D01*
X123034637Y-110845241D01*
X122834759Y-110645363D01*
X122599727Y-110488320D01*
X122338574Y-110380147D01*
X122061335Y-110325000D01*
X121778665Y-110325000D01*
X121501426Y-110380147D01*
X121240273Y-110488320D01*
X121005241Y-110645363D01*
X120805363Y-110845241D01*
X120650000Y-111077759D01*
X120494637Y-110845241D01*
X120294759Y-110645363D01*
X120059727Y-110488320D01*
X119798574Y-110380147D01*
X119521335Y-110325000D01*
X119238665Y-110325000D01*
X118961426Y-110380147D01*
X118700273Y-110488320D01*
X118465241Y-110645363D01*
X118265363Y-110845241D01*
X118110000Y-111077759D01*
X117954637Y-110845241D01*
X117754759Y-110645363D01*
X117725000Y-110625479D01*
X117725000Y-109586578D01*
X132446579Y-94865000D01*
X146006531Y-94865000D01*
X146050000Y-94869281D01*
X146093469Y-94865000D01*
X146093477Y-94865000D01*
X146223490Y-94852195D01*
X146390313Y-94801589D01*
X146544059Y-94719411D01*
X146678817Y-94608817D01*
X146706534Y-94575044D01*
X147915050Y-93366529D01*
X147948817Y-93338817D01*
X148059411Y-93204059D01*
X148141589Y-93050313D01*
X148192195Y-92883490D01*
X148205000Y-92753477D01*
X148205000Y-92753467D01*
X148209281Y-92710001D01*
X148205000Y-92666535D01*
X148205000Y-90682782D01*
X148308691Y-90714236D01*
X148590000Y-90741943D01*
X148871308Y-90714236D01*
X149141807Y-90632182D01*
X149391100Y-90498932D01*
X149609607Y-90319608D01*
X149702419Y-90206517D01*
X149704188Y-90224482D01*
X149740498Y-90344180D01*
X149799463Y-90454494D01*
X149878815Y-90551185D01*
X149975506Y-90630537D01*
X150085820Y-90689502D01*
X150205518Y-90725812D01*
X150330000Y-90738072D01*
X151930000Y-90738072D01*
X152054482Y-90725812D01*
X152174180Y-90689502D01*
X152284494Y-90630537D01*
X152381185Y-90551185D01*
X152460537Y-90454494D01*
X152519502Y-90344180D01*
X152555812Y-90224482D01*
X152568072Y-90100000D01*
X152568072Y-87700000D01*
X152555812Y-87575518D01*
X152519502Y-87455820D01*
X152460537Y-87345506D01*
X152381185Y-87248815D01*
X152284494Y-87169463D01*
X152265000Y-87159043D01*
X152265000Y-82415000D01*
X159964249Y-82415000D01*
X160020000Y-82420491D01*
X160075751Y-82415000D01*
X160075752Y-82415000D01*
X160242499Y-82398577D01*
X160456447Y-82333676D01*
X160653623Y-82228284D01*
X160826449Y-82086449D01*
X160861996Y-82043135D01*
X170650132Y-72255000D01*
X172116947Y-72255000D01*
X171923586Y-72347764D01*
X171682884Y-72528351D01*
X171482038Y-72752427D01*
X171328766Y-73011380D01*
X171228959Y-73295259D01*
X171349008Y-73533000D01*
X172593000Y-73533000D01*
X172593000Y-73513000D01*
X172847000Y-73513000D01*
X172847000Y-73533000D01*
X174090992Y-73533000D01*
X174211041Y-73295259D01*
X174111234Y-73011380D01*
X173957962Y-72752427D01*
X173757116Y-72528351D01*
X173516414Y-72347764D01*
X173323053Y-72255000D01*
X180047847Y-72255000D01*
X179921426Y-72280147D01*
X179660273Y-72388320D01*
X179425241Y-72545363D01*
X179225363Y-72745241D01*
X179068320Y-72980273D01*
X178960147Y-73241426D01*
X178912150Y-73482718D01*
X177259879Y-75134990D01*
X173137642Y-75134990D01*
X173245107Y-75102394D01*
X173516414Y-74972236D01*
X173757116Y-74791649D01*
X173957962Y-74567573D01*
X174111234Y-74308620D01*
X174211041Y-74024741D01*
X174090992Y-73787000D01*
X172847000Y-73787000D01*
X172847000Y-73807000D01*
X172593000Y-73807000D01*
X172593000Y-73787000D01*
X171349008Y-73787000D01*
X171228959Y-74024741D01*
X171328766Y-74308620D01*
X171482038Y-74567573D01*
X171682884Y-74791649D01*
X171923586Y-74972236D01*
X172194893Y-75102394D01*
X172302358Y-75134990D01*
X170165762Y-75134990D01*
X170110010Y-75129499D01*
X170054258Y-75134990D01*
X169887511Y-75151413D01*
X169673563Y-75216314D01*
X169476387Y-75321706D01*
X169303561Y-75463541D01*
X169268021Y-75506847D01*
X160526865Y-84248004D01*
X160483551Y-84283551D01*
X160341716Y-84456377D01*
X160250812Y-84626449D01*
X160236324Y-84653554D01*
X160171423Y-84867502D01*
X160149509Y-85090000D01*
X160155000Y-85145751D01*
X160155001Y-96510997D01*
X160091068Y-96588899D01*
X160022735Y-96716741D01*
X159872601Y-96487161D01*
X159674895Y-96285500D01*
X159441646Y-96126285D01*
X159181818Y-96015633D01*
X159099039Y-95998096D01*
X158877000Y-96120085D01*
X158877000Y-97663000D01*
X158897000Y-97663000D01*
X158897000Y-97917000D01*
X158877000Y-97917000D01*
X158877000Y-99459915D01*
X159099039Y-99581904D01*
X159180147Y-99564721D01*
X155446860Y-103298009D01*
X155403552Y-103333551D01*
X155261717Y-103506377D01*
X155228749Y-103568057D01*
X155156324Y-103703554D01*
X155091423Y-103917502D01*
X155069509Y-104140000D01*
X155075001Y-104195761D01*
X155075000Y-119256330D01*
X155069509Y-119312081D01*
X155075000Y-119367832D01*
X155091423Y-119534579D01*
X155156324Y-119748527D01*
X155261716Y-119945704D01*
X155403551Y-120118530D01*
X155446865Y-120154077D01*
X156705927Y-121413140D01*
X156741470Y-121456449D01*
X156914296Y-121598284D01*
X157111472Y-121703676D01*
X157275624Y-121753471D01*
X157325419Y-121768577D01*
X157346412Y-121770644D01*
X157492167Y-121785000D01*
X157492174Y-121785000D01*
X157547918Y-121790490D01*
X157603662Y-121785000D01*
X157784893Y-121785000D01*
X157803368Y-121803475D01*
X158046589Y-121965990D01*
X158316842Y-122077932D01*
X158603740Y-122135000D01*
X158896260Y-122135000D01*
X159183158Y-122077932D01*
X159453411Y-121965990D01*
X159696632Y-121803475D01*
X159715107Y-121785000D01*
X162089869Y-121785000D01*
X164942151Y-124637283D01*
X164990147Y-124878574D01*
X165098320Y-125139727D01*
X165255363Y-125374759D01*
X165455241Y-125574637D01*
X165690273Y-125731680D01*
X165951426Y-125839853D01*
X166228665Y-125895000D01*
X166511335Y-125895000D01*
X166788574Y-125839853D01*
X167049727Y-125731680D01*
X167284759Y-125574637D01*
X167484637Y-125374759D01*
X167641680Y-125139727D01*
X167749853Y-124878574D01*
X167805000Y-124601335D01*
X167805000Y-124318665D01*
X167749853Y-124041426D01*
X167641680Y-123780273D01*
X167484637Y-123545241D01*
X167284759Y-123345363D01*
X167049727Y-123188320D01*
X166788574Y-123080147D01*
X166547283Y-123032151D01*
X163401996Y-119886865D01*
X163366449Y-119843551D01*
X163193623Y-119701716D01*
X162996447Y-119596324D01*
X162782499Y-119531423D01*
X162615752Y-119515000D01*
X162615751Y-119515000D01*
X162560000Y-119509509D01*
X162504249Y-119515000D01*
X159908728Y-119515000D01*
X159954494Y-119490537D01*
X160051185Y-119411185D01*
X160130537Y-119314494D01*
X160189502Y-119204180D01*
X160225812Y-119084482D01*
X160238072Y-118960000D01*
X160235000Y-118395750D01*
X160076250Y-118237000D01*
X158877000Y-118237000D01*
X158877000Y-118257000D01*
X158623000Y-118257000D01*
X158623000Y-118237000D01*
X158603000Y-118237000D01*
X158603000Y-117983000D01*
X158623000Y-117983000D01*
X158623000Y-116783750D01*
X158877000Y-116783750D01*
X158877000Y-117983000D01*
X160076250Y-117983000D01*
X160235000Y-117824250D01*
X160238072Y-117260000D01*
X160225812Y-117135518D01*
X160189502Y-117015820D01*
X160130537Y-116905506D01*
X160051185Y-116808815D01*
X159954494Y-116729463D01*
X159844180Y-116670498D01*
X159724482Y-116634188D01*
X159600000Y-116621928D01*
X159035750Y-116625000D01*
X158877000Y-116783750D01*
X158623000Y-116783750D01*
X158464250Y-116625000D01*
X157900000Y-116621928D01*
X157775518Y-116634188D01*
X157655820Y-116670498D01*
X157545506Y-116729463D01*
X157448815Y-116808815D01*
X157369463Y-116905506D01*
X157345000Y-116951272D01*
X157345000Y-115292702D01*
X165556903Y-115292702D01*
X165628486Y-115536671D01*
X165883996Y-115657571D01*
X166158184Y-115726300D01*
X166440512Y-115740217D01*
X166720130Y-115698787D01*
X166986292Y-115603603D01*
X167111514Y-115536671D01*
X167183097Y-115292702D01*
X166370000Y-114479605D01*
X165556903Y-115292702D01*
X157345000Y-115292702D01*
X157345000Y-114370512D01*
X164929783Y-114370512D01*
X164971213Y-114650130D01*
X165066397Y-114916292D01*
X165133329Y-115041514D01*
X165377298Y-115113097D01*
X166190395Y-114300000D01*
X166549605Y-114300000D01*
X167362702Y-115113097D01*
X167606671Y-115041514D01*
X167727571Y-114786004D01*
X167796300Y-114511816D01*
X167810217Y-114229488D01*
X167768787Y-113949870D01*
X167673603Y-113683708D01*
X167606671Y-113558486D01*
X167362702Y-113486903D01*
X166549605Y-114300000D01*
X166190395Y-114300000D01*
X165377298Y-113486903D01*
X165133329Y-113558486D01*
X165012429Y-113813996D01*
X164943700Y-114088184D01*
X164929783Y-114370512D01*
X157345000Y-114370512D01*
X157345000Y-113307298D01*
X165556903Y-113307298D01*
X166370000Y-114120395D01*
X167183097Y-113307298D01*
X167111514Y-113063329D01*
X166856004Y-112942429D01*
X166581816Y-112873700D01*
X166299488Y-112859783D01*
X166019870Y-112901213D01*
X165753708Y-112996397D01*
X165628486Y-113063329D01*
X165556903Y-113307298D01*
X157345000Y-113307298D01*
X157345000Y-106121755D01*
X157417818Y-106361807D01*
X157551068Y-106611100D01*
X157730392Y-106829607D01*
X157948899Y-107008932D01*
X158198192Y-107142182D01*
X158468691Y-107224236D01*
X158750000Y-107251943D01*
X159031308Y-107224236D01*
X159301807Y-107142182D01*
X159551100Y-107008932D01*
X159769607Y-106829608D01*
X159948932Y-106611101D01*
X160020000Y-106478142D01*
X160091068Y-106611100D01*
X160270392Y-106829607D01*
X160488899Y-107008932D01*
X160738192Y-107142182D01*
X161008691Y-107224236D01*
X161290000Y-107251943D01*
X161571308Y-107224236D01*
X161841807Y-107142182D01*
X162091100Y-107008932D01*
X162309607Y-106829608D01*
X162488932Y-106611101D01*
X162560000Y-106478142D01*
X162631068Y-106611100D01*
X162810392Y-106829607D01*
X163028899Y-107008932D01*
X163278192Y-107142182D01*
X163548691Y-107224236D01*
X163830000Y-107251943D01*
X164111308Y-107224236D01*
X164381807Y-107142182D01*
X164631100Y-107008932D01*
X164849607Y-106829608D01*
X165028932Y-106611101D01*
X165100000Y-106478142D01*
X165171068Y-106611100D01*
X165350392Y-106829607D01*
X165568899Y-107008932D01*
X165818192Y-107142182D01*
X166088691Y-107224236D01*
X166370000Y-107251943D01*
X166585578Y-107230710D01*
X169045001Y-109690134D01*
X169045000Y-126500000D01*
X146126125Y-126500000D01*
X146051680Y-126320273D01*
X145915000Y-126115716D01*
X145915000Y-125785752D01*
X145920491Y-125730000D01*
X145898577Y-125507501D01*
X145833676Y-125293553D01*
X145728284Y-125096377D01*
X145621989Y-124966856D01*
X145621987Y-124966854D01*
X145586449Y-124923551D01*
X145543146Y-124888013D01*
X141811996Y-121156865D01*
X141776449Y-121113551D01*
X141603623Y-120971716D01*
X141406447Y-120866324D01*
X141192499Y-120801423D01*
X141025752Y-120785000D01*
X141025751Y-120785000D01*
X140970000Y-120779509D01*
X140914249Y-120785000D01*
X107150133Y-120785000D01*
X104005000Y-117639869D01*
X104005000Y-105275000D01*
X107894249Y-105275000D01*
X107950000Y-105280491D01*
X108005751Y-105275000D01*
X108005752Y-105275000D01*
X108172499Y-105258577D01*
X108386447Y-105193676D01*
X108583623Y-105088284D01*
X108756449Y-104946449D01*
X108791996Y-104903135D01*
X113793141Y-99901991D01*
X113836449Y-99866449D01*
X113978284Y-99693623D01*
X114083676Y-99496447D01*
X114148577Y-99282499D01*
X114165000Y-99115752D01*
X114165000Y-99115751D01*
X114170491Y-99060000D01*
X114165000Y-99004248D01*
X114165000Y-93594284D01*
X114301680Y-93389727D01*
X114409853Y-93128574D01*
X114465000Y-92851335D01*
X114465000Y-92568665D01*
X114409853Y-92291426D01*
X114301680Y-92030273D01*
X114144637Y-91795241D01*
X113944759Y-91595363D01*
X113709727Y-91438320D01*
X113448574Y-91330147D01*
X113207282Y-91282150D01*
X109085000Y-87159869D01*
X109085000Y-82245107D01*
X109103475Y-82226632D01*
X109265990Y-81983411D01*
X109377932Y-81713158D01*
X109435000Y-81426260D01*
X109435000Y-81133740D01*
X109377932Y-80846842D01*
X109265990Y-80576589D01*
X109103475Y-80333368D01*
X108896632Y-80126525D01*
X108722240Y-80010000D01*
X108896632Y-79893475D01*
X109103475Y-79686632D01*
X109265990Y-79443411D01*
X109377932Y-79173158D01*
X109435000Y-78886260D01*
X109435000Y-78593740D01*
X109377932Y-78306842D01*
X109265990Y-78036589D01*
X109103475Y-77793368D01*
X108971620Y-77661513D01*
X109044180Y-77639502D01*
X109154494Y-77580537D01*
X109251185Y-77501185D01*
X109330537Y-77404494D01*
X109389502Y-77294180D01*
X109425812Y-77174482D01*
X109438072Y-77050000D01*
X109438072Y-75350000D01*
X109425812Y-75225518D01*
X109389502Y-75105820D01*
X109330537Y-74995506D01*
X109251185Y-74898815D01*
X109154494Y-74819463D01*
X109044180Y-74760498D01*
X108924482Y-74724188D01*
X108800000Y-74711928D01*
X107100000Y-74711928D01*
X106975518Y-74724188D01*
X106855820Y-74760498D01*
X106745506Y-74819463D01*
X106648815Y-74898815D01*
X106569463Y-74995506D01*
X106545000Y-75041272D01*
X106545000Y-67780131D01*
X107167059Y-67158072D01*
X109700000Y-67158072D01*
X109824482Y-67145812D01*
X109944180Y-67109502D01*
X110054494Y-67050537D01*
X110151185Y-66971185D01*
X110230537Y-66874494D01*
X110289502Y-66764180D01*
X110325812Y-66644482D01*
X110338072Y-66520000D01*
X110338072Y-63020000D01*
X110325812Y-62895518D01*
X110289502Y-62775820D01*
X110230537Y-62665506D01*
X110151185Y-62568815D01*
X110054494Y-62489463D01*
X109944180Y-62430498D01*
X109824482Y-62394188D01*
X109700000Y-62381928D01*
X106200000Y-62381928D01*
X106075518Y-62394188D01*
X105955820Y-62430498D01*
X105845506Y-62489463D01*
X105748815Y-62568815D01*
X105669463Y-62665506D01*
X105628506Y-62742131D01*
X105638072Y-62645000D01*
X105638072Y-60895000D01*
X105608999Y-60599814D01*
X105522896Y-60315972D01*
X105498324Y-60270000D01*
X105561928Y-60270000D01*
X105574188Y-60394482D01*
X105610498Y-60514180D01*
X105669463Y-60624494D01*
X105748815Y-60721185D01*
X105845506Y-60800537D01*
X105955820Y-60859502D01*
X106075518Y-60895812D01*
X106200000Y-60908072D01*
X107664250Y-60905000D01*
X107823000Y-60746250D01*
X107823000Y-58897000D01*
X108077000Y-58897000D01*
X108077000Y-60746250D01*
X108235750Y-60905000D01*
X109700000Y-60908072D01*
X109824482Y-60895812D01*
X109944180Y-60859502D01*
X110054494Y-60800537D01*
X110151185Y-60721185D01*
X110230537Y-60624494D01*
X110289502Y-60514180D01*
X110325812Y-60394482D01*
X110338072Y-60270000D01*
X110335000Y-59055750D01*
X110176250Y-58897000D01*
X108077000Y-58897000D01*
X107823000Y-58897000D01*
X105723750Y-58897000D01*
X105565000Y-59055750D01*
X105561928Y-60270000D01*
X105498324Y-60270000D01*
X105383073Y-60054382D01*
X105194903Y-59825097D01*
X104965618Y-59636927D01*
X104704028Y-59497104D01*
X104420186Y-59411001D01*
X104125000Y-59381928D01*
X102375000Y-59381928D01*
X102228805Y-59396327D01*
X104610133Y-57015000D01*
X105616282Y-57015000D01*
X105610498Y-57025820D01*
%TA.AperFunction,Conductor*%
D28*
G36*
X105610498Y-57025820D02*
G01*
X105574188Y-57145518D01*
X105561928Y-57270000D01*
X105565000Y-58484250D01*
X105723750Y-58643000D01*
X107823000Y-58643000D01*
X107823000Y-58623000D01*
X108077000Y-58623000D01*
X108077000Y-58643000D01*
X110176250Y-58643000D01*
X110335000Y-58484250D01*
X110338072Y-57270000D01*
X110325812Y-57145518D01*
X110289502Y-57025820D01*
X110283718Y-57015000D01*
X114435001Y-57015000D01*
X114435000Y-72334248D01*
X114429509Y-72390000D01*
X114435000Y-72445751D01*
X114451423Y-72612498D01*
X114516324Y-72826446D01*
X114621716Y-73023623D01*
X114763551Y-73196449D01*
X114806865Y-73231996D01*
X127934868Y-86360000D01*
X117346862Y-96948007D01*
X117346856Y-96948012D01*
X114806861Y-99488008D01*
X114806856Y-99488012D01*
X108749869Y-105545000D01*
X106735752Y-105545000D01*
X106680000Y-105539509D01*
X106624249Y-105545000D01*
X106624248Y-105545000D01*
X106457501Y-105561423D01*
X106243553Y-105626324D01*
X106046377Y-105731716D01*
X105873551Y-105873551D01*
X105731716Y-106046377D01*
X105626324Y-106243553D01*
X105561423Y-106457501D01*
X105539509Y-106680000D01*
X105545001Y-106735762D01*
X105545000Y-112974248D01*
X105539509Y-113030000D01*
X105545000Y-113085751D01*
X105561423Y-113252498D01*
X105626324Y-113466446D01*
X105731716Y-113663623D01*
X105873551Y-113836449D01*
X105916865Y-113871996D01*
X107108008Y-115063140D01*
X107143551Y-115106449D01*
X107316377Y-115248284D01*
X107513553Y-115353676D01*
X107677705Y-115403471D01*
X107727500Y-115418577D01*
X107748493Y-115420644D01*
X107894248Y-115435000D01*
X107894255Y-115435000D01*
X107949999Y-115440490D01*
X108005743Y-115435000D01*
X145994249Y-115435000D01*
X146050000Y-115440491D01*
X146105751Y-115435000D01*
X146105752Y-115435000D01*
X146272499Y-115418577D01*
X146486447Y-115353676D01*
X146683623Y-115248284D01*
X146856449Y-115106449D01*
X146891996Y-115063135D01*
X148083140Y-113871992D01*
X148126449Y-113836449D01*
X148268284Y-113663623D01*
X148373676Y-113466447D01*
X148438577Y-113252499D01*
X148455000Y-113085752D01*
X148455000Y-113085745D01*
X148460490Y-113030001D01*
X148455000Y-112974257D01*
X148455000Y-97917000D01*
X157315000Y-97917000D01*
X157315000Y-98317000D01*
X157367350Y-98594514D01*
X157472834Y-98856483D01*
X157627399Y-99092839D01*
X157825105Y-99294500D01*
X158058354Y-99453715D01*
X158318182Y-99564367D01*
X158400961Y-99581904D01*
X158623000Y-99459915D01*
X158623000Y-97917000D01*
X157315000Y-97917000D01*
X148455000Y-97917000D01*
X148455000Y-97845743D01*
X148460490Y-97789999D01*
X148455000Y-97734255D01*
X148455000Y-97734248D01*
X148438577Y-97567501D01*
X148373676Y-97353553D01*
X148325275Y-97263000D01*
X157315000Y-97263000D01*
X157315000Y-97663000D01*
X158623000Y-97663000D01*
X158623000Y-96120085D01*
X158400961Y-95998096D01*
X158318182Y-96015633D01*
X158058354Y-96126285D01*
X157825105Y-96285500D01*
X157627399Y-96487161D01*
X157472834Y-96723517D01*
X157367350Y-96985486D01*
X157315000Y-97263000D01*
X148325275Y-97263000D01*
X148268284Y-97156377D01*
X148126449Y-96983551D01*
X148083140Y-96948008D01*
X146891996Y-95756865D01*
X146856449Y-95713551D01*
X146683623Y-95571716D01*
X146486447Y-95466324D01*
X146272499Y-95401423D01*
X146105752Y-95385000D01*
X146105751Y-95385000D01*
X146050000Y-95379509D01*
X145994249Y-95385000D01*
X138485743Y-95385000D01*
X138429999Y-95379510D01*
X138374255Y-95385000D01*
X138374248Y-95385000D01*
X138228493Y-95399356D01*
X138207500Y-95401423D01*
X138157705Y-95416529D01*
X137993553Y-95466324D01*
X137796377Y-95571716D01*
X137623551Y-95713551D01*
X137588008Y-95756860D01*
X136396860Y-96948009D01*
X136353552Y-96983551D01*
X136211717Y-97156377D01*
X136106324Y-97353553D01*
X136041423Y-97567501D01*
X136036398Y-97618524D01*
X136034558Y-97637208D01*
X135955506Y-97679463D01*
X135858815Y-97758815D01*
X135779463Y-97855506D01*
X135720498Y-97965820D01*
X135684188Y-98085518D01*
X135671928Y-98210000D01*
X135671928Y-99910000D01*
X135684188Y-100034482D01*
X135720498Y-100154180D01*
X135779463Y-100264494D01*
X135858815Y-100361185D01*
X135955506Y-100440537D01*
X136065820Y-100499502D01*
X136185518Y-100535812D01*
X136310000Y-100548072D01*
X138010000Y-100548072D01*
X138134482Y-100535812D01*
X138254180Y-100499502D01*
X138364494Y-100440537D01*
X138461185Y-100361185D01*
X138540537Y-100264494D01*
X138599502Y-100154180D01*
X138623966Y-100073534D01*
X138699731Y-100157588D01*
X138933080Y-100331641D01*
X139195901Y-100456825D01*
X139343110Y-100501476D01*
X139573000Y-100380155D01*
X139573000Y-99187000D01*
X139553000Y-99187000D01*
X139553000Y-98933000D01*
X139573000Y-98933000D01*
X139573000Y-98913000D01*
X139827000Y-98913000D01*
X139827000Y-98933000D01*
X139847000Y-98933000D01*
X139847000Y-99187000D01*
X139827000Y-99187000D01*
X139827000Y-100380155D01*
X140056890Y-100501476D01*
X140204099Y-100456825D01*
X140466920Y-100331641D01*
X140700269Y-100157588D01*
X140895178Y-99941355D01*
X140964805Y-99824466D01*
X141086525Y-100006632D01*
X141105000Y-100025107D01*
X141105001Y-110875715D01*
X140970000Y-111077759D01*
X140814637Y-110845241D01*
X140614759Y-110645363D01*
X140379727Y-110488320D01*
X140118574Y-110380147D01*
X139841335Y-110325000D01*
X139558665Y-110325000D01*
X139281426Y-110380147D01*
X139020273Y-110488320D01*
X138785241Y-110645363D01*
X138585363Y-110845241D01*
X138428320Y-111080273D01*
X138423933Y-111090865D01*
X138312385Y-110904869D01*
X138123414Y-110696481D01*
X137897420Y-110528963D01*
X137643087Y-110408754D01*
X137509039Y-110368096D01*
X137287000Y-110490085D01*
X137287000Y-111633000D01*
X137307000Y-111633000D01*
X137307000Y-111887000D01*
X137287000Y-111887000D01*
X137287000Y-111907000D01*
X137033000Y-111907000D01*
X137033000Y-111887000D01*
X137013000Y-111887000D01*
X137013000Y-111633000D01*
X137033000Y-111633000D01*
X137033000Y-110490085D01*
X136810961Y-110368096D01*
X136676913Y-110408754D01*
X136422580Y-110528963D01*
X136196586Y-110696481D01*
X136007615Y-110904869D01*
X135896067Y-111090865D01*
X135891680Y-111080273D01*
X135734637Y-110845241D01*
X135534759Y-110645363D01*
X135299727Y-110488320D01*
X135038574Y-110380147D01*
X134761335Y-110325000D01*
X134478665Y-110325000D01*
X134201426Y-110380147D01*
X133940273Y-110488320D01*
X133705241Y-110645363D01*
X133505363Y-110845241D01*
X133350000Y-111077759D01*
X133194637Y-110845241D01*
X132994759Y-110645363D01*
X132759727Y-110488320D01*
X132498574Y-110380147D01*
X132221335Y-110325000D01*
X131938665Y-110325000D01*
X131661426Y-110380147D01*
X131400273Y-110488320D01*
X131165241Y-110645363D01*
X130965363Y-110845241D01*
X130810000Y-111077759D01*
X130654637Y-110845241D01*
X130454759Y-110645363D01*
X130219727Y-110488320D01*
X129958574Y-110380147D01*
X129681335Y-110325000D01*
X129398665Y-110325000D01*
X129121426Y-110380147D01*
X128860273Y-110488320D01*
X128625241Y-110645363D01*
X128425363Y-110845241D01*
X128270000Y-111077759D01*
X128114637Y-110845241D01*
X127914759Y-110645363D01*
X127679727Y-110488320D01*
X127418574Y-110380147D01*
X127141335Y-110325000D01*
X126858665Y-110325000D01*
X126581426Y-110380147D01*
X126320273Y-110488320D01*
X126085241Y-110645363D01*
X125885363Y-110845241D01*
X125730000Y-111077759D01*
X125574637Y-110845241D01*
X125374759Y-110645363D01*
X125139727Y-110488320D01*
X124878574Y-110380147D01*
X124601335Y-110325000D01*
X124318665Y-110325000D01*
X124041426Y-110380147D01*
X123780273Y-110488320D01*
X123545241Y-110645363D01*
X123345363Y-110845241D01*
X123190000Y-111077759D01*
X123034637Y-110845241D01*
X122834759Y-110645363D01*
X122599727Y-110488320D01*
X122338574Y-110380147D01*
X122061335Y-110325000D01*
X121778665Y-110325000D01*
X121501426Y-110380147D01*
X121240273Y-110488320D01*
X121005241Y-110645363D01*
X120805363Y-110845241D01*
X120650000Y-111077759D01*
X120494637Y-110845241D01*
X120294759Y-110645363D01*
X120059727Y-110488320D01*
X119798574Y-110380147D01*
X119521335Y-110325000D01*
X119238665Y-110325000D01*
X118961426Y-110380147D01*
X118700273Y-110488320D01*
X118465241Y-110645363D01*
X118265363Y-110845241D01*
X118110000Y-111077759D01*
X117954637Y-110845241D01*
X117754759Y-110645363D01*
X117725000Y-110625479D01*
X117725000Y-109586578D01*
X132446579Y-94865000D01*
X146006531Y-94865000D01*
X146050000Y-94869281D01*
X146093469Y-94865000D01*
X146093477Y-94865000D01*
X146223490Y-94852195D01*
X146390313Y-94801589D01*
X146544059Y-94719411D01*
X146678817Y-94608817D01*
X146706534Y-94575044D01*
X147915050Y-93366529D01*
X147948817Y-93338817D01*
X148059411Y-93204059D01*
X148141589Y-93050313D01*
X148192195Y-92883490D01*
X148205000Y-92753477D01*
X148205000Y-92753467D01*
X148209281Y-92710001D01*
X148205000Y-92666535D01*
X148205000Y-90682782D01*
X148308691Y-90714236D01*
X148590000Y-90741943D01*
X148871308Y-90714236D01*
X149141807Y-90632182D01*
X149391100Y-90498932D01*
X149609607Y-90319608D01*
X149702419Y-90206517D01*
X149704188Y-90224482D01*
X149740498Y-90344180D01*
X149799463Y-90454494D01*
X149878815Y-90551185D01*
X149975506Y-90630537D01*
X150085820Y-90689502D01*
X150205518Y-90725812D01*
X150330000Y-90738072D01*
X151930000Y-90738072D01*
X152054482Y-90725812D01*
X152174180Y-90689502D01*
X152284494Y-90630537D01*
X152381185Y-90551185D01*
X152460537Y-90454494D01*
X152519502Y-90344180D01*
X152555812Y-90224482D01*
X152568072Y-90100000D01*
X152568072Y-87700000D01*
X152555812Y-87575518D01*
X152519502Y-87455820D01*
X152460537Y-87345506D01*
X152381185Y-87248815D01*
X152284494Y-87169463D01*
X152265000Y-87159043D01*
X152265000Y-82415000D01*
X159964249Y-82415000D01*
X160020000Y-82420491D01*
X160075751Y-82415000D01*
X160075752Y-82415000D01*
X160242499Y-82398577D01*
X160456447Y-82333676D01*
X160653623Y-82228284D01*
X160826449Y-82086449D01*
X160861996Y-82043135D01*
X170650132Y-72255000D01*
X172116947Y-72255000D01*
X171923586Y-72347764D01*
X171682884Y-72528351D01*
X171482038Y-72752427D01*
X171328766Y-73011380D01*
X171228959Y-73295259D01*
X171349008Y-73533000D01*
X172593000Y-73533000D01*
X172593000Y-73513000D01*
X172847000Y-73513000D01*
X172847000Y-73533000D01*
X174090992Y-73533000D01*
X174211041Y-73295259D01*
X174111234Y-73011380D01*
X173957962Y-72752427D01*
X173757116Y-72528351D01*
X173516414Y-72347764D01*
X173323053Y-72255000D01*
X180047847Y-72255000D01*
X179921426Y-72280147D01*
X179660273Y-72388320D01*
X179425241Y-72545363D01*
X179225363Y-72745241D01*
X179068320Y-72980273D01*
X178960147Y-73241426D01*
X178912150Y-73482718D01*
X177259879Y-75134990D01*
X173137642Y-75134990D01*
X173245107Y-75102394D01*
X173516414Y-74972236D01*
X173757116Y-74791649D01*
X173957962Y-74567573D01*
X174111234Y-74308620D01*
X174211041Y-74024741D01*
X174090992Y-73787000D01*
X172847000Y-73787000D01*
X172847000Y-73807000D01*
X172593000Y-73807000D01*
X172593000Y-73787000D01*
X171349008Y-73787000D01*
X171228959Y-74024741D01*
X171328766Y-74308620D01*
X171482038Y-74567573D01*
X171682884Y-74791649D01*
X171923586Y-74972236D01*
X172194893Y-75102394D01*
X172302358Y-75134990D01*
X170165762Y-75134990D01*
X170110010Y-75129499D01*
X170054258Y-75134990D01*
X169887511Y-75151413D01*
X169673563Y-75216314D01*
X169476387Y-75321706D01*
X169303561Y-75463541D01*
X169268021Y-75506847D01*
X160526865Y-84248004D01*
X160483551Y-84283551D01*
X160341716Y-84456377D01*
X160250812Y-84626449D01*
X160236324Y-84653554D01*
X160171423Y-84867502D01*
X160149509Y-85090000D01*
X160155000Y-85145751D01*
X160155001Y-96510997D01*
X160091068Y-96588899D01*
X160022735Y-96716741D01*
X159872601Y-96487161D01*
X159674895Y-96285500D01*
X159441646Y-96126285D01*
X159181818Y-96015633D01*
X159099039Y-95998096D01*
X158877000Y-96120085D01*
X158877000Y-97663000D01*
X158897000Y-97663000D01*
X158897000Y-97917000D01*
X158877000Y-97917000D01*
X158877000Y-99459915D01*
X159099039Y-99581904D01*
X159180147Y-99564721D01*
X155446860Y-103298009D01*
X155403552Y-103333551D01*
X155261717Y-103506377D01*
X155228749Y-103568057D01*
X155156324Y-103703554D01*
X155091423Y-103917502D01*
X155069509Y-104140000D01*
X155075001Y-104195761D01*
X155075000Y-119256330D01*
X155069509Y-119312081D01*
X155075000Y-119367832D01*
X155091423Y-119534579D01*
X155156324Y-119748527D01*
X155261716Y-119945704D01*
X155403551Y-120118530D01*
X155446865Y-120154077D01*
X156705927Y-121413140D01*
X156741470Y-121456449D01*
X156914296Y-121598284D01*
X157111472Y-121703676D01*
X157275624Y-121753471D01*
X157325419Y-121768577D01*
X157346412Y-121770644D01*
X157492167Y-121785000D01*
X157492174Y-121785000D01*
X157547918Y-121790490D01*
X157603662Y-121785000D01*
X157784893Y-121785000D01*
X157803368Y-121803475D01*
X158046589Y-121965990D01*
X158316842Y-122077932D01*
X158603740Y-122135000D01*
X158896260Y-122135000D01*
X159183158Y-122077932D01*
X159453411Y-121965990D01*
X159696632Y-121803475D01*
X159715107Y-121785000D01*
X162089869Y-121785000D01*
X164942151Y-124637283D01*
X164990147Y-124878574D01*
X165098320Y-125139727D01*
X165255363Y-125374759D01*
X165455241Y-125574637D01*
X165690273Y-125731680D01*
X165951426Y-125839853D01*
X166228665Y-125895000D01*
X166511335Y-125895000D01*
X166788574Y-125839853D01*
X167049727Y-125731680D01*
X167284759Y-125574637D01*
X167484637Y-125374759D01*
X167641680Y-125139727D01*
X167749853Y-124878574D01*
X167805000Y-124601335D01*
X167805000Y-124318665D01*
X167749853Y-124041426D01*
X167641680Y-123780273D01*
X167484637Y-123545241D01*
X167284759Y-123345363D01*
X167049727Y-123188320D01*
X166788574Y-123080147D01*
X166547283Y-123032151D01*
X163401996Y-119886865D01*
X163366449Y-119843551D01*
X163193623Y-119701716D01*
X162996447Y-119596324D01*
X162782499Y-119531423D01*
X162615752Y-119515000D01*
X162615751Y-119515000D01*
X162560000Y-119509509D01*
X162504249Y-119515000D01*
X159908728Y-119515000D01*
X159954494Y-119490537D01*
X160051185Y-119411185D01*
X160130537Y-119314494D01*
X160189502Y-119204180D01*
X160225812Y-119084482D01*
X160238072Y-118960000D01*
X160235000Y-118395750D01*
X160076250Y-118237000D01*
X158877000Y-118237000D01*
X158877000Y-118257000D01*
X158623000Y-118257000D01*
X158623000Y-118237000D01*
X158603000Y-118237000D01*
X158603000Y-117983000D01*
X158623000Y-117983000D01*
X158623000Y-116783750D01*
X158877000Y-116783750D01*
X158877000Y-117983000D01*
X160076250Y-117983000D01*
X160235000Y-117824250D01*
X160238072Y-117260000D01*
X160225812Y-117135518D01*
X160189502Y-117015820D01*
X160130537Y-116905506D01*
X160051185Y-116808815D01*
X159954494Y-116729463D01*
X159844180Y-116670498D01*
X159724482Y-116634188D01*
X159600000Y-116621928D01*
X159035750Y-116625000D01*
X158877000Y-116783750D01*
X158623000Y-116783750D01*
X158464250Y-116625000D01*
X157900000Y-116621928D01*
X157775518Y-116634188D01*
X157655820Y-116670498D01*
X157545506Y-116729463D01*
X157448815Y-116808815D01*
X157369463Y-116905506D01*
X157345000Y-116951272D01*
X157345000Y-115292702D01*
X165556903Y-115292702D01*
X165628486Y-115536671D01*
X165883996Y-115657571D01*
X166158184Y-115726300D01*
X166440512Y-115740217D01*
X166720130Y-115698787D01*
X166986292Y-115603603D01*
X167111514Y-115536671D01*
X167183097Y-115292702D01*
X166370000Y-114479605D01*
X165556903Y-115292702D01*
X157345000Y-115292702D01*
X157345000Y-114370512D01*
X164929783Y-114370512D01*
X164971213Y-114650130D01*
X165066397Y-114916292D01*
X165133329Y-115041514D01*
X165377298Y-115113097D01*
X166190395Y-114300000D01*
X166549605Y-114300000D01*
X167362702Y-115113097D01*
X167606671Y-115041514D01*
X167727571Y-114786004D01*
X167796300Y-114511816D01*
X167810217Y-114229488D01*
X167768787Y-113949870D01*
X167673603Y-113683708D01*
X167606671Y-113558486D01*
X167362702Y-113486903D01*
X166549605Y-114300000D01*
X166190395Y-114300000D01*
X165377298Y-113486903D01*
X165133329Y-113558486D01*
X165012429Y-113813996D01*
X164943700Y-114088184D01*
X164929783Y-114370512D01*
X157345000Y-114370512D01*
X157345000Y-113307298D01*
X165556903Y-113307298D01*
X166370000Y-114120395D01*
X167183097Y-113307298D01*
X167111514Y-113063329D01*
X166856004Y-112942429D01*
X166581816Y-112873700D01*
X166299488Y-112859783D01*
X166019870Y-112901213D01*
X165753708Y-112996397D01*
X165628486Y-113063329D01*
X165556903Y-113307298D01*
X157345000Y-113307298D01*
X157345000Y-106121755D01*
X157417818Y-106361807D01*
X157551068Y-106611100D01*
X157730392Y-106829607D01*
X157948899Y-107008932D01*
X158198192Y-107142182D01*
X158468691Y-107224236D01*
X158750000Y-107251943D01*
X159031308Y-107224236D01*
X159301807Y-107142182D01*
X159551100Y-107008932D01*
X159769607Y-106829608D01*
X159948932Y-106611101D01*
X160020000Y-106478142D01*
X160091068Y-106611100D01*
X160270392Y-106829607D01*
X160488899Y-107008932D01*
X160738192Y-107142182D01*
X161008691Y-107224236D01*
X161290000Y-107251943D01*
X161571308Y-107224236D01*
X161841807Y-107142182D01*
X162091100Y-107008932D01*
X162309607Y-106829608D01*
X162488932Y-106611101D01*
X162560000Y-106478142D01*
X162631068Y-106611100D01*
X162810392Y-106829607D01*
X163028899Y-107008932D01*
X163278192Y-107142182D01*
X163548691Y-107224236D01*
X163830000Y-107251943D01*
X164111308Y-107224236D01*
X164381807Y-107142182D01*
X164631100Y-107008932D01*
X164849607Y-106829608D01*
X165028932Y-106611101D01*
X165100000Y-106478142D01*
X165171068Y-106611100D01*
X165350392Y-106829607D01*
X165568899Y-107008932D01*
X165818192Y-107142182D01*
X166088691Y-107224236D01*
X166370000Y-107251943D01*
X166585578Y-107230710D01*
X169045001Y-109690134D01*
X169045000Y-126500000D01*
X146126125Y-126500000D01*
X146051680Y-126320273D01*
X145915000Y-126115716D01*
X145915000Y-125785752D01*
X145920491Y-125730000D01*
X145898577Y-125507501D01*
X145833676Y-125293553D01*
X145728284Y-125096377D01*
X145621989Y-124966856D01*
X145621987Y-124966854D01*
X145586449Y-124923551D01*
X145543146Y-124888013D01*
X141811996Y-121156865D01*
X141776449Y-121113551D01*
X141603623Y-120971716D01*
X141406447Y-120866324D01*
X141192499Y-120801423D01*
X141025752Y-120785000D01*
X141025751Y-120785000D01*
X140970000Y-120779509D01*
X140914249Y-120785000D01*
X107150133Y-120785000D01*
X104005000Y-117639869D01*
X104005000Y-105275000D01*
X107894249Y-105275000D01*
X107950000Y-105280491D01*
X108005751Y-105275000D01*
X108005752Y-105275000D01*
X108172499Y-105258577D01*
X108386447Y-105193676D01*
X108583623Y-105088284D01*
X108756449Y-104946449D01*
X108791996Y-104903135D01*
X113793141Y-99901991D01*
X113836449Y-99866449D01*
X113978284Y-99693623D01*
X114083676Y-99496447D01*
X114148577Y-99282499D01*
X114165000Y-99115752D01*
X114165000Y-99115751D01*
X114170491Y-99060000D01*
X114165000Y-99004248D01*
X114165000Y-93594284D01*
X114301680Y-93389727D01*
X114409853Y-93128574D01*
X114465000Y-92851335D01*
X114465000Y-92568665D01*
X114409853Y-92291426D01*
X114301680Y-92030273D01*
X114144637Y-91795241D01*
X113944759Y-91595363D01*
X113709727Y-91438320D01*
X113448574Y-91330147D01*
X113207282Y-91282150D01*
X109085000Y-87159869D01*
X109085000Y-82245107D01*
X109103475Y-82226632D01*
X109265990Y-81983411D01*
X109377932Y-81713158D01*
X109435000Y-81426260D01*
X109435000Y-81133740D01*
X109377932Y-80846842D01*
X109265990Y-80576589D01*
X109103475Y-80333368D01*
X108896632Y-80126525D01*
X108722240Y-80010000D01*
X108896632Y-79893475D01*
X109103475Y-79686632D01*
X109265990Y-79443411D01*
X109377932Y-79173158D01*
X109435000Y-78886260D01*
X109435000Y-78593740D01*
X109377932Y-78306842D01*
X109265990Y-78036589D01*
X109103475Y-77793368D01*
X108971620Y-77661513D01*
X109044180Y-77639502D01*
X109154494Y-77580537D01*
X109251185Y-77501185D01*
X109330537Y-77404494D01*
X109389502Y-77294180D01*
X109425812Y-77174482D01*
X109438072Y-77050000D01*
X109438072Y-75350000D01*
X109425812Y-75225518D01*
X109389502Y-75105820D01*
X109330537Y-74995506D01*
X109251185Y-74898815D01*
X109154494Y-74819463D01*
X109044180Y-74760498D01*
X108924482Y-74724188D01*
X108800000Y-74711928D01*
X107100000Y-74711928D01*
X106975518Y-74724188D01*
X106855820Y-74760498D01*
X106745506Y-74819463D01*
X106648815Y-74898815D01*
X106569463Y-74995506D01*
X106545000Y-75041272D01*
X106545000Y-67780131D01*
X107167059Y-67158072D01*
X109700000Y-67158072D01*
X109824482Y-67145812D01*
X109944180Y-67109502D01*
X110054494Y-67050537D01*
X110151185Y-66971185D01*
X110230537Y-66874494D01*
X110289502Y-66764180D01*
X110325812Y-66644482D01*
X110338072Y-66520000D01*
X110338072Y-63020000D01*
X110325812Y-62895518D01*
X110289502Y-62775820D01*
X110230537Y-62665506D01*
X110151185Y-62568815D01*
X110054494Y-62489463D01*
X109944180Y-62430498D01*
X109824482Y-62394188D01*
X109700000Y-62381928D01*
X106200000Y-62381928D01*
X106075518Y-62394188D01*
X105955820Y-62430498D01*
X105845506Y-62489463D01*
X105748815Y-62568815D01*
X105669463Y-62665506D01*
X105628506Y-62742131D01*
X105638072Y-62645000D01*
X105638072Y-60895000D01*
X105608999Y-60599814D01*
X105522896Y-60315972D01*
X105498324Y-60270000D01*
X105561928Y-60270000D01*
X105574188Y-60394482D01*
X105610498Y-60514180D01*
X105669463Y-60624494D01*
X105748815Y-60721185D01*
X105845506Y-60800537D01*
X105955820Y-60859502D01*
X106075518Y-60895812D01*
X106200000Y-60908072D01*
X107664250Y-60905000D01*
X107823000Y-60746250D01*
X107823000Y-58897000D01*
X108077000Y-58897000D01*
X108077000Y-60746250D01*
X108235750Y-60905000D01*
X109700000Y-60908072D01*
X109824482Y-60895812D01*
X109944180Y-60859502D01*
X110054494Y-60800537D01*
X110151185Y-60721185D01*
X110230537Y-60624494D01*
X110289502Y-60514180D01*
X110325812Y-60394482D01*
X110338072Y-60270000D01*
X110335000Y-59055750D01*
X110176250Y-58897000D01*
X108077000Y-58897000D01*
X107823000Y-58897000D01*
X105723750Y-58897000D01*
X105565000Y-59055750D01*
X105561928Y-60270000D01*
X105498324Y-60270000D01*
X105383073Y-60054382D01*
X105194903Y-59825097D01*
X104965618Y-59636927D01*
X104704028Y-59497104D01*
X104420186Y-59411001D01*
X104125000Y-59381928D01*
X102375000Y-59381928D01*
X102228805Y-59396327D01*
X104610133Y-57015000D01*
X105616282Y-57015000D01*
X105610498Y-57025820D01*
G37*
%TD.AperFunction*%
D27*
X105561928Y-65552941D02*
X104646860Y-66468009D01*
X104603552Y-66503551D01*
X104461717Y-66676377D01*
X104414786Y-66764180D01*
X104356324Y-66873554D01*
X104291423Y-67087502D01*
X104269509Y-67310000D01*
X104275001Y-67365761D01*
X104275000Y-77414248D01*
X104269509Y-77470000D01*
X104275000Y-77525751D01*
X104291423Y-77692498D01*
X104356324Y-77906446D01*
X104461716Y-78103623D01*
X104603551Y-78276449D01*
X104646865Y-78311996D01*
X105838008Y-79503140D01*
X105873551Y-79546449D01*
X106046377Y-79688284D01*
X106243553Y-79793676D01*
X106407705Y-79843471D01*
X106457500Y-79858577D01*
X106478493Y-79860644D01*
X106624248Y-79875000D01*
X106624255Y-79875000D01*
X106679999Y-79880490D01*
X106735743Y-79875000D01*
X106984893Y-79875000D01*
X107003368Y-79893475D01*
X107177760Y-80010000D01*
X107003368Y-80126525D01*
X106796525Y-80333368D01*
X106634010Y-80576589D01*
X106522068Y-80846842D01*
X106465000Y-81133740D01*
X106465000Y-81426260D01*
X106522068Y-81713158D01*
X106634010Y-81983411D01*
X106796525Y-82226632D01*
X106815000Y-82245107D01*
X106815001Y-87574239D01*
X106809509Y-87630000D01*
X106831423Y-87852498D01*
X106896324Y-88066446D01*
X106927119Y-88124059D01*
X107001717Y-88263623D01*
X107143552Y-88436449D01*
X107186860Y-88471991D01*
X111602150Y-92887282D01*
X111650147Y-93128574D01*
X111758320Y-93389727D01*
X111895000Y-93594284D01*
X111895001Y-98589867D01*
X107479869Y-103005000D01*
X102925751Y-103005000D01*
X102870000Y-102999509D01*
X102814248Y-103005000D01*
X102647501Y-103021423D01*
X102433553Y-103086324D01*
X102236377Y-103191716D01*
X102063551Y-103333551D01*
X101921716Y-103506377D01*
X101816324Y-103703553D01*
X101751423Y-103917501D01*
X101729509Y-104140000D01*
X101735000Y-104195752D01*
X101735001Y-118054239D01*
X101729509Y-118110000D01*
X101751423Y-118332498D01*
X101816324Y-118546446D01*
X101865384Y-118638230D01*
X101921717Y-118743623D01*
X102063552Y-118916449D01*
X102106860Y-118951991D01*
X105838013Y-122683146D01*
X105873551Y-122726449D01*
X105916854Y-122761987D01*
X105916856Y-122761989D01*
X106046377Y-122868284D01*
X106243553Y-122973676D01*
X106457501Y-123038577D01*
X106680000Y-123060491D01*
X106735752Y-123055000D01*
X140499869Y-123055000D01*
X143611188Y-126166320D01*
X143510000Y-126317759D01*
X143354637Y-126085241D01*
X143154759Y-125885363D01*
X142919727Y-125728320D01*
X142658574Y-125620147D01*
X142381335Y-125565000D01*
X142098665Y-125565000D01*
X141821426Y-125620147D01*
X141560273Y-125728320D01*
X141325241Y-125885363D01*
X141125363Y-126085241D01*
X140970000Y-126317759D01*
X140814637Y-126085241D01*
X140614759Y-125885363D01*
X140379727Y-125728320D01*
X140118574Y-125620147D01*
X139841335Y-125565000D01*
X139558665Y-125565000D01*
X139281426Y-125620147D01*
X139020273Y-125728320D01*
X138785241Y-125885363D01*
X138585363Y-126085241D01*
X138430000Y-126317759D01*
X138295000Y-126115716D01*
X138295000Y-125785743D01*
X138300490Y-125729999D01*
X138295000Y-125674255D01*
X138295000Y-125674248D01*
X138278577Y-125507501D01*
X138213676Y-125293553D01*
X138108284Y-125096377D01*
X137966449Y-124923551D01*
X137923140Y-124888008D01*
X136731996Y-123696865D01*
X136696449Y-123653551D01*
X136523623Y-123511716D01*
X136326447Y-123406324D01*
X136112499Y-123341423D01*
X135945752Y-123325000D01*
X135945751Y-123325000D01*
X135890000Y-123319509D01*
X135834249Y-123325000D01*
X105880132Y-123325000D01*
X101465000Y-118909869D01*
X101465000Y-100818521D01*
X101554010Y-101033411D01*
X101716525Y-101276632D01*
X101923368Y-101483475D01*
X102166589Y-101645990D01*
X102436842Y-101757932D01*
X102723740Y-101815000D01*
X103016260Y-101815000D01*
X103303158Y-101757932D01*
X103573411Y-101645990D01*
X103816632Y-101483475D01*
X103948487Y-101351620D01*
X103970498Y-101424180D01*
X104029463Y-101534494D01*
X104108815Y-101631185D01*
X104205506Y-101710537D01*
X104315820Y-101769502D01*
X104435518Y-101805812D01*
X104560000Y-101818072D01*
X105124250Y-101815000D01*
X105283000Y-101656250D01*
X105283000Y-100457000D01*
X105537000Y-100457000D01*
X105537000Y-101656250D01*
X105695750Y-101815000D01*
X106260000Y-101818072D01*
X106384482Y-101805812D01*
X106504180Y-101769502D01*
X106614494Y-101710537D01*
X106711185Y-101631185D01*
X106790537Y-101534494D01*
X106849502Y-101424180D01*
X106885812Y-101304482D01*
X106898072Y-101180000D01*
X106895000Y-100615750D01*
X106736250Y-100457000D01*
X105537000Y-100457000D01*
X105283000Y-100457000D01*
X105263000Y-100457000D01*
X105263000Y-100203000D01*
X105283000Y-100203000D01*
X105283000Y-99003750D01*
X105537000Y-99003750D01*
X105537000Y-100203000D01*
X106736250Y-100203000D01*
X106895000Y-100044250D01*
X106898072Y-99480000D01*
X106885812Y-99355518D01*
X106849502Y-99235820D01*
X106790537Y-99125506D01*
X106711185Y-99028815D01*
X106614494Y-98949463D01*
X106504180Y-98890498D01*
X106384482Y-98854188D01*
X106260000Y-98841928D01*
X105695750Y-98845000D01*
X105537000Y-99003750D01*
X105283000Y-99003750D01*
X105124250Y-98845000D01*
X104560000Y-98841928D01*
X104435518Y-98854188D01*
X104315820Y-98890498D01*
X104205506Y-98949463D01*
X104108815Y-99028815D01*
X104029463Y-99125506D01*
X104005000Y-99171272D01*
X104005000Y-93594284D01*
X104141680Y-93389727D01*
X104249853Y-93128574D01*
X104305000Y-92851335D01*
X104305000Y-92568665D01*
X104249853Y-92291426D01*
X104141680Y-92030273D01*
X103984637Y-91795241D01*
X103784759Y-91595363D01*
X103549727Y-91438320D01*
X103288574Y-91330147D01*
X103011335Y-91275000D01*
X102728665Y-91275000D01*
X102451426Y-91330147D01*
X102190273Y-91438320D01*
X101955241Y-91595363D01*
X101755363Y-91795241D01*
X101598320Y-92030273D01*
X101490147Y-92291426D01*
X101465000Y-92417847D01*
X101465000Y-63846132D01*
X101534382Y-63903073D01*
X101795972Y-64042896D01*
X102079814Y-64128999D01*
X102375000Y-64158072D01*
X104125000Y-64158072D01*
X104420186Y-64128999D01*
X104704028Y-64042896D01*
X104965618Y-63903073D01*
X105194903Y-63714903D01*
X105383073Y-63485618D01*
X105522896Y-63224028D01*
X105561928Y-63095357D01*
X105561928Y-65552941D01*
%TA.AperFunction,Conductor*%
D28*
G36*
X105561928Y-65552941D02*
G01*
X104646860Y-66468009D01*
X104603552Y-66503551D01*
X104461717Y-66676377D01*
X104414786Y-66764180D01*
X104356324Y-66873554D01*
X104291423Y-67087502D01*
X104269509Y-67310000D01*
X104275001Y-67365761D01*
X104275000Y-77414248D01*
X104269509Y-77470000D01*
X104275000Y-77525751D01*
X104291423Y-77692498D01*
X104356324Y-77906446D01*
X104461716Y-78103623D01*
X104603551Y-78276449D01*
X104646865Y-78311996D01*
X105838008Y-79503140D01*
X105873551Y-79546449D01*
X106046377Y-79688284D01*
X106243553Y-79793676D01*
X106407705Y-79843471D01*
X106457500Y-79858577D01*
X106478493Y-79860644D01*
X106624248Y-79875000D01*
X106624255Y-79875000D01*
X106679999Y-79880490D01*
X106735743Y-79875000D01*
X106984893Y-79875000D01*
X107003368Y-79893475D01*
X107177760Y-80010000D01*
X107003368Y-80126525D01*
X106796525Y-80333368D01*
X106634010Y-80576589D01*
X106522068Y-80846842D01*
X106465000Y-81133740D01*
X106465000Y-81426260D01*
X106522068Y-81713158D01*
X106634010Y-81983411D01*
X106796525Y-82226632D01*
X106815000Y-82245107D01*
X106815001Y-87574239D01*
X106809509Y-87630000D01*
X106831423Y-87852498D01*
X106896324Y-88066446D01*
X106927119Y-88124059D01*
X107001717Y-88263623D01*
X107143552Y-88436449D01*
X107186860Y-88471991D01*
X111602150Y-92887282D01*
X111650147Y-93128574D01*
X111758320Y-93389727D01*
X111895000Y-93594284D01*
X111895001Y-98589867D01*
X107479869Y-103005000D01*
X102925751Y-103005000D01*
X102870000Y-102999509D01*
X102814248Y-103005000D01*
X102647501Y-103021423D01*
X102433553Y-103086324D01*
X102236377Y-103191716D01*
X102063551Y-103333551D01*
X101921716Y-103506377D01*
X101816324Y-103703553D01*
X101751423Y-103917501D01*
X101729509Y-104140000D01*
X101735000Y-104195752D01*
X101735001Y-118054239D01*
X101729509Y-118110000D01*
X101751423Y-118332498D01*
X101816324Y-118546446D01*
X101865384Y-118638230D01*
X101921717Y-118743623D01*
X102063552Y-118916449D01*
X102106860Y-118951991D01*
X105838013Y-122683146D01*
X105873551Y-122726449D01*
X105916854Y-122761987D01*
X105916856Y-122761989D01*
X106046377Y-122868284D01*
X106243553Y-122973676D01*
X106457501Y-123038577D01*
X106680000Y-123060491D01*
X106735752Y-123055000D01*
X140499869Y-123055000D01*
X143611188Y-126166320D01*
X143510000Y-126317759D01*
X143354637Y-126085241D01*
X143154759Y-125885363D01*
X142919727Y-125728320D01*
X142658574Y-125620147D01*
X142381335Y-125565000D01*
X142098665Y-125565000D01*
X141821426Y-125620147D01*
X141560273Y-125728320D01*
X141325241Y-125885363D01*
X141125363Y-126085241D01*
X140970000Y-126317759D01*
X140814637Y-126085241D01*
X140614759Y-125885363D01*
X140379727Y-125728320D01*
X140118574Y-125620147D01*
X139841335Y-125565000D01*
X139558665Y-125565000D01*
X139281426Y-125620147D01*
X139020273Y-125728320D01*
X138785241Y-125885363D01*
X138585363Y-126085241D01*
X138430000Y-126317759D01*
X138295000Y-126115716D01*
X138295000Y-125785743D01*
X138300490Y-125729999D01*
X138295000Y-125674255D01*
X138295000Y-125674248D01*
X138278577Y-125507501D01*
X138213676Y-125293553D01*
X138108284Y-125096377D01*
X137966449Y-124923551D01*
X137923140Y-124888008D01*
X136731996Y-123696865D01*
X136696449Y-123653551D01*
X136523623Y-123511716D01*
X136326447Y-123406324D01*
X136112499Y-123341423D01*
X135945752Y-123325000D01*
X135945751Y-123325000D01*
X135890000Y-123319509D01*
X135834249Y-123325000D01*
X105880132Y-123325000D01*
X101465000Y-118909869D01*
X101465000Y-100818521D01*
X101554010Y-101033411D01*
X101716525Y-101276632D01*
X101923368Y-101483475D01*
X102166589Y-101645990D01*
X102436842Y-101757932D01*
X102723740Y-101815000D01*
X103016260Y-101815000D01*
X103303158Y-101757932D01*
X103573411Y-101645990D01*
X103816632Y-101483475D01*
X103948487Y-101351620D01*
X103970498Y-101424180D01*
X104029463Y-101534494D01*
X104108815Y-101631185D01*
X104205506Y-101710537D01*
X104315820Y-101769502D01*
X104435518Y-101805812D01*
X104560000Y-101818072D01*
X105124250Y-101815000D01*
X105283000Y-101656250D01*
X105283000Y-100457000D01*
X105537000Y-100457000D01*
X105537000Y-101656250D01*
X105695750Y-101815000D01*
X106260000Y-101818072D01*
X106384482Y-101805812D01*
X106504180Y-101769502D01*
X106614494Y-101710537D01*
X106711185Y-101631185D01*
X106790537Y-101534494D01*
X106849502Y-101424180D01*
X106885812Y-101304482D01*
X106898072Y-101180000D01*
X106895000Y-100615750D01*
X106736250Y-100457000D01*
X105537000Y-100457000D01*
X105283000Y-100457000D01*
X105263000Y-100457000D01*
X105263000Y-100203000D01*
X105283000Y-100203000D01*
X105283000Y-99003750D01*
X105537000Y-99003750D01*
X105537000Y-100203000D01*
X106736250Y-100203000D01*
X106895000Y-100044250D01*
X106898072Y-99480000D01*
X106885812Y-99355518D01*
X106849502Y-99235820D01*
X106790537Y-99125506D01*
X106711185Y-99028815D01*
X106614494Y-98949463D01*
X106504180Y-98890498D01*
X106384482Y-98854188D01*
X106260000Y-98841928D01*
X105695750Y-98845000D01*
X105537000Y-99003750D01*
X105283000Y-99003750D01*
X105124250Y-98845000D01*
X104560000Y-98841928D01*
X104435518Y-98854188D01*
X104315820Y-98890498D01*
X104205506Y-98949463D01*
X104108815Y-99028815D01*
X104029463Y-99125506D01*
X104005000Y-99171272D01*
X104005000Y-93594284D01*
X104141680Y-93389727D01*
X104249853Y-93128574D01*
X104305000Y-92851335D01*
X104305000Y-92568665D01*
X104249853Y-92291426D01*
X104141680Y-92030273D01*
X103984637Y-91795241D01*
X103784759Y-91595363D01*
X103549727Y-91438320D01*
X103288574Y-91330147D01*
X103011335Y-91275000D01*
X102728665Y-91275000D01*
X102451426Y-91330147D01*
X102190273Y-91438320D01*
X101955241Y-91595363D01*
X101755363Y-91795241D01*
X101598320Y-92030273D01*
X101490147Y-92291426D01*
X101465000Y-92417847D01*
X101465000Y-63846132D01*
X101534382Y-63903073D01*
X101795972Y-64042896D01*
X102079814Y-64128999D01*
X102375000Y-64158072D01*
X104125000Y-64158072D01*
X104420186Y-64128999D01*
X104704028Y-64042896D01*
X104965618Y-63903073D01*
X105194903Y-63714903D01*
X105383073Y-63485618D01*
X105522896Y-63224028D01*
X105561928Y-63095357D01*
X105561928Y-65552941D01*
G37*
%TD.AperFunction*%
D27*
X118265363Y-112674759D02*
X118465241Y-112874637D01*
X118700273Y-113031680D01*
X118961426Y-113139853D01*
X119087847Y-113165000D01*
X117132153Y-113165000D01*
X117258574Y-113139853D01*
X117519727Y-113031680D01*
X117754759Y-112874637D01*
X117954637Y-112674759D01*
X118110000Y-112442241D01*
X118265363Y-112674759D01*
%TA.AperFunction,Conductor*%
D28*
G36*
X118265363Y-112674759D02*
G01*
X118465241Y-112874637D01*
X118700273Y-113031680D01*
X118961426Y-113139853D01*
X119087847Y-113165000D01*
X117132153Y-113165000D01*
X117258574Y-113139853D01*
X117519727Y-113031680D01*
X117754759Y-112874637D01*
X117954637Y-112674759D01*
X118110000Y-112442241D01*
X118265363Y-112674759D01*
G37*
%TD.AperFunction*%
D27*
X113185363Y-112674759D02*
X113385241Y-112874637D01*
X113620273Y-113031680D01*
X113881426Y-113139853D01*
X114007847Y-113165000D01*
X112052153Y-113165000D01*
X112178574Y-113139853D01*
X112439727Y-113031680D01*
X112674759Y-112874637D01*
X112874637Y-112674759D01*
X113030000Y-112442241D01*
X113185363Y-112674759D01*
%TA.AperFunction,Conductor*%
D28*
G36*
X113185363Y-112674759D02*
G01*
X113385241Y-112874637D01*
X113620273Y-113031680D01*
X113881426Y-113139853D01*
X114007847Y-113165000D01*
X112052153Y-113165000D01*
X112178574Y-113139853D01*
X112439727Y-113031680D01*
X112674759Y-112874637D01*
X112874637Y-112674759D01*
X113030000Y-112442241D01*
X113185363Y-112674759D01*
G37*
%TD.AperFunction*%
D27*
X132227399Y-87597161D02*
X132072834Y-87833517D01*
X131967350Y-88095486D01*
X131915000Y-88373000D01*
X131915000Y-88773000D01*
X133223000Y-88773000D01*
X133223000Y-88753000D01*
X133477000Y-88753000D01*
X133477000Y-88773000D01*
X133497000Y-88773000D01*
X133497000Y-89027000D01*
X133477000Y-89027000D01*
X133477000Y-89047000D01*
X133223000Y-89047000D01*
X133223000Y-89027000D01*
X131915000Y-89027000D01*
X131915000Y-89427000D01*
X131967350Y-89704514D01*
X132072834Y-89966483D01*
X132227399Y-90202839D01*
X132327556Y-90305000D01*
X132135751Y-90305000D01*
X132079999Y-90299509D01*
X131857500Y-90321423D01*
X131807705Y-90336529D01*
X131643553Y-90386324D01*
X131446377Y-90491716D01*
X131273551Y-90633551D01*
X131238009Y-90676859D01*
X113536860Y-108378009D01*
X113493552Y-108413551D01*
X113351717Y-108586377D01*
X113295384Y-108691770D01*
X113246324Y-108783554D01*
X113181423Y-108997502D01*
X113159509Y-109220000D01*
X113165001Y-109275761D01*
X113165000Y-110875716D01*
X113030000Y-111077759D01*
X112874637Y-110845241D01*
X112674759Y-110645363D01*
X112439727Y-110488320D01*
X112178574Y-110380147D01*
X111901335Y-110325000D01*
X111618665Y-110325000D01*
X111341426Y-110380147D01*
X111080273Y-110488320D01*
X110845241Y-110645363D01*
X110645363Y-110845241D01*
X110490000Y-111077759D01*
X110334637Y-110845241D01*
X110134759Y-110645363D01*
X109899727Y-110488320D01*
X109638574Y-110380147D01*
X109361335Y-110325000D01*
X109078665Y-110325000D01*
X108801426Y-110380147D01*
X108540273Y-110488320D01*
X108305241Y-110645363D01*
X108105363Y-110845241D01*
X107948320Y-111080273D01*
X107840147Y-111341426D01*
X107815000Y-111467847D01*
X107815000Y-107815000D01*
X109164249Y-107815000D01*
X109220000Y-107820491D01*
X109275751Y-107815000D01*
X109275752Y-107815000D01*
X109442499Y-107798577D01*
X109656447Y-107733676D01*
X109853623Y-107628284D01*
X110026449Y-107486449D01*
X110061996Y-107443135D01*
X116411988Y-101093144D01*
X116411992Y-101093139D01*
X118951988Y-98553144D01*
X118951993Y-98553138D01*
X130010132Y-87495000D01*
X132327556Y-87495000D01*
X132227399Y-87597161D01*
%TA.AperFunction,Conductor*%
D28*
G36*
X132227399Y-87597161D02*
G01*
X132072834Y-87833517D01*
X131967350Y-88095486D01*
X131915000Y-88373000D01*
X131915000Y-88773000D01*
X133223000Y-88773000D01*
X133223000Y-88753000D01*
X133477000Y-88753000D01*
X133477000Y-88773000D01*
X133497000Y-88773000D01*
X133497000Y-89027000D01*
X133477000Y-89027000D01*
X133477000Y-89047000D01*
X133223000Y-89047000D01*
X133223000Y-89027000D01*
X131915000Y-89027000D01*
X131915000Y-89427000D01*
X131967350Y-89704514D01*
X132072834Y-89966483D01*
X132227399Y-90202839D01*
X132327556Y-90305000D01*
X132135751Y-90305000D01*
X132079999Y-90299509D01*
X131857500Y-90321423D01*
X131807705Y-90336529D01*
X131643553Y-90386324D01*
X131446377Y-90491716D01*
X131273551Y-90633551D01*
X131238009Y-90676859D01*
X113536860Y-108378009D01*
X113493552Y-108413551D01*
X113351717Y-108586377D01*
X113295384Y-108691770D01*
X113246324Y-108783554D01*
X113181423Y-108997502D01*
X113159509Y-109220000D01*
X113165001Y-109275761D01*
X113165000Y-110875716D01*
X113030000Y-111077759D01*
X112874637Y-110845241D01*
X112674759Y-110645363D01*
X112439727Y-110488320D01*
X112178574Y-110380147D01*
X111901335Y-110325000D01*
X111618665Y-110325000D01*
X111341426Y-110380147D01*
X111080273Y-110488320D01*
X110845241Y-110645363D01*
X110645363Y-110845241D01*
X110490000Y-111077759D01*
X110334637Y-110845241D01*
X110134759Y-110645363D01*
X109899727Y-110488320D01*
X109638574Y-110380147D01*
X109361335Y-110325000D01*
X109078665Y-110325000D01*
X108801426Y-110380147D01*
X108540273Y-110488320D01*
X108305241Y-110645363D01*
X108105363Y-110845241D01*
X107948320Y-111080273D01*
X107840147Y-111341426D01*
X107815000Y-111467847D01*
X107815000Y-107815000D01*
X109164249Y-107815000D01*
X109220000Y-107820491D01*
X109275751Y-107815000D01*
X109275752Y-107815000D01*
X109442499Y-107798577D01*
X109656447Y-107733676D01*
X109853623Y-107628284D01*
X110026449Y-107486449D01*
X110061996Y-107443135D01*
X116411988Y-101093144D01*
X116411992Y-101093139D01*
X118951988Y-98553144D01*
X118951993Y-98553138D01*
X130010132Y-87495000D01*
X132327556Y-87495000D01*
X132227399Y-87597161D01*
G37*
%TD.AperFunction*%
D27*
X165528009Y-68073141D02*
X165563551Y-68116449D01*
X165736377Y-68258284D01*
X165933553Y-68363676D01*
X166147501Y-68428577D01*
X166369999Y-68450491D01*
X166425751Y-68445000D01*
X187489869Y-68445000D01*
X189365000Y-70320132D01*
X189365001Y-76144240D01*
X189365000Y-76144248D01*
X189365000Y-77525751D01*
X189365001Y-77525761D01*
X189365000Y-82692805D01*
X189285752Y-82685000D01*
X189285751Y-82685000D01*
X189230000Y-82679509D01*
X189174249Y-82685000D01*
X181224284Y-82685000D01*
X181019727Y-82548320D01*
X180758574Y-82440147D01*
X180481335Y-82385000D01*
X180198665Y-82385000D01*
X179921426Y-82440147D01*
X179660273Y-82548320D01*
X179425241Y-82705363D01*
X179225363Y-82905241D01*
X179068320Y-83140273D01*
X178960147Y-83401426D01*
X178905000Y-83678665D01*
X178905000Y-83961335D01*
X178960147Y-84238574D01*
X179068320Y-84499727D01*
X179225363Y-84734759D01*
X179425241Y-84934637D01*
X179660273Y-85091680D01*
X179921426Y-85199853D01*
X180198665Y-85255000D01*
X180481335Y-85255000D01*
X180758574Y-85199853D01*
X181019727Y-85091680D01*
X181224284Y-84955000D01*
X188759869Y-84955000D01*
X189365001Y-85560133D01*
X189365000Y-97901273D01*
X189340537Y-97855506D01*
X189261185Y-97758815D01*
X189164494Y-97679463D01*
X189054180Y-97620498D01*
X188934482Y-97584188D01*
X188810000Y-97571928D01*
X187110000Y-97571928D01*
X186985518Y-97584188D01*
X186865820Y-97620498D01*
X186755506Y-97679463D01*
X186658815Y-97758815D01*
X186579463Y-97855506D01*
X186520498Y-97965820D01*
X186484188Y-98085518D01*
X186471928Y-98210000D01*
X186471928Y-99910000D01*
X186484188Y-100034482D01*
X186520498Y-100154180D01*
X186579463Y-100264494D01*
X186658815Y-100361185D01*
X186755506Y-100440537D01*
X186865820Y-100499502D01*
X186938380Y-100521513D01*
X186806525Y-100653368D01*
X186644010Y-100896589D01*
X186532068Y-101166842D01*
X186475000Y-101453740D01*
X186475000Y-101746260D01*
X186532068Y-102033158D01*
X186644010Y-102303411D01*
X186806525Y-102546632D01*
X187013368Y-102753475D01*
X187187760Y-102870000D01*
X187013368Y-102986525D01*
X186806525Y-103193368D01*
X186644010Y-103436589D01*
X186532068Y-103706842D01*
X186475000Y-103993740D01*
X186475000Y-104019868D01*
X184949869Y-105545000D01*
X184015000Y-105545000D01*
X184015000Y-95305751D01*
X184020491Y-95249999D01*
X183998577Y-95027500D01*
X183983471Y-94977705D01*
X183933676Y-94813553D01*
X183828284Y-94616377D01*
X183686449Y-94443551D01*
X183643141Y-94408009D01*
X177665000Y-88429869D01*
X177665000Y-79875000D01*
X184094249Y-79875000D01*
X184150000Y-79880491D01*
X184372499Y-79858577D01*
X184586447Y-79793676D01*
X184783623Y-79688284D01*
X184956449Y-79546449D01*
X185098284Y-79373623D01*
X185203676Y-79176447D01*
X185268577Y-78962499D01*
X185285000Y-78795752D01*
X185290491Y-78740000D01*
X185285000Y-78684248D01*
X185285000Y-73715741D01*
X185290490Y-73659999D01*
X185285000Y-73604257D01*
X185285000Y-73604248D01*
X185268577Y-73437501D01*
X185203676Y-73223553D01*
X185098284Y-73026377D01*
X184956449Y-72853551D01*
X184913141Y-72818009D01*
X182451996Y-70356865D01*
X182416449Y-70313551D01*
X182243623Y-70171716D01*
X182046447Y-70066324D01*
X181832499Y-70001423D01*
X181665752Y-69985000D01*
X181665751Y-69985000D01*
X181610000Y-69979509D01*
X181554249Y-69985000D01*
X170235752Y-69985000D01*
X170180000Y-69979509D01*
X170124248Y-69985000D01*
X169957501Y-70001423D01*
X169743553Y-70066324D01*
X169546377Y-70171716D01*
X169373551Y-70313551D01*
X169338011Y-70356857D01*
X159549869Y-80145000D01*
X151185752Y-80145000D01*
X151130000Y-80139509D01*
X151074249Y-80145000D01*
X151074248Y-80145000D01*
X150907501Y-80161423D01*
X150693553Y-80226324D01*
X150496377Y-80331716D01*
X150323551Y-80473551D01*
X150181716Y-80646377D01*
X150076324Y-80843553D01*
X150011423Y-81057501D01*
X149989509Y-81280000D01*
X149995001Y-81335762D01*
X149995000Y-87159043D01*
X149975506Y-87169463D01*
X149878815Y-87248815D01*
X149799463Y-87345506D01*
X149740498Y-87455820D01*
X149704188Y-87575518D01*
X149702419Y-87593482D01*
X149609608Y-87480392D01*
X149391101Y-87301068D01*
X149141808Y-87167818D01*
X148871309Y-87085764D01*
X148590000Y-87058057D01*
X148308692Y-87085764D01*
X148205000Y-87117218D01*
X148205000Y-86403477D01*
X148209282Y-86360000D01*
X148192195Y-86186510D01*
X148141589Y-86019687D01*
X148059411Y-85865941D01*
X147948817Y-85731183D01*
X147814059Y-85620589D01*
X147660313Y-85538411D01*
X147493490Y-85487805D01*
X147363477Y-85475000D01*
X147320000Y-85470718D01*
X147276524Y-85475000D01*
X142283465Y-85475000D01*
X142239999Y-85470719D01*
X142196533Y-85475000D01*
X142196523Y-85475000D01*
X142066510Y-85487805D01*
X141899687Y-85538411D01*
X141745941Y-85620589D01*
X141745939Y-85620590D01*
X141745940Y-85620590D01*
X141644953Y-85703468D01*
X141644951Y-85703470D01*
X141611183Y-85731183D01*
X141583470Y-85764951D01*
X140374956Y-86973466D01*
X140341183Y-87001183D01*
X140230589Y-87135942D01*
X140148411Y-87289688D01*
X140142770Y-87308284D01*
X140137024Y-87327228D01*
X139950393Y-87480392D01*
X139771068Y-87698899D01*
X139702735Y-87826741D01*
X139552601Y-87597161D01*
X139354895Y-87395500D01*
X139121646Y-87236285D01*
X138861818Y-87125633D01*
X138779039Y-87108096D01*
X138557000Y-87230085D01*
X138557000Y-88773000D01*
X138577000Y-88773000D01*
X138577000Y-89027000D01*
X138557000Y-89027000D01*
X138557000Y-89047000D01*
X138303000Y-89047000D01*
X138303000Y-89027000D01*
X138283000Y-89027000D01*
X138283000Y-88773000D01*
X138303000Y-88773000D01*
X138303000Y-87230085D01*
X138080961Y-87108096D01*
X137998182Y-87125633D01*
X137738354Y-87236285D01*
X137505105Y-87395500D01*
X137307399Y-87597161D01*
X137157265Y-87826741D01*
X137088932Y-87698899D01*
X137030231Y-87627372D01*
X137025000Y-87574255D01*
X137025000Y-87574248D01*
X137008577Y-87407501D01*
X136943676Y-87193553D01*
X136838284Y-86996377D01*
X136696449Y-86823551D01*
X136653140Y-86788008D01*
X135461996Y-85596865D01*
X135426449Y-85553551D01*
X135253623Y-85411716D01*
X135056447Y-85306324D01*
X134842499Y-85241423D01*
X134675752Y-85225000D01*
X134675751Y-85225000D01*
X134620000Y-85219509D01*
X134564249Y-85225000D01*
X130010132Y-85225000D01*
X116705000Y-71919869D01*
X116705000Y-60540000D01*
X121701928Y-60540000D01*
X121714188Y-60664482D01*
X121750498Y-60784180D01*
X121809463Y-60894494D01*
X121888815Y-60991185D01*
X121985506Y-61070537D01*
X122095820Y-61129502D01*
X122168380Y-61151513D01*
X122036525Y-61283368D01*
X121874010Y-61526589D01*
X121762068Y-61796842D01*
X121705000Y-62083740D01*
X121705000Y-62376260D01*
X121762068Y-62663158D01*
X121874010Y-62933411D01*
X122036525Y-63176632D01*
X122055000Y-63195107D01*
X122055001Y-72380997D01*
X121991068Y-72458899D01*
X121857818Y-72708192D01*
X121775764Y-72978691D01*
X121755000Y-73189508D01*
X121755000Y-74130491D01*
X121775764Y-74341308D01*
X121857818Y-74611807D01*
X121991068Y-74861100D01*
X122170392Y-75079607D01*
X122388899Y-75258932D01*
X122638192Y-75392182D01*
X122908691Y-75474236D01*
X123190000Y-75501943D01*
X123471308Y-75474236D01*
X123741807Y-75392182D01*
X123991100Y-75258932D01*
X124209607Y-75079608D01*
X124388932Y-74861101D01*
X124460000Y-74728142D01*
X124531068Y-74861100D01*
X124710392Y-75079607D01*
X124928899Y-75258932D01*
X125178192Y-75392182D01*
X125448691Y-75474236D01*
X125730000Y-75501943D01*
X126011308Y-75474236D01*
X126281807Y-75392182D01*
X126531100Y-75258932D01*
X126749607Y-75079608D01*
X126928932Y-74861101D01*
X127000000Y-74728142D01*
X127071068Y-74861100D01*
X127250392Y-75079607D01*
X127468899Y-75258932D01*
X127718192Y-75392182D01*
X127988691Y-75474236D01*
X128270000Y-75501943D01*
X128551308Y-75474236D01*
X128821807Y-75392182D01*
X129071100Y-75258932D01*
X129289607Y-75079608D01*
X129468932Y-74861101D01*
X129540000Y-74728142D01*
X129611068Y-74861100D01*
X129790392Y-75079607D01*
X130008899Y-75258932D01*
X130258192Y-75392182D01*
X130528691Y-75474236D01*
X130810000Y-75501943D01*
X131091308Y-75474236D01*
X131361807Y-75392182D01*
X131611100Y-75258932D01*
X131829607Y-75079608D01*
X132008932Y-74861101D01*
X132080000Y-74728142D01*
X132151068Y-74861100D01*
X132330392Y-75079607D01*
X132548899Y-75258932D01*
X132798192Y-75392182D01*
X133068691Y-75474236D01*
X133350000Y-75501943D01*
X133631308Y-75474236D01*
X133901807Y-75392182D01*
X134151100Y-75258932D01*
X134369607Y-75079608D01*
X134548932Y-74861101D01*
X134620000Y-74728142D01*
X134691068Y-74861100D01*
X134870392Y-75079607D01*
X135088899Y-75258932D01*
X135338192Y-75392182D01*
X135608691Y-75474236D01*
X135890000Y-75501943D01*
X136171308Y-75474236D01*
X136441807Y-75392182D01*
X136691100Y-75258932D01*
X136909607Y-75079608D01*
X137088932Y-74861101D01*
X137160000Y-74728142D01*
X137231068Y-74861100D01*
X137410392Y-75079607D01*
X137628899Y-75258932D01*
X137878192Y-75392182D01*
X138148691Y-75474236D01*
X138430000Y-75501943D01*
X138711308Y-75474236D01*
X138981807Y-75392182D01*
X139231100Y-75258932D01*
X139449607Y-75079608D01*
X139628932Y-74861101D01*
X139700000Y-74728142D01*
X139771068Y-74861100D01*
X139950392Y-75079607D01*
X140168899Y-75258932D01*
X140418192Y-75392182D01*
X140688691Y-75474236D01*
X140970000Y-75501943D01*
X141251308Y-75474236D01*
X141521807Y-75392182D01*
X141771100Y-75258932D01*
X141989607Y-75079608D01*
X142168932Y-74861101D01*
X142240000Y-74728142D01*
X142311068Y-74861100D01*
X142490392Y-75079607D01*
X142708899Y-75258932D01*
X142958192Y-75392182D01*
X143228691Y-75474236D01*
X143510000Y-75501943D01*
X143791308Y-75474236D01*
X144061807Y-75392182D01*
X144311100Y-75258932D01*
X144529607Y-75079608D01*
X144708932Y-74861101D01*
X144780000Y-74728142D01*
X144851068Y-74861100D01*
X145030392Y-75079607D01*
X145248899Y-75258932D01*
X145498192Y-75392182D01*
X145768691Y-75474236D01*
X146050000Y-75501943D01*
X146331308Y-75474236D01*
X146601807Y-75392182D01*
X146851100Y-75258932D01*
X147069607Y-75079608D01*
X147248932Y-74861101D01*
X147320000Y-74728142D01*
X147391068Y-74861100D01*
X147570392Y-75079607D01*
X147788899Y-75258932D01*
X148038192Y-75392182D01*
X148308691Y-75474236D01*
X148590000Y-75501943D01*
X148871308Y-75474236D01*
X149141807Y-75392182D01*
X149391100Y-75258932D01*
X149609607Y-75079608D01*
X149788932Y-74861101D01*
X149860000Y-74728142D01*
X149931068Y-74861100D01*
X150110392Y-75079607D01*
X150328899Y-75258932D01*
X150578192Y-75392182D01*
X150848691Y-75474236D01*
X151130000Y-75501943D01*
X151411308Y-75474236D01*
X151681807Y-75392182D01*
X151931100Y-75258932D01*
X152149607Y-75079608D01*
X152328932Y-74861101D01*
X152400000Y-74728142D01*
X152471068Y-74861100D01*
X152650392Y-75079607D01*
X152868899Y-75258932D01*
X153118192Y-75392182D01*
X153388691Y-75474236D01*
X153670000Y-75501943D01*
X153951308Y-75474236D01*
X154221807Y-75392182D01*
X154471100Y-75258932D01*
X154689607Y-75079608D01*
X154868932Y-74861101D01*
X154940000Y-74728142D01*
X155011068Y-74861100D01*
X155190392Y-75079607D01*
X155408899Y-75258932D01*
X155658192Y-75392182D01*
X155928691Y-75474236D01*
X156210000Y-75501943D01*
X156491308Y-75474236D01*
X156761807Y-75392182D01*
X157011100Y-75258932D01*
X157229607Y-75079608D01*
X157408932Y-74861101D01*
X157480000Y-74728142D01*
X157551068Y-74861100D01*
X157730392Y-75079607D01*
X157948899Y-75258932D01*
X158198192Y-75392182D01*
X158468691Y-75474236D01*
X158750000Y-75501943D01*
X159031308Y-75474236D01*
X159301807Y-75392182D01*
X159551100Y-75258932D01*
X159769607Y-75079608D01*
X159948932Y-74861101D01*
X160020000Y-74728142D01*
X160091068Y-74861100D01*
X160270392Y-75079607D01*
X160488899Y-75258932D01*
X160738192Y-75392182D01*
X161008691Y-75474236D01*
X161290000Y-75501943D01*
X161571308Y-75474236D01*
X161841807Y-75392182D01*
X162091100Y-75258932D01*
X162309607Y-75079608D01*
X162488932Y-74861101D01*
X162622182Y-74611808D01*
X162704236Y-74341309D01*
X162725000Y-74130492D01*
X162725000Y-73189509D01*
X162704236Y-72978691D01*
X162622182Y-72708192D01*
X162488932Y-72458899D01*
X162309608Y-72240392D01*
X162091101Y-72061068D01*
X161841808Y-71927818D01*
X161571309Y-71845764D01*
X161290000Y-71818057D01*
X161008692Y-71845764D01*
X160738193Y-71927818D01*
X160488900Y-72061068D01*
X160270393Y-72240392D01*
X160091068Y-72458899D01*
X160020000Y-72591858D01*
X159948932Y-72458899D01*
X159769608Y-72240392D01*
X159551101Y-72061068D01*
X159301808Y-71927818D01*
X159031309Y-71845764D01*
X158750000Y-71818057D01*
X158468692Y-71845764D01*
X158198193Y-71927818D01*
X157948900Y-72061068D01*
X157730393Y-72240392D01*
X157551068Y-72458899D01*
X157480000Y-72591858D01*
X157408932Y-72458899D01*
X157229608Y-72240392D01*
X157011101Y-72061068D01*
X156761808Y-71927818D01*
X156491309Y-71845764D01*
X156210000Y-71818057D01*
X155928692Y-71845764D01*
X155658193Y-71927818D01*
X155408900Y-72061068D01*
X155190393Y-72240392D01*
X155011068Y-72458899D01*
X154940000Y-72591858D01*
X154868932Y-72458899D01*
X154689608Y-72240392D01*
X154471101Y-72061068D01*
X154221808Y-71927818D01*
X153951309Y-71845764D01*
X153670000Y-71818057D01*
X153388692Y-71845764D01*
X153118193Y-71927818D01*
X152868900Y-72061068D01*
X152650393Y-72240392D01*
X152471068Y-72458899D01*
X152400000Y-72591858D01*
X152328932Y-72458899D01*
X152149608Y-72240392D01*
X151931101Y-72061068D01*
X151681808Y-71927818D01*
X151411309Y-71845764D01*
X151130000Y-71818057D01*
X150848692Y-71845764D01*
X150578193Y-71927818D01*
X150328900Y-72061068D01*
X150110393Y-72240392D01*
X149931068Y-72458899D01*
X149860000Y-72591858D01*
X149788932Y-72458899D01*
X149609608Y-72240392D01*
X149391101Y-72061068D01*
X149141808Y-71927818D01*
X148871309Y-71845764D01*
X148590000Y-71818057D01*
X148308692Y-71845764D01*
X148038193Y-71927818D01*
X147788900Y-72061068D01*
X147570393Y-72240392D01*
X147391068Y-72458899D01*
X147320000Y-72591858D01*
X147248932Y-72458899D01*
X147069608Y-72240392D01*
X146851101Y-72061068D01*
X146601808Y-71927818D01*
X146331309Y-71845764D01*
X146050000Y-71818057D01*
X145768692Y-71845764D01*
X145498193Y-71927818D01*
X145248900Y-72061068D01*
X145030393Y-72240392D01*
X144851068Y-72458899D01*
X144780000Y-72591858D01*
X144708932Y-72458899D01*
X144529608Y-72240392D01*
X144311101Y-72061068D01*
X144061808Y-71927818D01*
X143791309Y-71845764D01*
X143510000Y-71818057D01*
X143228692Y-71845764D01*
X142958193Y-71927818D01*
X142708900Y-72061068D01*
X142490393Y-72240392D01*
X142311068Y-72458899D01*
X142240000Y-72591858D01*
X142168932Y-72458899D01*
X141989608Y-72240392D01*
X141771101Y-72061068D01*
X141521808Y-71927818D01*
X141251309Y-71845764D01*
X140970000Y-71818057D01*
X140688692Y-71845764D01*
X140418193Y-71927818D01*
X140168900Y-72061068D01*
X139950393Y-72240392D01*
X139771068Y-72458899D01*
X139700000Y-72591858D01*
X139628932Y-72458899D01*
X139449608Y-72240392D01*
X139231101Y-72061068D01*
X138981808Y-71927818D01*
X138711309Y-71845764D01*
X138430000Y-71818057D01*
X138148692Y-71845764D01*
X137878193Y-71927818D01*
X137628900Y-72061068D01*
X137410393Y-72240392D01*
X137231068Y-72458899D01*
X137160000Y-72591858D01*
X137088932Y-72458899D01*
X136909608Y-72240392D01*
X136691101Y-72061068D01*
X136441808Y-71927818D01*
X136171309Y-71845764D01*
X135890000Y-71818057D01*
X135608692Y-71845764D01*
X135338193Y-71927818D01*
X135088900Y-72061068D01*
X134870393Y-72240392D01*
X134691068Y-72458899D01*
X134620000Y-72591858D01*
X134548932Y-72458899D01*
X134369608Y-72240392D01*
X134151101Y-72061068D01*
X133901808Y-71927818D01*
X133631309Y-71845764D01*
X133350000Y-71818057D01*
X133068692Y-71845764D01*
X132911765Y-71893367D01*
X133820132Y-70985000D01*
X134564248Y-70985000D01*
X134620000Y-70990491D01*
X134675751Y-70985000D01*
X134675752Y-70985000D01*
X134842499Y-70968577D01*
X135056447Y-70903676D01*
X135253623Y-70798284D01*
X135426449Y-70656449D01*
X135568284Y-70483623D01*
X135673676Y-70286447D01*
X135738577Y-70072499D01*
X135760491Y-69850000D01*
X135755000Y-69794248D01*
X135755000Y-63195107D01*
X135773475Y-63176632D01*
X135935990Y-62933411D01*
X136047932Y-62663158D01*
X136105000Y-62376260D01*
X136105000Y-62083740D01*
X136047932Y-61796842D01*
X135935990Y-61526589D01*
X135773475Y-61283368D01*
X135641620Y-61151513D01*
X135714180Y-61129502D01*
X135824494Y-61070537D01*
X135921185Y-60991185D01*
X136000537Y-60894494D01*
X136059502Y-60784180D01*
X136095812Y-60664482D01*
X136108072Y-60540000D01*
X136105000Y-59975750D01*
X135946250Y-59817000D01*
X134747000Y-59817000D01*
X134747000Y-59837000D01*
X134493000Y-59837000D01*
X134493000Y-59817000D01*
X133293750Y-59817000D01*
X133135000Y-59975750D01*
X133131928Y-60540000D01*
X133144188Y-60664482D01*
X133180498Y-60784180D01*
X133239463Y-60894494D01*
X133318815Y-60991185D01*
X133415506Y-61070537D01*
X133525820Y-61129502D01*
X133598380Y-61151513D01*
X133466525Y-61283368D01*
X133304010Y-61526589D01*
X133192068Y-61796842D01*
X133135000Y-62083740D01*
X133135000Y-62376260D01*
X133192068Y-62663158D01*
X133304010Y-62933411D01*
X133466525Y-63176632D01*
X133485001Y-63195108D01*
X133485000Y-68715000D01*
X133405741Y-68715000D01*
X133349999Y-68709510D01*
X133294257Y-68715000D01*
X133294248Y-68715000D01*
X133127501Y-68731423D01*
X132913553Y-68796324D01*
X132716377Y-68901716D01*
X132543551Y-69043551D01*
X132508009Y-69086859D01*
X131945000Y-69649868D01*
X131945000Y-63195107D01*
X131963475Y-63176632D01*
X132125990Y-62933411D01*
X132237932Y-62663158D01*
X132295000Y-62376260D01*
X132295000Y-62083740D01*
X132237932Y-61796842D01*
X132125990Y-61526589D01*
X131963475Y-61283368D01*
X131831620Y-61151513D01*
X131904180Y-61129502D01*
X132014494Y-61070537D01*
X132111185Y-60991185D01*
X132190537Y-60894494D01*
X132249502Y-60784180D01*
X132285812Y-60664482D01*
X132298072Y-60540000D01*
X132295000Y-59975750D01*
X132136250Y-59817000D01*
X130937000Y-59817000D01*
X130937000Y-59837000D01*
X130683000Y-59837000D01*
X130683000Y-59817000D01*
X129483750Y-59817000D01*
X129325000Y-59975750D01*
X129321928Y-60540000D01*
X129334188Y-60664482D01*
X129370498Y-60784180D01*
X129429463Y-60894494D01*
X129508815Y-60991185D01*
X129605506Y-61070537D01*
X129715820Y-61129502D01*
X129788380Y-61151513D01*
X129656525Y-61283368D01*
X129494010Y-61526589D01*
X129382068Y-61796842D01*
X129325000Y-62083740D01*
X129325000Y-62376260D01*
X129382068Y-62663158D01*
X129494010Y-62933411D01*
X129656525Y-63176632D01*
X129675000Y-63195107D01*
X129675001Y-68715000D01*
X129595743Y-68715000D01*
X129539999Y-68709510D01*
X129484255Y-68715000D01*
X129484248Y-68715000D01*
X129338493Y-68729356D01*
X129317500Y-68731423D01*
X129267705Y-68746529D01*
X129103553Y-68796324D01*
X128906377Y-68901716D01*
X128733551Y-69043551D01*
X128698008Y-69086860D01*
X128135000Y-69649868D01*
X128135000Y-63195107D01*
X128153475Y-63176632D01*
X128315990Y-62933411D01*
X128427932Y-62663158D01*
X128485000Y-62376260D01*
X128485000Y-62083740D01*
X128427932Y-61796842D01*
X128315990Y-61526589D01*
X128153475Y-61283368D01*
X128021620Y-61151513D01*
X128094180Y-61129502D01*
X128204494Y-61070537D01*
X128301185Y-60991185D01*
X128380537Y-60894494D01*
X128439502Y-60784180D01*
X128475812Y-60664482D01*
X128488072Y-60540000D01*
X128485000Y-59975750D01*
X128326250Y-59817000D01*
X127127000Y-59817000D01*
X127127000Y-59837000D01*
X126873000Y-59837000D01*
X126873000Y-59817000D01*
X125673750Y-59817000D01*
X125515000Y-59975750D01*
X125511928Y-60540000D01*
X125524188Y-60664482D01*
X125560498Y-60784180D01*
X125619463Y-60894494D01*
X125698815Y-60991185D01*
X125795506Y-61070537D01*
X125905820Y-61129502D01*
X125978380Y-61151513D01*
X125846525Y-61283368D01*
X125684010Y-61526589D01*
X125572068Y-61796842D01*
X125515000Y-62083740D01*
X125515000Y-62376260D01*
X125572068Y-62663158D01*
X125684010Y-62933411D01*
X125846525Y-63176632D01*
X125865000Y-63195107D01*
X125865001Y-69379867D01*
X124966865Y-70278004D01*
X124923551Y-70313551D01*
X124781716Y-70486377D01*
X124690812Y-70656448D01*
X124676324Y-70683554D01*
X124611423Y-70897502D01*
X124589509Y-71120000D01*
X124595000Y-71175752D01*
X124595000Y-72380997D01*
X124531068Y-72458899D01*
X124460000Y-72591858D01*
X124388932Y-72458899D01*
X124325000Y-72380998D01*
X124325000Y-63195107D01*
X124343475Y-63176632D01*
X124505990Y-62933411D01*
X124617932Y-62663158D01*
X124675000Y-62376260D01*
X124675000Y-62083740D01*
X124617932Y-61796842D01*
X124505990Y-61526589D01*
X124343475Y-61283368D01*
X124211620Y-61151513D01*
X124284180Y-61129502D01*
X124394494Y-61070537D01*
X124491185Y-60991185D01*
X124570537Y-60894494D01*
X124629502Y-60784180D01*
X124665812Y-60664482D01*
X124678072Y-60540000D01*
X124675000Y-59975750D01*
X124516250Y-59817000D01*
X123317000Y-59817000D01*
X123317000Y-59837000D01*
X123063000Y-59837000D01*
X123063000Y-59817000D01*
X121863750Y-59817000D01*
X121705000Y-59975750D01*
X121701928Y-60540000D01*
X116705000Y-60540000D01*
X116705000Y-58840000D01*
X121701928Y-58840000D01*
X121705000Y-59404250D01*
X121863750Y-59563000D01*
X123063000Y-59563000D01*
X123063000Y-58363750D01*
X123317000Y-58363750D01*
X123317000Y-59563000D01*
X124516250Y-59563000D01*
X124675000Y-59404250D01*
X124678072Y-58840000D01*
X125511928Y-58840000D01*
X125515000Y-59404250D01*
X125673750Y-59563000D01*
X126873000Y-59563000D01*
X126873000Y-58363750D01*
X127127000Y-58363750D01*
X127127000Y-59563000D01*
X128326250Y-59563000D01*
X128485000Y-59404250D01*
X128488072Y-58840000D01*
X129321928Y-58840000D01*
X129325000Y-59404250D01*
X129483750Y-59563000D01*
X130683000Y-59563000D01*
X130683000Y-58363750D01*
X130937000Y-58363750D01*
X130937000Y-59563000D01*
X132136250Y-59563000D01*
X132295000Y-59404250D01*
X132298072Y-58840000D01*
X133131928Y-58840000D01*
X133135000Y-59404250D01*
X133293750Y-59563000D01*
X134493000Y-59563000D01*
X134493000Y-58363750D01*
X134747000Y-58363750D01*
X134747000Y-59563000D01*
X135946250Y-59563000D01*
X136105000Y-59404250D01*
X136108072Y-58840000D01*
X136095812Y-58715518D01*
X136059502Y-58595820D01*
X136000537Y-58485506D01*
X135921185Y-58388815D01*
X135824494Y-58309463D01*
X135714180Y-58250498D01*
X135594482Y-58214188D01*
X135470000Y-58201928D01*
X134905750Y-58205000D01*
X134747000Y-58363750D01*
X134493000Y-58363750D01*
X134334250Y-58205000D01*
X133770000Y-58201928D01*
X133645518Y-58214188D01*
X133525820Y-58250498D01*
X133415506Y-58309463D01*
X133318815Y-58388815D01*
X133239463Y-58485506D01*
X133180498Y-58595820D01*
X133144188Y-58715518D01*
X133131928Y-58840000D01*
X132298072Y-58840000D01*
X132285812Y-58715518D01*
X132249502Y-58595820D01*
X132190537Y-58485506D01*
X132111185Y-58388815D01*
X132014494Y-58309463D01*
X131904180Y-58250498D01*
X131784482Y-58214188D01*
X131660000Y-58201928D01*
X131095750Y-58205000D01*
X130937000Y-58363750D01*
X130683000Y-58363750D01*
X130524250Y-58205000D01*
X129960000Y-58201928D01*
X129835518Y-58214188D01*
X129715820Y-58250498D01*
X129605506Y-58309463D01*
X129508815Y-58388815D01*
X129429463Y-58485506D01*
X129370498Y-58595820D01*
X129334188Y-58715518D01*
X129321928Y-58840000D01*
X128488072Y-58840000D01*
X128475812Y-58715518D01*
X128439502Y-58595820D01*
X128380537Y-58485506D01*
X128301185Y-58388815D01*
X128204494Y-58309463D01*
X128094180Y-58250498D01*
X127974482Y-58214188D01*
X127850000Y-58201928D01*
X127285750Y-58205000D01*
X127127000Y-58363750D01*
X126873000Y-58363750D01*
X126714250Y-58205000D01*
X126150000Y-58201928D01*
X126025518Y-58214188D01*
X125905820Y-58250498D01*
X125795506Y-58309463D01*
X125698815Y-58388815D01*
X125619463Y-58485506D01*
X125560498Y-58595820D01*
X125524188Y-58715518D01*
X125511928Y-58840000D01*
X124678072Y-58840000D01*
X124665812Y-58715518D01*
X124629502Y-58595820D01*
X124570537Y-58485506D01*
X124491185Y-58388815D01*
X124394494Y-58309463D01*
X124284180Y-58250498D01*
X124164482Y-58214188D01*
X124040000Y-58201928D01*
X123475750Y-58205000D01*
X123317000Y-58363750D01*
X123063000Y-58363750D01*
X122904250Y-58205000D01*
X122340000Y-58201928D01*
X122215518Y-58214188D01*
X122095820Y-58250498D01*
X121985506Y-58309463D01*
X121888815Y-58388815D01*
X121809463Y-58485506D01*
X121750498Y-58595820D01*
X121714188Y-58715518D01*
X121701928Y-58840000D01*
X116705000Y-58840000D01*
X116705000Y-57015000D01*
X154469869Y-57015000D01*
X165528009Y-68073141D01*
%TA.AperFunction,Conductor*%
D28*
G36*
X165528009Y-68073141D02*
G01*
X165563551Y-68116449D01*
X165736377Y-68258284D01*
X165933553Y-68363676D01*
X166147501Y-68428577D01*
X166369999Y-68450491D01*
X166425751Y-68445000D01*
X187489869Y-68445000D01*
X189365000Y-70320132D01*
X189365001Y-76144240D01*
X189365000Y-76144248D01*
X189365000Y-77525751D01*
X189365001Y-77525761D01*
X189365000Y-82692805D01*
X189285752Y-82685000D01*
X189285751Y-82685000D01*
X189230000Y-82679509D01*
X189174249Y-82685000D01*
X181224284Y-82685000D01*
X181019727Y-82548320D01*
X180758574Y-82440147D01*
X180481335Y-82385000D01*
X180198665Y-82385000D01*
X179921426Y-82440147D01*
X179660273Y-82548320D01*
X179425241Y-82705363D01*
X179225363Y-82905241D01*
X179068320Y-83140273D01*
X178960147Y-83401426D01*
X178905000Y-83678665D01*
X178905000Y-83961335D01*
X178960147Y-84238574D01*
X179068320Y-84499727D01*
X179225363Y-84734759D01*
X179425241Y-84934637D01*
X179660273Y-85091680D01*
X179921426Y-85199853D01*
X180198665Y-85255000D01*
X180481335Y-85255000D01*
X180758574Y-85199853D01*
X181019727Y-85091680D01*
X181224284Y-84955000D01*
X188759869Y-84955000D01*
X189365001Y-85560133D01*
X189365000Y-97901273D01*
X189340537Y-97855506D01*
X189261185Y-97758815D01*
X189164494Y-97679463D01*
X189054180Y-97620498D01*
X188934482Y-97584188D01*
X188810000Y-97571928D01*
X187110000Y-97571928D01*
X186985518Y-97584188D01*
X186865820Y-97620498D01*
X186755506Y-97679463D01*
X186658815Y-97758815D01*
X186579463Y-97855506D01*
X186520498Y-97965820D01*
X186484188Y-98085518D01*
X186471928Y-98210000D01*
X186471928Y-99910000D01*
X186484188Y-100034482D01*
X186520498Y-100154180D01*
X186579463Y-100264494D01*
X186658815Y-100361185D01*
X186755506Y-100440537D01*
X186865820Y-100499502D01*
X186938380Y-100521513D01*
X186806525Y-100653368D01*
X186644010Y-100896589D01*
X186532068Y-101166842D01*
X186475000Y-101453740D01*
X186475000Y-101746260D01*
X186532068Y-102033158D01*
X186644010Y-102303411D01*
X186806525Y-102546632D01*
X187013368Y-102753475D01*
X187187760Y-102870000D01*
X187013368Y-102986525D01*
X186806525Y-103193368D01*
X186644010Y-103436589D01*
X186532068Y-103706842D01*
X186475000Y-103993740D01*
X186475000Y-104019868D01*
X184949869Y-105545000D01*
X184015000Y-105545000D01*
X184015000Y-95305751D01*
X184020491Y-95249999D01*
X183998577Y-95027500D01*
X183983471Y-94977705D01*
X183933676Y-94813553D01*
X183828284Y-94616377D01*
X183686449Y-94443551D01*
X183643141Y-94408009D01*
X177665000Y-88429869D01*
X177665000Y-79875000D01*
X184094249Y-79875000D01*
X184150000Y-79880491D01*
X184372499Y-79858577D01*
X184586447Y-79793676D01*
X184783623Y-79688284D01*
X184956449Y-79546449D01*
X185098284Y-79373623D01*
X185203676Y-79176447D01*
X185268577Y-78962499D01*
X185285000Y-78795752D01*
X185290491Y-78740000D01*
X185285000Y-78684248D01*
X185285000Y-73715741D01*
X185290490Y-73659999D01*
X185285000Y-73604257D01*
X185285000Y-73604248D01*
X185268577Y-73437501D01*
X185203676Y-73223553D01*
X185098284Y-73026377D01*
X184956449Y-72853551D01*
X184913141Y-72818009D01*
X182451996Y-70356865D01*
X182416449Y-70313551D01*
X182243623Y-70171716D01*
X182046447Y-70066324D01*
X181832499Y-70001423D01*
X181665752Y-69985000D01*
X181665751Y-69985000D01*
X181610000Y-69979509D01*
X181554249Y-69985000D01*
X170235752Y-69985000D01*
X170180000Y-69979509D01*
X170124248Y-69985000D01*
X169957501Y-70001423D01*
X169743553Y-70066324D01*
X169546377Y-70171716D01*
X169373551Y-70313551D01*
X169338011Y-70356857D01*
X159549869Y-80145000D01*
X151185752Y-80145000D01*
X151130000Y-80139509D01*
X151074249Y-80145000D01*
X151074248Y-80145000D01*
X150907501Y-80161423D01*
X150693553Y-80226324D01*
X150496377Y-80331716D01*
X150323551Y-80473551D01*
X150181716Y-80646377D01*
X150076324Y-80843553D01*
X150011423Y-81057501D01*
X149989509Y-81280000D01*
X149995001Y-81335762D01*
X149995000Y-87159043D01*
X149975506Y-87169463D01*
X149878815Y-87248815D01*
X149799463Y-87345506D01*
X149740498Y-87455820D01*
X149704188Y-87575518D01*
X149702419Y-87593482D01*
X149609608Y-87480392D01*
X149391101Y-87301068D01*
X149141808Y-87167818D01*
X148871309Y-87085764D01*
X148590000Y-87058057D01*
X148308692Y-87085764D01*
X148205000Y-87117218D01*
X148205000Y-86403477D01*
X148209282Y-86360000D01*
X148192195Y-86186510D01*
X148141589Y-86019687D01*
X148059411Y-85865941D01*
X147948817Y-85731183D01*
X147814059Y-85620589D01*
X147660313Y-85538411D01*
X147493490Y-85487805D01*
X147363477Y-85475000D01*
X147320000Y-85470718D01*
X147276524Y-85475000D01*
X142283465Y-85475000D01*
X142239999Y-85470719D01*
X142196533Y-85475000D01*
X142196523Y-85475000D01*
X142066510Y-85487805D01*
X141899687Y-85538411D01*
X141745941Y-85620589D01*
X141745939Y-85620590D01*
X141745940Y-85620590D01*
X141644953Y-85703468D01*
X141644951Y-85703470D01*
X141611183Y-85731183D01*
X141583470Y-85764951D01*
X140374956Y-86973466D01*
X140341183Y-87001183D01*
X140230589Y-87135942D01*
X140148411Y-87289688D01*
X140142770Y-87308284D01*
X140137024Y-87327228D01*
X139950393Y-87480392D01*
X139771068Y-87698899D01*
X139702735Y-87826741D01*
X139552601Y-87597161D01*
X139354895Y-87395500D01*
X139121646Y-87236285D01*
X138861818Y-87125633D01*
X138779039Y-87108096D01*
X138557000Y-87230085D01*
X138557000Y-88773000D01*
X138577000Y-88773000D01*
X138577000Y-89027000D01*
X138557000Y-89027000D01*
X138557000Y-89047000D01*
X138303000Y-89047000D01*
X138303000Y-89027000D01*
X138283000Y-89027000D01*
X138283000Y-88773000D01*
X138303000Y-88773000D01*
X138303000Y-87230085D01*
X138080961Y-87108096D01*
X137998182Y-87125633D01*
X137738354Y-87236285D01*
X137505105Y-87395500D01*
X137307399Y-87597161D01*
X137157265Y-87826741D01*
X137088932Y-87698899D01*
X137030231Y-87627372D01*
X137025000Y-87574255D01*
X137025000Y-87574248D01*
X137008577Y-87407501D01*
X136943676Y-87193553D01*
X136838284Y-86996377D01*
X136696449Y-86823551D01*
X136653140Y-86788008D01*
X135461996Y-85596865D01*
X135426449Y-85553551D01*
X135253623Y-85411716D01*
X135056447Y-85306324D01*
X134842499Y-85241423D01*
X134675752Y-85225000D01*
X134675751Y-85225000D01*
X134620000Y-85219509D01*
X134564249Y-85225000D01*
X130010132Y-85225000D01*
X116705000Y-71919869D01*
X116705000Y-60540000D01*
X121701928Y-60540000D01*
X121714188Y-60664482D01*
X121750498Y-60784180D01*
X121809463Y-60894494D01*
X121888815Y-60991185D01*
X121985506Y-61070537D01*
X122095820Y-61129502D01*
X122168380Y-61151513D01*
X122036525Y-61283368D01*
X121874010Y-61526589D01*
X121762068Y-61796842D01*
X121705000Y-62083740D01*
X121705000Y-62376260D01*
X121762068Y-62663158D01*
X121874010Y-62933411D01*
X122036525Y-63176632D01*
X122055000Y-63195107D01*
X122055001Y-72380997D01*
X121991068Y-72458899D01*
X121857818Y-72708192D01*
X121775764Y-72978691D01*
X121755000Y-73189508D01*
X121755000Y-74130491D01*
X121775764Y-74341308D01*
X121857818Y-74611807D01*
X121991068Y-74861100D01*
X122170392Y-75079607D01*
X122388899Y-75258932D01*
X122638192Y-75392182D01*
X122908691Y-75474236D01*
X123190000Y-75501943D01*
X123471308Y-75474236D01*
X123741807Y-75392182D01*
X123991100Y-75258932D01*
X124209607Y-75079608D01*
X124388932Y-74861101D01*
X124460000Y-74728142D01*
X124531068Y-74861100D01*
X124710392Y-75079607D01*
X124928899Y-75258932D01*
X125178192Y-75392182D01*
X125448691Y-75474236D01*
X125730000Y-75501943D01*
X126011308Y-75474236D01*
X126281807Y-75392182D01*
X126531100Y-75258932D01*
X126749607Y-75079608D01*
X126928932Y-74861101D01*
X127000000Y-74728142D01*
X127071068Y-74861100D01*
X127250392Y-75079607D01*
X127468899Y-75258932D01*
X127718192Y-75392182D01*
X127988691Y-75474236D01*
X128270000Y-75501943D01*
X128551308Y-75474236D01*
X128821807Y-75392182D01*
X129071100Y-75258932D01*
X129289607Y-75079608D01*
X129468932Y-74861101D01*
X129540000Y-74728142D01*
X129611068Y-74861100D01*
X129790392Y-75079607D01*
X130008899Y-75258932D01*
X130258192Y-75392182D01*
X130528691Y-75474236D01*
X130810000Y-75501943D01*
X131091308Y-75474236D01*
X131361807Y-75392182D01*
X131611100Y-75258932D01*
X131829607Y-75079608D01*
X132008932Y-74861101D01*
X132080000Y-74728142D01*
X132151068Y-74861100D01*
X132330392Y-75079607D01*
X132548899Y-75258932D01*
X132798192Y-75392182D01*
X133068691Y-75474236D01*
X133350000Y-75501943D01*
X133631308Y-75474236D01*
X133901807Y-75392182D01*
X134151100Y-75258932D01*
X134369607Y-75079608D01*
X134548932Y-74861101D01*
X134620000Y-74728142D01*
X134691068Y-74861100D01*
X134870392Y-75079607D01*
X135088899Y-75258932D01*
X135338192Y-75392182D01*
X135608691Y-75474236D01*
X135890000Y-75501943D01*
X136171308Y-75474236D01*
X136441807Y-75392182D01*
X136691100Y-75258932D01*
X136909607Y-75079608D01*
X137088932Y-74861101D01*
X137160000Y-74728142D01*
X137231068Y-74861100D01*
X137410392Y-75079607D01*
X137628899Y-75258932D01*
X137878192Y-75392182D01*
X138148691Y-75474236D01*
X138430000Y-75501943D01*
X138711308Y-75474236D01*
X138981807Y-75392182D01*
X139231100Y-75258932D01*
X139449607Y-75079608D01*
X139628932Y-74861101D01*
X139700000Y-74728142D01*
X139771068Y-74861100D01*
X139950392Y-75079607D01*
X140168899Y-75258932D01*
X140418192Y-75392182D01*
X140688691Y-75474236D01*
X140970000Y-75501943D01*
X141251308Y-75474236D01*
X141521807Y-75392182D01*
X141771100Y-75258932D01*
X141989607Y-75079608D01*
X142168932Y-74861101D01*
X142240000Y-74728142D01*
X142311068Y-74861100D01*
X142490392Y-75079607D01*
X142708899Y-75258932D01*
X142958192Y-75392182D01*
X143228691Y-75474236D01*
X143510000Y-75501943D01*
X143791308Y-75474236D01*
X144061807Y-75392182D01*
X144311100Y-75258932D01*
X144529607Y-75079608D01*
X144708932Y-74861101D01*
X144780000Y-74728142D01*
X144851068Y-74861100D01*
X145030392Y-75079607D01*
X145248899Y-75258932D01*
X145498192Y-75392182D01*
X145768691Y-75474236D01*
X146050000Y-75501943D01*
X146331308Y-75474236D01*
X146601807Y-75392182D01*
X146851100Y-75258932D01*
X147069607Y-75079608D01*
X147248932Y-74861101D01*
X147320000Y-74728142D01*
X147391068Y-74861100D01*
X147570392Y-75079607D01*
X147788899Y-75258932D01*
X148038192Y-75392182D01*
X148308691Y-75474236D01*
X148590000Y-75501943D01*
X148871308Y-75474236D01*
X149141807Y-75392182D01*
X149391100Y-75258932D01*
X149609607Y-75079608D01*
X149788932Y-74861101D01*
X149860000Y-74728142D01*
X149931068Y-74861100D01*
X150110392Y-75079607D01*
X150328899Y-75258932D01*
X150578192Y-75392182D01*
X150848691Y-75474236D01*
X151130000Y-75501943D01*
X151411308Y-75474236D01*
X151681807Y-75392182D01*
X151931100Y-75258932D01*
X152149607Y-75079608D01*
X152328932Y-74861101D01*
X152400000Y-74728142D01*
X152471068Y-74861100D01*
X152650392Y-75079607D01*
X152868899Y-75258932D01*
X153118192Y-75392182D01*
X153388691Y-75474236D01*
X153670000Y-75501943D01*
X153951308Y-75474236D01*
X154221807Y-75392182D01*
X154471100Y-75258932D01*
X154689607Y-75079608D01*
X154868932Y-74861101D01*
X154940000Y-74728142D01*
X155011068Y-74861100D01*
X155190392Y-75079607D01*
X155408899Y-75258932D01*
X155658192Y-75392182D01*
X155928691Y-75474236D01*
X156210000Y-75501943D01*
X156491308Y-75474236D01*
X156761807Y-75392182D01*
X157011100Y-75258932D01*
X157229607Y-75079608D01*
X157408932Y-74861101D01*
X157480000Y-74728142D01*
X157551068Y-74861100D01*
X157730392Y-75079607D01*
X157948899Y-75258932D01*
X158198192Y-75392182D01*
X158468691Y-75474236D01*
X158750000Y-75501943D01*
X159031308Y-75474236D01*
X159301807Y-75392182D01*
X159551100Y-75258932D01*
X159769607Y-75079608D01*
X159948932Y-74861101D01*
X160020000Y-74728142D01*
X160091068Y-74861100D01*
X160270392Y-75079607D01*
X160488899Y-75258932D01*
X160738192Y-75392182D01*
X161008691Y-75474236D01*
X161290000Y-75501943D01*
X161571308Y-75474236D01*
X161841807Y-75392182D01*
X162091100Y-75258932D01*
X162309607Y-75079608D01*
X162488932Y-74861101D01*
X162622182Y-74611808D01*
X162704236Y-74341309D01*
X162725000Y-74130492D01*
X162725000Y-73189509D01*
X162704236Y-72978691D01*
X162622182Y-72708192D01*
X162488932Y-72458899D01*
X162309608Y-72240392D01*
X162091101Y-72061068D01*
X161841808Y-71927818D01*
X161571309Y-71845764D01*
X161290000Y-71818057D01*
X161008692Y-71845764D01*
X160738193Y-71927818D01*
X160488900Y-72061068D01*
X160270393Y-72240392D01*
X160091068Y-72458899D01*
X160020000Y-72591858D01*
X159948932Y-72458899D01*
X159769608Y-72240392D01*
X159551101Y-72061068D01*
X159301808Y-71927818D01*
X159031309Y-71845764D01*
X158750000Y-71818057D01*
X158468692Y-71845764D01*
X158198193Y-71927818D01*
X157948900Y-72061068D01*
X157730393Y-72240392D01*
X157551068Y-72458899D01*
X157480000Y-72591858D01*
X157408932Y-72458899D01*
X157229608Y-72240392D01*
X157011101Y-72061068D01*
X156761808Y-71927818D01*
X156491309Y-71845764D01*
X156210000Y-71818057D01*
X155928692Y-71845764D01*
X155658193Y-71927818D01*
X155408900Y-72061068D01*
X155190393Y-72240392D01*
X155011068Y-72458899D01*
X154940000Y-72591858D01*
X154868932Y-72458899D01*
X154689608Y-72240392D01*
X154471101Y-72061068D01*
X154221808Y-71927818D01*
X153951309Y-71845764D01*
X153670000Y-71818057D01*
X153388692Y-71845764D01*
X153118193Y-71927818D01*
X152868900Y-72061068D01*
X152650393Y-72240392D01*
X152471068Y-72458899D01*
X152400000Y-72591858D01*
X152328932Y-72458899D01*
X152149608Y-72240392D01*
X151931101Y-72061068D01*
X151681808Y-71927818D01*
X151411309Y-71845764D01*
X151130000Y-71818057D01*
X150848692Y-71845764D01*
X150578193Y-71927818D01*
X150328900Y-72061068D01*
X150110393Y-72240392D01*
X149931068Y-72458899D01*
X149860000Y-72591858D01*
X149788932Y-72458899D01*
X149609608Y-72240392D01*
X149391101Y-72061068D01*
X149141808Y-71927818D01*
X148871309Y-71845764D01*
X148590000Y-71818057D01*
X148308692Y-71845764D01*
X148038193Y-71927818D01*
X147788900Y-72061068D01*
X147570393Y-72240392D01*
X147391068Y-72458899D01*
X147320000Y-72591858D01*
X147248932Y-72458899D01*
X147069608Y-72240392D01*
X146851101Y-72061068D01*
X146601808Y-71927818D01*
X146331309Y-71845764D01*
X146050000Y-71818057D01*
X145768692Y-71845764D01*
X145498193Y-71927818D01*
X145248900Y-72061068D01*
X145030393Y-72240392D01*
X144851068Y-72458899D01*
X144780000Y-72591858D01*
X144708932Y-72458899D01*
X144529608Y-72240392D01*
X144311101Y-72061068D01*
X144061808Y-71927818D01*
X143791309Y-71845764D01*
X143510000Y-71818057D01*
X143228692Y-71845764D01*
X142958193Y-71927818D01*
X142708900Y-72061068D01*
X142490393Y-72240392D01*
X142311068Y-72458899D01*
X142240000Y-72591858D01*
X142168932Y-72458899D01*
X141989608Y-72240392D01*
X141771101Y-72061068D01*
X141521808Y-71927818D01*
X141251309Y-71845764D01*
X140970000Y-71818057D01*
X140688692Y-71845764D01*
X140418193Y-71927818D01*
X140168900Y-72061068D01*
X139950393Y-72240392D01*
X139771068Y-72458899D01*
X139700000Y-72591858D01*
X139628932Y-72458899D01*
X139449608Y-72240392D01*
X139231101Y-72061068D01*
X138981808Y-71927818D01*
X138711309Y-71845764D01*
X138430000Y-71818057D01*
X138148692Y-71845764D01*
X137878193Y-71927818D01*
X137628900Y-72061068D01*
X137410393Y-72240392D01*
X137231068Y-72458899D01*
X137160000Y-72591858D01*
X137088932Y-72458899D01*
X136909608Y-72240392D01*
X136691101Y-72061068D01*
X136441808Y-71927818D01*
X136171309Y-71845764D01*
X135890000Y-71818057D01*
X135608692Y-71845764D01*
X135338193Y-71927818D01*
X135088900Y-72061068D01*
X134870393Y-72240392D01*
X134691068Y-72458899D01*
X134620000Y-72591858D01*
X134548932Y-72458899D01*
X134369608Y-72240392D01*
X134151101Y-72061068D01*
X133901808Y-71927818D01*
X133631309Y-71845764D01*
X133350000Y-71818057D01*
X133068692Y-71845764D01*
X132911765Y-71893367D01*
X133820132Y-70985000D01*
X134564248Y-70985000D01*
X134620000Y-70990491D01*
X134675751Y-70985000D01*
X134675752Y-70985000D01*
X134842499Y-70968577D01*
X135056447Y-70903676D01*
X135253623Y-70798284D01*
X135426449Y-70656449D01*
X135568284Y-70483623D01*
X135673676Y-70286447D01*
X135738577Y-70072499D01*
X135760491Y-69850000D01*
X135755000Y-69794248D01*
X135755000Y-63195107D01*
X135773475Y-63176632D01*
X135935990Y-62933411D01*
X136047932Y-62663158D01*
X136105000Y-62376260D01*
X136105000Y-62083740D01*
X136047932Y-61796842D01*
X135935990Y-61526589D01*
X135773475Y-61283368D01*
X135641620Y-61151513D01*
X135714180Y-61129502D01*
X135824494Y-61070537D01*
X135921185Y-60991185D01*
X136000537Y-60894494D01*
X136059502Y-60784180D01*
X136095812Y-60664482D01*
X136108072Y-60540000D01*
X136105000Y-59975750D01*
X135946250Y-59817000D01*
X134747000Y-59817000D01*
X134747000Y-59837000D01*
X134493000Y-59837000D01*
X134493000Y-59817000D01*
X133293750Y-59817000D01*
X133135000Y-59975750D01*
X133131928Y-60540000D01*
X133144188Y-60664482D01*
X133180498Y-60784180D01*
X133239463Y-60894494D01*
X133318815Y-60991185D01*
X133415506Y-61070537D01*
X133525820Y-61129502D01*
X133598380Y-61151513D01*
X133466525Y-61283368D01*
X133304010Y-61526589D01*
X133192068Y-61796842D01*
X133135000Y-62083740D01*
X133135000Y-62376260D01*
X133192068Y-62663158D01*
X133304010Y-62933411D01*
X133466525Y-63176632D01*
X133485001Y-63195108D01*
X133485000Y-68715000D01*
X133405741Y-68715000D01*
X133349999Y-68709510D01*
X133294257Y-68715000D01*
X133294248Y-68715000D01*
X133127501Y-68731423D01*
X132913553Y-68796324D01*
X132716377Y-68901716D01*
X132543551Y-69043551D01*
X132508009Y-69086859D01*
X131945000Y-69649868D01*
X131945000Y-63195107D01*
X131963475Y-63176632D01*
X132125990Y-62933411D01*
X132237932Y-62663158D01*
X132295000Y-62376260D01*
X132295000Y-62083740D01*
X132237932Y-61796842D01*
X132125990Y-61526589D01*
X131963475Y-61283368D01*
X131831620Y-61151513D01*
X131904180Y-61129502D01*
X132014494Y-61070537D01*
X132111185Y-60991185D01*
X132190537Y-60894494D01*
X132249502Y-60784180D01*
X132285812Y-60664482D01*
X132298072Y-60540000D01*
X132295000Y-59975750D01*
X132136250Y-59817000D01*
X130937000Y-59817000D01*
X130937000Y-59837000D01*
X130683000Y-59837000D01*
X130683000Y-59817000D01*
X129483750Y-59817000D01*
X129325000Y-59975750D01*
X129321928Y-60540000D01*
X129334188Y-60664482D01*
X129370498Y-60784180D01*
X129429463Y-60894494D01*
X129508815Y-60991185D01*
X129605506Y-61070537D01*
X129715820Y-61129502D01*
X129788380Y-61151513D01*
X129656525Y-61283368D01*
X129494010Y-61526589D01*
X129382068Y-61796842D01*
X129325000Y-62083740D01*
X129325000Y-62376260D01*
X129382068Y-62663158D01*
X129494010Y-62933411D01*
X129656525Y-63176632D01*
X129675000Y-63195107D01*
X129675001Y-68715000D01*
X129595743Y-68715000D01*
X129539999Y-68709510D01*
X129484255Y-68715000D01*
X129484248Y-68715000D01*
X129338493Y-68729356D01*
X129317500Y-68731423D01*
X129267705Y-68746529D01*
X129103553Y-68796324D01*
X128906377Y-68901716D01*
X128733551Y-69043551D01*
X128698008Y-69086860D01*
X128135000Y-69649868D01*
X128135000Y-63195107D01*
X128153475Y-63176632D01*
X128315990Y-62933411D01*
X128427932Y-62663158D01*
X128485000Y-62376260D01*
X128485000Y-62083740D01*
X128427932Y-61796842D01*
X128315990Y-61526589D01*
X128153475Y-61283368D01*
X128021620Y-61151513D01*
X128094180Y-61129502D01*
X128204494Y-61070537D01*
X128301185Y-60991185D01*
X128380537Y-60894494D01*
X128439502Y-60784180D01*
X128475812Y-60664482D01*
X128488072Y-60540000D01*
X128485000Y-59975750D01*
X128326250Y-59817000D01*
X127127000Y-59817000D01*
X127127000Y-59837000D01*
X126873000Y-59837000D01*
X126873000Y-59817000D01*
X125673750Y-59817000D01*
X125515000Y-59975750D01*
X125511928Y-60540000D01*
X125524188Y-60664482D01*
X125560498Y-60784180D01*
X125619463Y-60894494D01*
X125698815Y-60991185D01*
X125795506Y-61070537D01*
X125905820Y-61129502D01*
X125978380Y-61151513D01*
X125846525Y-61283368D01*
X125684010Y-61526589D01*
X125572068Y-61796842D01*
X125515000Y-62083740D01*
X125515000Y-62376260D01*
X125572068Y-62663158D01*
X125684010Y-62933411D01*
X125846525Y-63176632D01*
X125865000Y-63195107D01*
X125865001Y-69379867D01*
X124966865Y-70278004D01*
X124923551Y-70313551D01*
X124781716Y-70486377D01*
X124690812Y-70656448D01*
X124676324Y-70683554D01*
X124611423Y-70897502D01*
X124589509Y-71120000D01*
X124595000Y-71175752D01*
X124595000Y-72380997D01*
X124531068Y-72458899D01*
X124460000Y-72591858D01*
X124388932Y-72458899D01*
X124325000Y-72380998D01*
X124325000Y-63195107D01*
X124343475Y-63176632D01*
X124505990Y-62933411D01*
X124617932Y-62663158D01*
X124675000Y-62376260D01*
X124675000Y-62083740D01*
X124617932Y-61796842D01*
X124505990Y-61526589D01*
X124343475Y-61283368D01*
X124211620Y-61151513D01*
X124284180Y-61129502D01*
X124394494Y-61070537D01*
X124491185Y-60991185D01*
X124570537Y-60894494D01*
X124629502Y-60784180D01*
X124665812Y-60664482D01*
X124678072Y-60540000D01*
X124675000Y-59975750D01*
X124516250Y-59817000D01*
X123317000Y-59817000D01*
X123317000Y-59837000D01*
X123063000Y-59837000D01*
X123063000Y-59817000D01*
X121863750Y-59817000D01*
X121705000Y-59975750D01*
X121701928Y-60540000D01*
X116705000Y-60540000D01*
X116705000Y-58840000D01*
X121701928Y-58840000D01*
X121705000Y-59404250D01*
X121863750Y-59563000D01*
X123063000Y-59563000D01*
X123063000Y-58363750D01*
X123317000Y-58363750D01*
X123317000Y-59563000D01*
X124516250Y-59563000D01*
X124675000Y-59404250D01*
X124678072Y-58840000D01*
X125511928Y-58840000D01*
X125515000Y-59404250D01*
X125673750Y-59563000D01*
X126873000Y-59563000D01*
X126873000Y-58363750D01*
X127127000Y-58363750D01*
X127127000Y-59563000D01*
X128326250Y-59563000D01*
X128485000Y-59404250D01*
X128488072Y-58840000D01*
X129321928Y-58840000D01*
X129325000Y-59404250D01*
X129483750Y-59563000D01*
X130683000Y-59563000D01*
X130683000Y-58363750D01*
X130937000Y-58363750D01*
X130937000Y-59563000D01*
X132136250Y-59563000D01*
X132295000Y-59404250D01*
X132298072Y-58840000D01*
X133131928Y-58840000D01*
X133135000Y-59404250D01*
X133293750Y-59563000D01*
X134493000Y-59563000D01*
X134493000Y-58363750D01*
X134747000Y-58363750D01*
X134747000Y-59563000D01*
X135946250Y-59563000D01*
X136105000Y-59404250D01*
X136108072Y-58840000D01*
X136095812Y-58715518D01*
X136059502Y-58595820D01*
X136000537Y-58485506D01*
X135921185Y-58388815D01*
X135824494Y-58309463D01*
X135714180Y-58250498D01*
X135594482Y-58214188D01*
X135470000Y-58201928D01*
X134905750Y-58205000D01*
X134747000Y-58363750D01*
X134493000Y-58363750D01*
X134334250Y-58205000D01*
X133770000Y-58201928D01*
X133645518Y-58214188D01*
X133525820Y-58250498D01*
X133415506Y-58309463D01*
X133318815Y-58388815D01*
X133239463Y-58485506D01*
X133180498Y-58595820D01*
X133144188Y-58715518D01*
X133131928Y-58840000D01*
X132298072Y-58840000D01*
X132285812Y-58715518D01*
X132249502Y-58595820D01*
X132190537Y-58485506D01*
X132111185Y-58388815D01*
X132014494Y-58309463D01*
X131904180Y-58250498D01*
X131784482Y-58214188D01*
X131660000Y-58201928D01*
X131095750Y-58205000D01*
X130937000Y-58363750D01*
X130683000Y-58363750D01*
X130524250Y-58205000D01*
X129960000Y-58201928D01*
X129835518Y-58214188D01*
X129715820Y-58250498D01*
X129605506Y-58309463D01*
X129508815Y-58388815D01*
X129429463Y-58485506D01*
X129370498Y-58595820D01*
X129334188Y-58715518D01*
X129321928Y-58840000D01*
X128488072Y-58840000D01*
X128475812Y-58715518D01*
X128439502Y-58595820D01*
X128380537Y-58485506D01*
X128301185Y-58388815D01*
X128204494Y-58309463D01*
X128094180Y-58250498D01*
X127974482Y-58214188D01*
X127850000Y-58201928D01*
X127285750Y-58205000D01*
X127127000Y-58363750D01*
X126873000Y-58363750D01*
X126714250Y-58205000D01*
X126150000Y-58201928D01*
X126025518Y-58214188D01*
X125905820Y-58250498D01*
X125795506Y-58309463D01*
X125698815Y-58388815D01*
X125619463Y-58485506D01*
X125560498Y-58595820D01*
X125524188Y-58715518D01*
X125511928Y-58840000D01*
X124678072Y-58840000D01*
X124665812Y-58715518D01*
X124629502Y-58595820D01*
X124570537Y-58485506D01*
X124491185Y-58388815D01*
X124394494Y-58309463D01*
X124284180Y-58250498D01*
X124164482Y-58214188D01*
X124040000Y-58201928D01*
X123475750Y-58205000D01*
X123317000Y-58363750D01*
X123063000Y-58363750D01*
X122904250Y-58205000D01*
X122340000Y-58201928D01*
X122215518Y-58214188D01*
X122095820Y-58250498D01*
X121985506Y-58309463D01*
X121888815Y-58388815D01*
X121809463Y-58485506D01*
X121750498Y-58595820D01*
X121714188Y-58715518D01*
X121701928Y-58840000D01*
X116705000Y-58840000D01*
X116705000Y-57015000D01*
X154469869Y-57015000D01*
X165528009Y-68073141D01*
G37*
%TD.AperFunction*%
%TD*%
M02*
