M48
; DRILL file {KiCad (5.1.9)-1} date 11/25/23 15:35:46
; FORMAT={-:-/ absolute / inch / decimal}
; #@! TF.CreationDate,2023-11-25T15:35:46-05:00
; #@! TF.GenerationSoftware,Kicad,Pcbnew,(5.1.9)-1
; #@! TF.FileFunction,Plated,1,2,PTH
FMAT,2
INCH
T1C0.0315
T2C0.0354
T3C0.0394
%
G90
G05
T1
X4.05Y-3.65
X4.45Y-3.65
X4.85Y-2.9
X4.95Y-2.9
X5.05Y-2.9
X5.15Y-2.9
X5.25Y-2.9
X5.25Y-3.5
X5.35Y-2.9
X5.35Y-3.5
X5.45Y-2.9
X5.45Y-3.5
X5.55Y-2.9
X5.55Y-3.5
X5.65Y-2.9
X5.65Y-3.5
X5.75Y-2.9
X5.75Y-3.5
X5.85Y-2.9
X5.85Y-3.5
X5.95Y-2.9
X5.95Y-3.5
X6.05Y-2.9
X6.15Y-2.9
X6.25Y-2.9
X6.25Y-3.85
X6.25Y-4.15
X6.35Y-2.9
X6.35Y-3.85
X6.35Y-4.15
X6.45Y-3.85
X6.45Y-4.15
X6.55Y-3.85
X6.55Y-4.15
X6.55Y-4.5
X6.55Y-4.9
X7.0Y-3.8
X7.0Y-4.2
X7.1Y-2.9
X7.1Y-3.3
T2
X6.8Y-2.9
X6.8Y-3.3
T3
X4.05Y-3.95
X4.15Y-3.95
X4.25Y-3.0
X4.25Y-3.1
X4.25Y-3.2
X4.3Y-4.4
X4.3Y-5.0
X4.4Y-4.4
X4.4Y-5.0
X4.5Y-4.4
X4.5Y-5.0
X4.6Y-4.4
X4.6Y-5.0
X4.7Y-4.4
X4.7Y-5.0
X4.8Y-4.4
X4.8Y-5.0
X4.85Y-2.35
X4.85Y-2.45
X4.9Y-4.4
X4.9Y-5.0
X5.0Y-2.35
X5.0Y-2.45
X5.0Y-4.4
X5.0Y-5.0
X5.1Y-4.4
X5.1Y-5.0
X5.15Y-2.35
X5.15Y-2.45
X5.2Y-4.4
X5.2Y-5.0
X5.3Y-2.35
X5.3Y-2.45
X5.3Y-4.4
X5.3Y-5.0
X5.4Y-3.9
X5.4Y-4.4
X5.4Y-5.0
X5.5Y-3.9
X5.5Y-4.4
X5.5Y-5.0
X5.6Y-3.9
X5.6Y-4.4
X5.6Y-5.0
X5.7Y-3.9
X5.7Y-4.4
X5.7Y-5.0
X6.25Y-4.65
X6.25Y-4.75
X7.4Y-3.9
X7.4Y-4.0
X7.4Y-4.1
T3
G00X4.065Y-2.3925
M15
G01X4.065Y-2.4713
M16
G05
G00X4.2894Y-2.3138
M15
G01X4.2106Y-2.3138
M16
G05
G00X4.2894Y-2.55
M15
G01X4.2106Y-2.55
M16
G05
T0
M30
